<svg version="1.1" viewBox="0.0 0.0 975.2467191601049 205.45144356955382" fill="none" stroke="none" stroke-linecap="square" stroke-miterlimit="10" xmlns:xlink="http://www.w3.org/1999/xlink" xmlns="http://www.w3.org/2000/svg"><clipPath id="p.0"><path d="m0 0l975.2467 0l0 205.45145l-975.2467 0l0 -205.45145z" clip-rule="nonzero"/></clipPath><g clip-path="url(#p.0)"><path fill="#000000" fill-opacity="0.0" d="m0 0l975.2467 0l0 205.45145l-975.2467 0z" fill-rule="evenodd"/><path fill="#ffffff" d="m8.077428 113.56956l0 0c0 -18.760292 15.222318 -33.968506 34.0 -33.968506l0 0c9.017361 0 17.665394 3.5788116 24.04163 9.949142c6.376236 6.370331 9.958374 15.010353 9.958374 24.019363l0 0c0 18.760277 -15.222321 33.9685 -34.000004 33.9685l0 0c-18.777681 0 -34.0 -15.208221 -34.0 -33.9685z" fill-rule="evenodd"/><path stroke="#000000" stroke-width="1.0" stroke-linejoin="round" stroke-linecap="butt" d="m8.077428 113.56956l0 0c0 -18.760292 15.222318 -33.968506 34.0 -33.968506l0 0c9.017361 0 17.665394 3.5788116 24.04163 9.949142c6.376236 6.370331 9.958374 15.010353 9.958374 24.019363l0 0c0 18.760277 -15.222321 33.9685 -34.000004 33.9685l0 0c-18.777681 0 -34.0 -15.208221 -34.0 -33.9685z" fill-rule="evenodd"/><path fill="#000000" d="m35.82439 120.489555l5.125 -13.359375l1.90625 0l5.46875 13.359375l-2.015625 0l-1.546875 -4.046875l-5.59375 0l-1.46875 4.046875l-1.875 0zm3.859375 -5.484375l4.53125 0l-1.40625 -3.703125q-0.625 -1.6875 -0.9375 -2.765625q-0.265625 1.28125 -0.71875 2.546875l-1.46875 3.921875z" fill-rule="nonzero"/><path fill="#ffffff" d="m103.732285 113.56956l0 0c0 -18.760292 15.222321 -33.968506 34.0 -33.968506l0 0c9.0173645 0 17.66539 3.5788116 24.041626 9.949142c6.376236 6.370331 9.958374 15.010353 9.958374 24.019363l0 0c0 18.760277 -15.222321 33.9685 -34.0 33.9685l0 0c-18.77768 0 -34.0 -15.208221 -34.0 -33.9685z" fill-rule="evenodd"/><path stroke="#000000" stroke-width="1.0" stroke-linejoin="round" stroke-linecap="butt" d="m103.732285 113.56956l0 0c0 -18.760292 15.222321 -33.968506 34.0 -33.968506l0 0c9.0173645 0 17.66539 3.5788116 24.041626 9.949142c6.376236 6.370331 9.958374 15.010353 9.958374 24.019363l0 0c0 18.760277 -15.222321 33.9685 -34.0 33.9685l0 0c-18.77768 0 -34.0 -15.208221 -34.0 -33.9685z" fill-rule="evenodd"/><path fill="#000000" d="m132.86987 120.489555l0 -13.359375l5.015625 0q1.53125 0 2.453125 0.40625q0.921875 0.40625 1.4375 1.25q0.53125 0.84375 0.53125 1.765625q0 0.859375 -0.46875 1.625q-0.453125 0.75 -1.390625 1.203125q1.203125 0.359375 1.859375 1.21875q0.65625 0.859375 0.65625 2.015625q0 0.9375 -0.40625 1.75q-0.390625 0.796875 -0.984375 1.234375q-0.578125 0.4375 -1.453125 0.671875q-0.875 0.21875 -2.15625 0.21875l-5.09375 0zm1.78125 -7.75l2.875 0q1.1875 0 1.6875 -0.140625q0.671875 -0.203125 1.015625 -0.671875q0.34375 -0.46875 0.34375 -1.171875q0 -0.65625 -0.328125 -1.15625q-0.3125 -0.515625 -0.90625 -0.703125q-0.59375 -0.1875 -2.03125 -0.1875l-2.65625 0l0 4.03125zm0 6.171875l3.3125 0q0.859375 0 1.203125 -0.0625q0.609375 -0.109375 1.015625 -0.359375q0.421875 -0.265625 0.6875 -0.75q0.265625 -0.484375 0.265625 -1.125q0 -0.75 -0.390625 -1.296875q-0.375 -0.546875 -1.0625 -0.765625q-0.671875 -0.234375 -1.953125 -0.234375l-3.078125 0l0 4.59375z" fill-rule="nonzero"/><path fill="#ffffff" d="m199.38715 113.56956l0 0c0 -18.760292 15.222305 -33.968506 34.0 -33.968506l0 0c9.017349 0 17.66539 3.5788116 24.041626 9.949142c6.3762207 6.370331 9.958374 15.010353 9.958374 24.019363l0 0c0 18.760277 -15.222321 33.9685 -34.0 33.9685l0 0c-18.777695 0 -34.0 -15.208221 -34.0 -33.9685z" fill-rule="evenodd"/><path stroke="#000000" stroke-width="1.0" stroke-linejoin="round" stroke-linecap="butt" d="m199.38715 113.56956l0 0c0 -18.760292 15.222305 -33.968506 34.0 -33.968506l0 0c9.017349 0 17.66539 3.5788116 24.041626 9.949142c6.3762207 6.370331 9.958374 15.010353 9.958374 24.019363l0 0c0 18.760277 -15.222321 33.9685 -34.0 33.9685l0 0c-18.777695 0 -34.0 -15.208221 -34.0 -33.9685z" fill-rule="evenodd"/><path fill="#000000" d="m237.61942 115.802055l1.765625 0.453125q-0.5625 2.171875 -2.0 3.328125q-1.4375 1.140625 -3.53125 1.140625q-2.15625 0 -3.515625 -0.875q-1.34375 -0.890625 -2.0625 -2.546875q-0.703125 -1.671875 -0.703125 -3.59375q0 -2.078125 0.796875 -3.625q0.796875 -1.5625 2.265625 -2.359375q1.484375 -0.8125 3.25 -0.8125q2.0 0 3.359375 1.015625q1.375 1.015625 1.90625 2.875l-1.734375 0.40625q-0.46875 -1.453125 -1.359375 -2.109375q-0.875 -0.671875 -2.203125 -0.671875q-1.546875 0 -2.578125 0.734375q-1.03125 0.734375 -1.453125 1.984375q-0.421875 1.234375 -0.421875 2.5625q0 1.703125 0.5 2.96875q0.5 1.265625 1.546875 1.90625q1.046875 0.625 2.265625 0.625q1.484375 0 2.515625 -0.859375q1.03125 -0.859375 1.390625 -2.546875z" fill-rule="nonzero"/><path fill="#ffffff" d="m295.042 113.56956l0 0c0 -18.760292 15.222321 -33.968506 34.0 -33.968506l0 0c9.0173645 0 17.665405 3.5788116 24.041626 9.949142c6.376251 6.370331 9.958374 15.010353 9.958374 24.019363l0 0c0 18.760277 -15.222321 33.9685 -34.0 33.9685l0 0c-18.77768 0 -34.0 -15.208221 -34.0 -33.9685z" fill-rule="evenodd"/><path stroke="#000000" stroke-width="1.0" stroke-linejoin="round" stroke-linecap="butt" d="m295.042 113.56956l0 0c0 -18.760292 15.222321 -33.968506 34.0 -33.968506l0 0c9.0173645 0 17.665405 3.5788116 24.041626 9.949142c6.376251 6.370331 9.958374 15.010353 9.958374 24.019363l0 0c0 18.760277 -15.222321 33.9685 -34.0 33.9685l0 0c-18.77768 0 -34.0 -15.208221 -34.0 -33.9685z" fill-rule="evenodd"/><path fill="#000000" d="m323.743 120.489555l0 -13.359375l4.609375 0q1.546875 0 2.375 0.203125q1.140625 0.25 1.953125 0.953125q1.0625 0.890625 1.578125 2.28125q0.53125 1.390625 0.53125 3.171875q0 1.515625 -0.359375 2.703125q-0.359375 1.171875 -0.921875 1.9375q-0.546875 0.765625 -1.203125 1.21875q-0.65625 0.4375 -1.59375 0.671875q-0.9375 0.21875 -2.140625 0.21875l-4.828125 0zm1.765625 -1.578125l2.859375 0q1.3125 0 2.0625 -0.234375q0.75 -0.25 1.203125 -0.703125q0.625 -0.625 0.96875 -1.6875q0.359375 -1.0625 0.359375 -2.578125q0 -2.09375 -0.6875 -3.21875q-0.6875 -1.125 -1.671875 -1.5q-0.703125 -0.28125 -2.28125 -0.28125l-2.8125 0l0 10.203125z" fill-rule="nonzero"/><path fill="#ffffff" d="m390.69684 113.56956l0 0c0 -18.760292 15.222321 -33.968506 34.0 -33.968506l0 0c9.0173645 0 17.665405 3.5788116 24.041656 9.949142c6.3762207 6.370331 9.9583435 15.010353 9.9583435 24.019363l0 0c0 18.760277 -15.222321 33.9685 -34.0 33.9685l0 0c-18.77768 0 -34.0 -15.208221 -34.0 -33.9685z" fill-rule="evenodd"/><path stroke="#000000" stroke-width="1.0" stroke-linejoin="round" stroke-linecap="butt" d="m390.69684 113.56956l0 0c0 -18.760292 15.222321 -33.968506 34.0 -33.968506l0 0c9.0173645 0 17.665405 3.5788116 24.041656 9.949142c6.3762207 6.370331 9.9583435 15.010353 9.9583435 24.019363l0 0c0 18.760277 -15.222321 33.9685 -34.0 33.9685l0 0c-18.77768 0 -34.0 -15.208221 -34.0 -33.9685z" fill-rule="evenodd"/><path fill="#000000" d="m419.94382 120.489555l0 -13.359375l9.65625 0l0 1.578125l-7.875 0l0 4.09375l7.375 0l0 1.5625l-7.375 0l0 4.546875l8.1875 0l0 1.578125l-9.96875 0z" fill-rule="nonzero"/><path fill="#ffffff" d="m486.3517 113.56956l0 0c0 -18.760292 15.222321 -33.968506 33.99997 -33.968506l0 0c9.017395 0 17.665405 3.5788116 24.041626 9.949142c6.3762817 6.370331 9.958374 15.010353 9.958374 24.019363l0 0c0 18.760277 -15.22229 33.9685 -34.0 33.9685l0 0c-18.777649 0 -33.99997 -15.208221 -33.99997 -33.9685z" fill-rule="evenodd"/><path stroke="#000000" stroke-width="1.0" stroke-linejoin="round" stroke-linecap="butt" d="m486.3517 113.56956l0 0c0 -18.760292 15.222321 -33.968506 33.99997 -33.968506l0 0c9.017395 0 17.665405 3.5788116 24.041626 9.949142c6.3762817 6.370331 9.958374 15.010353 9.958374 24.019363l0 0c0 18.760277 -15.22229 33.9685 -34.0 33.9685l0 0c-18.777649 0 -33.99997 -15.208221 -33.99997 -33.9685z" fill-rule="evenodd"/><path fill="#000000" d="m516.18494 120.489555l0 -13.359375l9.015625 0l0 1.578125l-7.25 0l0 4.140625l6.265625 0l0 1.578125l-6.265625 0l0 6.0625l-1.765625 0z" fill-rule="nonzero"/><path fill="#ffffff" d="m582.0066 113.56956l0 0c0 -18.760292 15.22229 -33.968506 34.0 -33.968506l0 0c9.017334 0 17.665344 3.5788116 24.041626 9.949142c6.3762207 6.370331 9.958374 15.010353 9.958374 24.019363l0 0c0 18.760277 -15.222351 33.9685 -34.0 33.9685l0 0c-18.77771 0 -34.0 -15.208221 -34.0 -33.9685z" fill-rule="evenodd"/><path stroke="#000000" stroke-width="1.0" stroke-linejoin="round" stroke-linecap="butt" d="m582.0066 113.56956l0 0c0 -18.760292 15.22229 -33.968506 34.0 -33.968506l0 0c9.017334 0 17.665344 3.5788116 24.041626 9.949142c6.3762207 6.370331 9.958374 15.010353 9.958374 24.019363l0 0c0 18.760277 -15.222351 33.9685 -34.0 33.9685l0 0c-18.77771 0 -34.0 -15.208221 -34.0 -33.9685z" fill-rule="evenodd"/><path fill="#000000" d="m616.43835 115.25518l0 -1.578125l5.65625 0l0 4.953125q-1.296875 1.046875 -2.6875 1.578125q-1.375 0.515625 -2.84375 0.515625q-1.96875 0 -3.578125 -0.84375q-1.609375 -0.84375 -2.421875 -2.4375q-0.8125 -1.59375 -0.8125 -3.5625q0 -1.953125 0.8125 -3.640625q0.8125 -1.6875 2.34375 -2.5q1.53125 -0.828125 3.515625 -0.828125q1.453125 0 2.625 0.46875q1.171875 0.46875 1.828125 1.3125q0.671875 0.828125 1.015625 2.171875l-1.59375 0.4375q-0.296875 -1.015625 -0.75 -1.59375q-0.4375 -0.59375 -1.265625 -0.9375q-0.828125 -0.34375 -1.84375 -0.34375q-1.203125 0 -2.09375 0.375q-0.890625 0.359375 -1.4375 0.96875q-0.53125 0.59375 -0.828125 1.3125q-0.515625 1.234375 -0.515625 2.6875q0 1.78125 0.609375 2.984375q0.625 1.203125 1.796875 1.796875q1.171875 0.578125 2.5 0.578125q1.140625 0 2.234375 -0.4375q1.09375 -0.453125 1.65625 -0.953125l0 -2.484375l-3.921875 0z" fill-rule="nonzero"/><path fill="#000000" fill-opacity="0.0" d="m76.07743 113.56956l27.653542 0" fill-rule="evenodd"/><path stroke="#000000" stroke-width="1.0" stroke-linejoin="round" stroke-linecap="butt" d="m82.07743 113.56956l21.653542 0" fill-rule="evenodd"/><path fill="#000000" stroke="#000000" stroke-width="1.0" stroke-linecap="butt" d="m82.07743 111.91782l-4.538101 1.6517334l4.538101 1.6517258z" fill-rule="evenodd"/><path fill="#000000" fill-opacity="0.0" d="m171.73228 113.56956l27.65355 0" fill-rule="evenodd"/><path stroke="#000000" stroke-width="1.0" stroke-linejoin="round" stroke-linecap="butt" d="m177.73228 113.56956l21.65355 0" fill-rule="evenodd"/><path fill="#000000" stroke="#000000" stroke-width="1.0" stroke-linecap="butt" d="m177.73228 111.91782l-4.538101 1.6517334l4.538101 1.6517258z" fill-rule="evenodd"/><path fill="#000000" fill-opacity="0.0" d="m267.38715 113.56956l27.653534 0" fill-rule="evenodd"/><path stroke="#000000" stroke-width="1.0" stroke-linejoin="round" stroke-linecap="butt" d="m273.38715 113.56956l21.653534 0" fill-rule="evenodd"/><path fill="#000000" stroke="#000000" stroke-width="1.0" stroke-linecap="butt" d="m273.38715 111.91782l-4.5381165 1.6517334l4.5381165 1.6517258z" fill-rule="evenodd"/><path fill="#000000" fill-opacity="0.0" d="m363.042 113.56956l27.653534 0" fill-rule="evenodd"/><path stroke="#000000" stroke-width="1.0" stroke-linejoin="round" stroke-linecap="butt" d="m369.042 113.56956l21.653534 0" fill-rule="evenodd"/><path fill="#000000" stroke="#000000" stroke-width="1.0" stroke-linecap="butt" d="m369.042 111.91782l-4.538086 1.6517334l4.538086 1.6517258z" fill-rule="evenodd"/><path fill="#000000" fill-opacity="0.0" d="m458.69684 113.56956l27.653564 0" fill-rule="evenodd"/><path stroke="#000000" stroke-width="1.0" stroke-linejoin="round" stroke-linecap="butt" d="m464.69684 113.56956l21.653564 0" fill-rule="evenodd"/><path fill="#000000" stroke="#000000" stroke-width="1.0" stroke-linecap="butt" d="m464.69684 111.91782l-4.538086 1.6517334l4.538086 1.6517258z" fill-rule="evenodd"/><path fill="#000000" fill-opacity="0.0" d="m554.3517 113.56956l27.653564 0" fill-rule="evenodd"/><path stroke="#000000" stroke-width="1.0" stroke-linejoin="round" stroke-linecap="butt" d="m560.3517 113.56956l21.653564 0" fill-rule="evenodd"/><path fill="#000000" stroke="#000000" stroke-width="1.0" stroke-linecap="butt" d="m560.3517 111.91782l-4.538086 1.6517334l4.538086 1.6517258z" fill-rule="evenodd"/><path fill="#000000" fill-opacity="0.0" d="m681.66797 113.568245l-31.653503 0" fill-rule="evenodd"/><path stroke="#000000" stroke-width="1.0" stroke-linejoin="round" stroke-linecap="butt" d="m681.66797 113.568245l-25.653503 0" fill-rule="evenodd"/><path fill="#000000" stroke="#000000" stroke-width="1.0" stroke-linecap="butt" d="m656.01447 111.91651l-4.538147 1.6517334l4.538147 1.6517258z" fill-rule="evenodd"/><path fill="#000000" fill-opacity="0.0" d="m681.66797 91.63123l109.41736 0l0 43.874016l-109.41736 0z" fill-rule="evenodd"/><path stroke="#000000" stroke-width="1.0" stroke-linejoin="round" stroke-linecap="butt" d="m681.66797 91.63123l109.41736 0l0 43.874016l-109.41736 0z" fill-rule="evenodd"/><path fill="#000000" d="m705.1493 108.69186l0.046875 0.9375q0.296875 -0.53125 0.78125 -0.8125q0.5 -0.296875 1.1875 -0.296875q1.359375 0 1.8125 1.046875q0.296875 -0.46875 0.765625 -0.75q0.484375 -0.296875 1.15625 -0.296875q1.09375 0 1.671875 0.671875q0.578125 0.65625 0.578125 2.0l0 7.359375l-1.59375 0l0 -7.375q0 -1.25 -1.140625 -1.234375q-0.296875 0 -0.515625 0.09375q-0.21875 0.078125 -0.375 0.21875q-0.140625 0.140625 -0.21875 0.328125q-0.078125 0.1875 -0.109375 0.375l0 7.59375l-1.609375 0l0 -7.390625q0 -0.59375 -0.265625 -0.90625q-0.265625 -0.328125 -0.828125 -0.3125q-0.53125 0 -0.828125 0.21875q-0.28125 0.203125 -0.421875 0.546875l0 7.84375l-1.609375 0l0 -9.859375l1.515625 0zm16.898682 9.859375q-0.09375 -0.1875 -0.15625 -0.46875q-0.0625 -0.296875 -0.09375 -0.609375q-0.25 0.265625 -0.5625 0.5q-0.3125 0.21875 -0.703125 0.390625q-0.375 0.171875 -0.8125 0.265625q-0.421875 0.109375 -0.890625 0.109375q-0.796875 0 -1.4375 -0.21875q-0.625 -0.234375 -1.0625 -0.625q-0.4375 -0.390625 -0.6875 -0.921875q-0.234375 -0.53125 -0.234375 -1.15625q0 -0.8125 0.3125 -1.421875q0.328125 -0.609375 0.921875 -1.015625q0.59375 -0.40625 1.421875 -0.59375q0.84375 -0.203125 1.875 -0.203125l1.828125 0l0 -0.78125q0 -0.453125 -0.171875 -0.796875q-0.15625 -0.359375 -0.453125 -0.609375q-0.296875 -0.25 -0.734375 -0.390625q-0.421875 -0.140625 -0.96875 -0.140625q-0.5 0 -0.90625 0.140625q-0.390625 0.125 -0.671875 0.34375q-0.265625 0.203125 -0.421875 0.484375q-0.140625 0.28125 -0.140625 0.59375l-1.6875 0q0 -0.53125 0.265625 -1.046875q0.28125 -0.53125 0.78125 -0.9375q0.5 -0.421875 1.21875 -0.671875q0.734375 -0.25 1.65625 -0.25q0.84375 0 1.5625 0.203125q0.71875 0.203125 1.234375 0.625q0.53125 0.40625 0.828125 1.03125q0.296875 0.609375 0.296875 1.4375l0 4.578125q0 0.5 0.09375 1.046875q0.09375 0.546875 0.25 0.96875l0 0.140625l-1.75 0zm-2.984375 -1.28125q0.5 0 0.921875 -0.125q0.4375 -0.140625 0.78125 -0.34375q0.34375 -0.203125 0.59375 -0.46875q0.265625 -0.28125 0.40625 -0.5625l0 -2.0l-1.5625 0q-1.46875 0 -2.296875 0.4375q-0.8125 0.4375 -0.8125 1.375q0 0.359375 0.125 0.671875q0.125 0.3125 0.359375 0.53125q0.25 0.21875 0.625 0.359375q0.375 0.125 0.859375 0.125zm14.258118 -1.328125q0 -0.3125 -0.125 -0.546875q-0.125 -0.234375 -0.40625 -0.4375q-0.28125 -0.203125 -0.75 -0.375q-0.453125 -0.171875 -1.140625 -0.296875q-0.859375 -0.1875 -1.5625 -0.421875q-0.6875 -0.25 -1.1875 -0.59375q-0.484375 -0.34375 -0.765625 -0.796875q-0.265625 -0.46875 -0.265625 -1.078125q0 -0.59375 0.28125 -1.109375q0.28125 -0.53125 0.78125 -0.921875q0.515625 -0.390625 1.21875 -0.609375q0.703125 -0.234375 1.5625 -0.234375q0.90625 0 1.625 0.234375q0.734375 0.234375 1.25 0.65625q0.515625 0.40625 0.78125 0.96875q0.28125 0.5625 0.28125 1.21875l-1.6875 0q0 -0.328125 -0.171875 -0.625q-0.15625 -0.3125 -0.453125 -0.546875q-0.28125 -0.234375 -0.703125 -0.375q-0.40625 -0.15625 -0.921875 -0.15625q-0.546875 0 -0.953125 0.125q-0.40625 0.109375 -0.671875 0.3125q-0.265625 0.203125 -0.40625 0.46875q-0.140625 0.265625 -0.140625 0.546875q0 0.28125 0.109375 0.515625q0.109375 0.234375 0.375 0.421875q0.28125 0.171875 0.734375 0.328125q0.453125 0.140625 1.140625 0.265625q0.90625 0.203125 1.625 0.453125q0.71875 0.25 1.203125 0.609375q0.5 0.34375 0.75 0.8125q0.265625 0.453125 0.265625 1.0625q0 0.65625 -0.296875 1.203125q-0.28125 0.53125 -0.8125 0.921875q-0.53125 0.375 -1.265625 0.59375q-0.734375 0.203125 -1.609375 0.203125q-1.015625 0 -1.796875 -0.265625q-0.78125 -0.28125 -1.328125 -0.71875q-0.53125 -0.4375 -0.828125 -1.015625q-0.28125 -0.59375 -0.28125 -1.21875l1.6875 0q0.03125 0.515625 0.265625 0.875q0.25 0.359375 0.609375 0.578125q0.359375 0.21875 0.796875 0.3125q0.4375 0.078125 0.875 0.078125q1.0625 0 1.671875 -0.390625q0.625 -0.390625 0.640625 -1.03125zm8.633057 -9.640625l0 2.390625l3.75 0l0 1.3125l-3.75 0l0 5.34375q0 0.578125 0.140625 0.953125q0.140625 0.375 0.390625 0.59375q0.265625 0.21875 0.59375 0.3125q0.34375 0.09375 0.71875 0.09375q0.265625 0 0.546875 -0.03125q0.296875 -0.03125 0.578125 -0.078125q0.28125 -0.046875 0.515625 -0.09375q0.25 -0.046875 0.40625 -0.09375l0.234375 1.203125q-0.21875 0.125 -0.515625 0.21875q-0.296875 0.09375 -0.65625 0.15625q-0.34375 0.078125 -0.75 0.109375q-0.390625 0.046875 -0.78125 0.046875q-0.65625 0 -1.234375 -0.1875q-0.5625 -0.1875 -0.984375 -0.59375q-0.421875 -0.40625 -0.671875 -1.046875q-0.234375 -0.640625 -0.234375 -1.5625l0 -5.34375l-2.578125 0l0 -1.3125l2.578125 0l0 -2.390625l1.703125 0zm11.554932 12.4375q-1.03125 0 -1.90625 -0.359375q-0.875 -0.359375 -1.5 -0.984375q-0.609375 -0.640625 -0.953125 -1.515625q-0.34375 -0.875 -0.34375 -1.90625l0 -0.390625q0 -1.1875 0.375 -2.125q0.390625 -0.953125 1.015625 -1.59375q0.640625 -0.65625 1.4375 -1.0q0.8125 -0.34375 1.65625 -0.34375q1.0625 0 1.859375 0.375q0.796875 0.359375 1.328125 1.015625q0.53125 0.640625 0.78125 1.53125q0.265625 0.875 0.265625 1.90625l0 0.75l-7.03125 0q0.015625 0.6875 0.25 1.28125q0.234375 0.578125 0.640625 1.03125q0.40625 0.4375 0.96875 0.703125q0.5625 0.25 1.25 0.25q0.90625 0 1.59375 -0.359375q0.703125 -0.375 1.171875 -0.96875l1.03125 0.796875q-0.25 0.375 -0.625 0.71875q-0.359375 0.328125 -0.84375 0.59375q-0.484375 0.265625 -1.09375 0.421875q-0.609375 0.171875 -1.328125 0.171875zm-0.21875 -8.84375q-0.515625 0 -0.96875 0.1875q-0.453125 0.1875 -0.8125 0.546875q-0.359375 0.359375 -0.625 0.890625q-0.25 0.515625 -0.34375 1.203125l5.296875 0l0 -0.125q-0.015625 -0.5 -0.1875 -0.984375q-0.15625 -0.484375 -0.46875 -0.859375q-0.296875 -0.390625 -0.765625 -0.625q-0.46875 -0.234375 -1.125 -0.234375zm13.523682 -1.375q0.234375 0 0.484375 0.015625q0.265625 0 0.484375 0.03125q0.234375 0.03125 0.421875 0.078125q0.203125 0.046875 0.34375 0.109375l-0.234375 1.640625q-0.484375 -0.109375 -0.9375 -0.15625q-0.4375 -0.046875 -0.921875 -0.046875q-1.1875 0 -1.921875 0.546875q-0.734375 0.53125 -1.078125 1.484375l0 6.328125l-1.6875 0l0 -9.859375l1.59375 0l0.09375 1.5625q0.59375 -0.796875 1.4375 -1.265625q0.84375 -0.46875 1.921875 -0.46875z" fill-rule="nonzero"/><path fill="#000000" fill-opacity="0.0" d="m210.66536 21.597113l180.03148 0l0 43.874016l-180.03148 0z" fill-rule="evenodd"/><path stroke="#000000" stroke-width="1.0" stroke-linejoin="round" stroke-linecap="butt" d="m210.66536 21.597113l180.03148 0l0 43.874016l-180.03148 0z" fill-rule="evenodd"/><path fill="#000000" d="m229.01926 43.501488q0 -1.0625 0.3125 -1.984375q0.3125 -0.921875 0.890625 -1.59375q0.578125 -0.671875 1.40625 -1.046875q0.828125 -0.390625 1.859375 -0.390625q1.046875 0 1.875 0.390625q0.84375 0.375 1.421875 1.046875q0.578125 0.671875 0.890625 1.59375q0.3125 0.921875 0.3125 1.984375l0 0.203125q0 1.0625 -0.3125 1.96875q-0.3125 0.90625 -0.890625 1.59375q-0.578125 0.671875 -1.40625 1.0625q-0.828125 0.375 -1.859375 0.375q-1.046875 0 -1.890625 -0.375q-0.828125 -0.390625 -1.40625 -1.0625q-0.578125 -0.6875 -0.890625 -1.59375q-0.3125 -0.90625 -0.3125 -1.96875l0 -0.203125zm1.6875 0.203125q0 0.71875 0.171875 1.390625q0.171875 0.65625 0.515625 1.15625q0.359375 0.5 0.890625 0.796875q0.53125 0.28125 1.234375 0.28125q0.6875 0 1.203125 -0.28125q0.53125 -0.296875 0.875 -0.796875q0.359375 -0.5 0.53125 -1.15625q0.171875 -0.671875 0.171875 -1.390625l0 -0.203125q0 -0.71875 -0.1875 -1.375q-0.171875 -0.671875 -0.53125 -1.171875q-0.34375 -0.5 -0.875 -0.796875q-0.515625 -0.296875 -1.21875 -0.296875q-0.703125 0 -1.21875 0.296875q-0.515625 0.296875 -0.875 0.796875q-0.34375 0.5 -0.515625 1.171875q-0.171875 0.65625 -0.171875 1.375l0 0.203125zm16.445572 -5.21875q0.234375 0 0.484375 0.015625q0.265625 0 0.484375 0.03125q0.234375 0.03125 0.421875 0.078125q0.203125 0.046875 0.34375 0.109375l-0.234375 1.640625q-0.484375 -0.109375 -0.9375 -0.15625q-0.4375 -0.046875 -0.921875 -0.046875q-1.1875 0 -1.921875 0.546875q-0.734375 0.53125 -1.078125 1.484375l0 6.328125l-1.6875 0l0 -9.859375l1.59375 0l0.09375 1.5625q0.59375 -0.796875 1.4375 -1.265625q0.84375 -0.46875 1.921875 -0.46875zm4.992447 0.171875l5.046875 0l0 8.40625l3.21875 0l0 1.453125l-8.265625 0l0 -1.453125l3.359375 0l0 -6.9375l-3.359375 0l0 -1.46875zm3.140625 -2.578125q0 -0.421875 0.25 -0.703125q0.25 -0.296875 0.765625 -0.296875q0.5 0 0.75 0.296875q0.25 0.28125 0.25 0.703125q0 0.40625 -0.25 0.6875q-0.25 0.265625 -0.75 0.265625q-0.515625 0 -0.765625 -0.265625q-0.25 -0.28125 -0.25 -0.6875zm7.492462 7.421875q0 -1.09375 0.265625 -2.015625q0.265625 -0.9375 0.765625 -1.59375q0.515625 -0.671875 1.25 -1.03125q0.734375 -0.375 1.640625 -0.375q0.921875 0 1.609375 0.328125q0.6875 0.3125 1.171875 0.921875l0.078125 -1.078125l1.53125 0l0 9.65625q0 0.96875 -0.3125 1.71875q-0.296875 0.765625 -0.859375 1.28125q-0.546875 0.53125 -1.3125 0.796875q-0.765625 0.28125 -1.6875 0.28125q-0.390625 0 -0.890625 -0.09375q-0.484375 -0.078125 -0.984375 -0.28125q-0.5 -0.1875 -0.96875 -0.515625q-0.46875 -0.328125 -0.8125 -0.8125l0.875 -1.0q0.3125 0.375 0.640625 0.625q0.328125 0.265625 0.65625 0.421875q0.34375 0.15625 0.671875 0.21875q0.34375 0.0625 0.6875 0.0625q0.59375 0 1.078125 -0.171875q0.484375 -0.171875 0.828125 -0.5q0.34375 -0.328125 0.515625 -0.828125q0.1875 -0.484375 0.1875 -1.125l0 -0.84375q-0.484375 0.5625 -1.15625 0.859375q-0.671875 0.296875 -1.5625 0.296875q-0.890625 0 -1.625 -0.375q-0.734375 -0.390625 -1.234375 -1.0625q-0.5 -0.6875 -0.78125 -1.59375q-0.265625 -0.921875 -0.265625 -1.96875l0 -0.203125zm1.671875 0.203125q0 0.71875 0.15625 1.359375q0.15625 0.640625 0.46875 1.140625q0.328125 0.484375 0.828125 0.78125q0.5 0.28125 1.203125 0.28125q0.4375 0 0.78125 -0.09375q0.359375 -0.109375 0.640625 -0.296875q0.28125 -0.203125 0.5 -0.46875q0.21875 -0.265625 0.375 -0.578125l0 -4.515625q-0.15625 -0.3125 -0.375 -0.5625q-0.21875 -0.265625 -0.515625 -0.453125q-0.28125 -0.1875 -0.625 -0.28125q-0.34375 -0.109375 -0.765625 -0.109375q-0.703125 0 -1.21875 0.296875q-0.5 0.28125 -0.828125 0.78125q-0.3125 0.5 -0.46875 1.15625q-0.15625 0.640625 -0.15625 1.359375l0 0.203125zm10.086182 -5.046875l5.046875 0l0 8.40625l3.21875 0l0 1.453125l-8.265625 0l0 -1.453125l3.359375 0l0 -6.9375l-3.359375 0l0 -1.46875zm3.140625 -2.578125q0 -0.421875 0.25 -0.703125q0.25 -0.296875 0.765625 -0.296875q0.5 0 0.75 0.296875q0.25 0.28125 0.25 0.703125q0 0.40625 -0.25 0.6875q-0.25 0.265625 -0.75 0.265625q-0.515625 0 -0.765625 -0.265625q-0.25 -0.28125 -0.25 -0.6875zm9.304962 2.578125l0.125 1.453125q0.53125 -0.765625 1.3125 -1.1875q0.78125 -0.4375 1.75 -0.4375q0.78125 0 1.40625 0.21875q0.640625 0.21875 1.078125 0.6875q0.453125 0.453125 0.6875 1.171875q0.25 0.71875 0.25 1.6875l0 6.265625l-1.6875 0l0 -6.21875q0 -0.65625 -0.15625 -1.109375q-0.140625 -0.453125 -0.421875 -0.734375q-0.28125 -0.296875 -0.703125 -0.421875q-0.40625 -0.125 -0.953125 -0.125q-0.84375 0 -1.484375 0.421875q-0.640625 0.421875 -1.03125 1.125l0 7.0625l-1.6875 0l0 -9.859375l1.515625 0zm11.914307 11.0l-1.515625 0l5.53125 -14.40625l1.515625 0l-5.53125 14.40625zm9.742462 -11.0l0.046875 0.9375q0.296875 -0.53125 0.78125 -0.8125q0.5 -0.296875 1.1875 -0.296875q1.359375 0 1.8125 1.046875q0.296875 -0.46875 0.765625 -0.75q0.484375 -0.296875 1.15625 -0.296875q1.09375 0 1.671875 0.671875q0.578125 0.65625 0.578125 2.0l0 7.359375l-1.59375 0l0 -7.375q0 -1.25 -1.140625 -1.234375q-0.296875 0 -0.515625 0.09375q-0.21875 0.078125 -0.375 0.21875q-0.140625 0.140625 -0.21875 0.328125q-0.078125 0.1875 -0.109375 0.375l0 7.59375l-1.609375 0l0 -7.390625q0 -0.59375 -0.265625 -0.90625q-0.265625 -0.328125 -0.828125 -0.3125q-0.53125 0 -0.828125 0.21875q-0.28125 0.203125 -0.421875 0.546875l0 7.84375l-1.609375 0l0 -9.859375l1.515625 0zm16.898682 9.859375q-0.09375 -0.1875 -0.15625 -0.46875q-0.0625 -0.296875 -0.09375 -0.609375q-0.25 0.265625 -0.5625 0.5q-0.3125 0.21875 -0.703125 0.390625q-0.375 0.171875 -0.8125 0.265625q-0.421875 0.109375 -0.890625 0.109375q-0.796875 0 -1.4375 -0.21875q-0.625 -0.234375 -1.0625 -0.625q-0.4375 -0.390625 -0.6875 -0.921875q-0.234375 -0.53125 -0.234375 -1.15625q0 -0.8125 0.3125 -1.421875q0.328125 -0.609375 0.921875 -1.015625q0.59375 -0.40625 1.421875 -0.59375q0.84375 -0.203125 1.875 -0.203125l1.828125 0l0 -0.78125q0 -0.453125 -0.171875 -0.796875q-0.15625 -0.359375 -0.453125 -0.609375q-0.296875 -0.25 -0.734375 -0.390625q-0.421875 -0.140625 -0.96875 -0.140625q-0.5 0 -0.90625 0.140625q-0.390625 0.125 -0.671875 0.34375q-0.265625 0.203125 -0.421875 0.484375q-0.140625 0.28125 -0.140625 0.59375l-1.6875 0q0 -0.53125 0.265625 -1.046875q0.28125 -0.53125 0.78125 -0.9375q0.5 -0.421875 1.21875 -0.671875q0.734375 -0.25 1.65625 -0.25q0.84375 0 1.5625 0.203125q0.71875 0.203125 1.234375 0.625q0.53125 0.40625 0.828125 1.03125q0.296875 0.609375 0.296875 1.4375l0 4.578125q0 0.5 0.09375 1.046875q0.09375 0.546875 0.25 0.96875l0 0.140625l-1.75 0zm-2.984375 -1.28125q0.5 0 0.921875 -0.125q0.4375 -0.140625 0.78125 -0.34375q0.34375 -0.203125 0.59375 -0.46875q0.265625 -0.28125 0.40625 -0.5625l0 -2.0l-1.5625 0q-1.46875 0 -2.296875 0.4375q-0.8125 0.4375 -0.8125 1.375q0 0.359375 0.125 0.671875q0.125 0.3125 0.359375 0.53125q0.25 0.21875 0.625 0.359375q0.375 0.125 0.859375 0.125zm14.258087 -1.328125q0 -0.3125 -0.125 -0.546875q-0.125 -0.234375 -0.40625 -0.4375q-0.28125 -0.203125 -0.75 -0.375q-0.453125 -0.171875 -1.140625 -0.296875q-0.859375 -0.1875 -1.5625 -0.421875q-0.6875 -0.25 -1.1875 -0.59375q-0.484375 -0.34375 -0.765625 -0.796875q-0.265625 -0.46875 -0.265625 -1.078125q0 -0.59375 0.28125 -1.109375q0.28125 -0.53125 0.78125 -0.921875q0.515625 -0.390625 1.21875 -0.609375q0.703125 -0.234375 1.5625 -0.234375q0.90625 0 1.625 0.234375q0.734375 0.234375 1.25 0.65625q0.515625 0.40625 0.78125 0.96875q0.28125 0.5625 0.28125 1.21875l-1.6875 0q0 -0.328125 -0.171875 -0.625q-0.15625 -0.3125 -0.453125 -0.546875q-0.28125 -0.234375 -0.703125 -0.375q-0.40625 -0.15625 -0.921875 -0.15625q-0.546875 0 -0.953125 0.125q-0.40625 0.109375 -0.671875 0.3125q-0.265625 0.203125 -0.40625 0.46875q-0.140625 0.265625 -0.140625 0.546875q0 0.28125 0.109375 0.515625q0.109375 0.234375 0.375 0.421875q0.28125 0.171875 0.734375 0.328125q0.453125 0.140625 1.140625 0.265625q0.90625 0.203125 1.625 0.453125q0.71875 0.25 1.203125 0.609375q0.5 0.34375 0.75 0.8125q0.265625 0.453125 0.265625 1.0625q0 0.65625 -0.296875 1.203125q-0.28125 0.53125 -0.8125 0.921875q-0.53125 0.375 -1.265625 0.59375q-0.734375 0.203125 -1.609375 0.203125q-1.015625 0 -1.796875 -0.265625q-0.78125 -0.28125 -1.328125 -0.71875q-0.53125 -0.4375 -0.828125 -1.015625q-0.28125 -0.59375 -0.28125 -1.21875l1.6875 0q0.03125 0.515625 0.265625 0.875q0.25 0.359375 0.609375 0.578125q0.359375 0.21875 0.796875 0.3125q0.4375 0.078125 0.875 0.078125q1.0625 0 1.671875 -0.390625q0.625 -0.390625 0.640625 -1.03125zm8.633057 -9.640625l0 2.390625l3.75 0l0 1.3125l-3.75 0l0 5.34375q0 0.578125 0.140625 0.953125q0.140625 0.375 0.390625 0.59375q0.265625 0.21875 0.59375 0.3125q0.34375 0.09375 0.71875 0.09375q0.265625 0 0.546875 -0.03125q0.296875 -0.03125 0.578125 -0.078125q0.28125 -0.046875 0.515625 -0.09375q0.25 -0.046875 0.40625 -0.09375l0.234375 1.203125q-0.21875 0.125 -0.515625 0.21875q-0.296875 0.09375 -0.65625 0.15625q-0.34375 0.078125 -0.75 0.109375q-0.390625 0.046875 -0.78125 0.046875q-0.65625 0 -1.234375 -0.1875q-0.5625 -0.1875 -0.984375 -0.59375q-0.421875 -0.40625 -0.671875 -1.046875q-0.234375 -0.640625 -0.234375 -1.5625l0 -5.34375l-2.578125 0l0 -1.3125l2.578125 0l0 -2.390625l1.703125 0zm11.554932 12.4375q-1.03125 0 -1.90625 -0.359375q-0.875 -0.359375 -1.5 -0.984375q-0.609375 -0.640625 -0.953125 -1.515625q-0.34375 -0.875 -0.34375 -1.90625l0 -0.390625q0 -1.1875 0.375 -2.125q0.390625 -0.953125 1.015625 -1.59375q0.640625 -0.65625 1.4375 -1.0q0.8125 -0.34375 1.65625 -0.34375q1.0625 0 1.859375 0.375q0.796875 0.359375 1.328125 1.015625q0.53125 0.640625 0.78125 1.53125q0.265625 0.875 0.265625 1.90625l0 0.75l-7.03125 0q0.015625 0.6875 0.25 1.28125q0.234375 0.578125 0.640625 1.03125q0.40625 0.4375 0.96875 0.703125q0.5625 0.25 1.25 0.25q0.90625 0 1.59375 -0.359375q0.703125 -0.375 1.171875 -0.96875l1.03125 0.796875q-0.25 0.375 -0.625 0.71875q-0.359375 0.328125 -0.84375 0.59375q-0.484375 0.265625 -1.09375 0.421875q-0.609375 0.171875 -1.328125 0.171875zm-0.21875 -8.84375q-0.515625 0 -0.96875 0.1875q-0.453125 0.1875 -0.8125 0.546875q-0.359375 0.359375 -0.625 0.890625q-0.25 0.515625 -0.34375 1.203125l5.296875 0l0 -0.125q-0.015625 -0.5 -0.1875 -0.984375q-0.15625 -0.484375 -0.46875 -0.859375q-0.296875 -0.390625 -0.765625 -0.625q-0.46875 -0.234375 -1.125 -0.234375zm13.523712 -1.375q0.234375 0 0.484375 0.015625q0.265625 0 0.484375 0.03125q0.234375 0.03125 0.421875 0.078125q0.203125 0.046875 0.34375 0.109375l-0.234375 1.640625q-0.484375 -0.109375 -0.9375 -0.15625q-0.4375 -0.046875 -0.921875 -0.046875q-1.1875 0 -1.921875 0.546875q-0.734375 0.53125 -1.078125 1.484375l0 6.328125l-1.6875 0l0 -9.859375l1.59375 0l0.09375 1.5625q0.59375 -0.796875 1.4375 -1.265625q0.84375 -0.46875 1.921875 -0.46875z" fill-rule="nonzero"/><path fill="#000000" fill-opacity="0.0" d="m210.66536 43.534122l-48.881897 46.015743" fill-rule="evenodd"/><path stroke="#000000" stroke-width="1.0" stroke-linejoin="round" stroke-linecap="butt" d="m210.66536 43.534122l-44.513107 41.90312" fill-rule="evenodd"/><path fill="#000000" stroke="#000000" stroke-width="1.0" stroke-linecap="butt" d="m165.0201 84.234566l-2.1721802 4.313263l4.436493 -1.9079056z" fill-rule="evenodd"/><path fill="#000000" fill-opacity="0.0" d="m829.32544 91.632545l89.66931 0l0 43.874016l-89.66931 0z" fill-rule="evenodd"/><path stroke="#000000" stroke-width="1.0" stroke-linejoin="round" stroke-linecap="butt" d="m829.32544 91.632545l89.66931 0l0 43.874016l-89.66931 0z" fill-rule="evenodd"/><path fill="#000000" d="m861.67523 118.55254l-1.59375 0l0 -6.125l-5.4375 0l0 6.125l-1.59375 0l0 -13.265625l1.59375 0l0 5.703125l5.4375 0l0 -5.703125l1.59375 0l0 13.265625zm10.164307 -6.125l-5.53125 0l0 4.6875l6.453125 0l0 1.4375l-8.140625 0l0 -13.265625l8.0625 0l0 1.4375l-6.375 0l0 4.265625l5.53125 0l0 1.4375zm10.242432 2.6875l-4.4375 0l-1.0625 3.4375l-1.6875 0l4.28125 -13.265625l1.421875 0l4.203125 13.265625l-1.671875 0l-1.046875 -3.4375zm-3.984375 -1.46875l3.53125 0l-1.75 -5.75l-1.78125 5.75zm8.664307 4.90625l0 -13.265625l3.078125 0q1.375 0.015625 2.46875 0.46875q1.09375 0.453125 1.84375 1.265625q0.75 0.796875 1.140625 1.921875q0.40625 1.125 0.40625 2.5l0 0.96875q0 1.375 -0.40625 2.5q-0.390625 1.125 -1.140625 1.9375q-0.75 0.796875 -1.84375 1.25q-1.09375 0.4375 -2.46875 0.453125l-3.078125 0zm1.71875 -11.875l0 10.5l1.359375 0q1.078125 -0.015625 1.859375 -0.375q0.78125 -0.375 1.296875 -1.0q0.515625 -0.640625 0.765625 -1.5q0.25 -0.875 0.25 -1.890625l0 -0.984375q0 -1.015625 -0.265625 -1.875q-0.25 -0.859375 -0.765625 -1.484375q-0.5 -0.640625 -1.28125 -1.0q-0.78125 -0.375 -1.859375 -0.390625l-1.359375 0z" fill-rule="nonzero"/><path fill="#000000" fill-opacity="0.0" d="m829.32544 113.56956l-38.236206 0" fill-rule="evenodd"/><path stroke="#000000" stroke-width="1.0" stroke-linejoin="round" stroke-linecap="butt" d="m829.32544 113.56956l-32.236206 0" fill-rule="evenodd"/><path fill="#000000" stroke="#000000" stroke-width="1.0" stroke-linecap="butt" d="m797.08923 111.91782l-4.538086 1.6517334l4.538086 1.6517258z" fill-rule="evenodd"/></g></svg>