<svg version="1.1" viewBox="0.0 0.0 1037.748031496063 221.3044619422572" fill="none" stroke="none" stroke-linecap="square" stroke-miterlimit="10" xmlns:xlink="http://www.w3.org/1999/xlink" xmlns="http://www.w3.org/2000/svg"><clipPath id="p.0"><path d="m0 0l1037.748 0l0 221.30446l-1037.748 0l0 -221.30446z" clip-rule="nonzero"/></clipPath><g clip-path="url(#p.0)"><path fill="#000000" fill-opacity="0.0" d="m0 0l1037.748 0l0 221.30446l-1037.748 0z" fill-rule="evenodd"/><path fill="#ffffff" d="m29.809711 117.80315l0 0c0 -18.760284 15.222317 -33.9685 34.0 -33.9685l0 0c9.017361 0 17.665394 3.5788116 24.04163 9.949142c6.376236 6.370331 9.958366 15.010353 9.958366 24.019356l0 0c0 18.760284 -15.222313 33.968506 -33.999996 33.968506l0 0c-18.777683 0 -34.0 -15.208221 -34.0 -33.968506z" fill-rule="evenodd"/><path stroke="#000000" stroke-width="1.0" stroke-linejoin="round" stroke-linecap="butt" d="m29.809711 117.80315l0 0c0 -18.760284 15.222317 -33.9685 34.0 -33.9685l0 0c9.017361 0 17.665394 3.5788116 24.04163 9.949142c6.376236 6.370331 9.958366 15.010353 9.958366 24.019356l0 0c0 18.760284 -15.222313 33.968506 -33.999996 33.968506l0 0c-18.777683 0 -34.0 -15.208221 -34.0 -33.968506z" fill-rule="evenodd"/><path fill="#000000" d="m57.556675 124.723145l5.125 -13.359375l1.9062462 0l5.46875 13.359375l-2.015625 0l-1.546875 -4.046875l-5.593746 0l-1.46875 4.046875l-1.875 0zm3.859375 -5.484375l4.531246 0l-1.40625 -3.703125q-0.6249962 -1.6875 -0.9374962 -2.765625q-0.265625 1.28125 -0.71875 2.546875l-1.46875 3.921875z" fill-rule="nonzero"/><path fill="#ffffff" d="m125.46457 117.80315l0 0c0 -18.760284 15.222321 -33.9685 34.0 -33.9685l0 0c9.0173645 0 17.66539 3.5788116 24.041626 9.949142c6.376236 6.370331 9.958374 15.010353 9.958374 24.019356l0 0c0 18.760284 -15.222321 33.968506 -34.0 33.968506l0 0c-18.77768 0 -34.0 -15.208221 -34.0 -33.968506z" fill-rule="evenodd"/><path stroke="#000000" stroke-width="1.0" stroke-linejoin="round" stroke-linecap="butt" d="m125.46457 117.80315l0 0c0 -18.760284 15.222321 -33.9685 34.0 -33.9685l0 0c9.0173645 0 17.66539 3.5788116 24.041626 9.949142c6.376236 6.370331 9.958374 15.010353 9.958374 24.019356l0 0c0 18.760284 -15.222321 33.968506 -34.0 33.968506l0 0c-18.77768 0 -34.0 -15.208221 -34.0 -33.968506z" fill-rule="evenodd"/><path fill="#000000" d="m154.60216 124.723145l0 -13.359375l5.015625 0q1.53125 0 2.453125 0.40625q0.921875 0.40625 1.4375 1.25q0.53125 0.84375 0.53125 1.765625q0 0.859375 -0.46875 1.625q-0.453125 0.75 -1.390625 1.203125q1.203125 0.359375 1.859375 1.21875q0.65625 0.859375 0.65625 2.015625q0 0.9375 -0.40625 1.75q-0.390625 0.796875 -0.984375 1.234375q-0.578125 0.4375 -1.453125 0.671875q-0.875 0.21875 -2.15625 0.21875l-5.09375 0zm1.78125 -7.75l2.875 0q1.1875 0 1.6875 -0.140625q0.671875 -0.203125 1.015625 -0.671875q0.34375 -0.46875 0.34375 -1.171875q0 -0.65625 -0.328125 -1.15625q-0.3125 -0.515625 -0.90625 -0.703125q-0.59375 -0.1875 -2.03125 -0.1875l-2.65625 0l0 4.03125zm0 6.171875l3.3125 0q0.859375 0 1.203125 -0.0625q0.609375 -0.109375 1.015625 -0.359375q0.421875 -0.265625 0.6875 -0.75q0.265625 -0.484375 0.265625 -1.125q0 -0.75 -0.390625 -1.296875q-0.375 -0.546875 -1.0625 -0.765625q-0.671875 -0.234375 -1.953125 -0.234375l-3.078125 0l0 4.59375z" fill-rule="nonzero"/><path fill="#ffffff" d="m221.11942 117.80315l0 0c0 -18.760284 15.222321 -33.9685 34.0 -33.9685l0 0c9.0173645 0 17.665405 3.5788116 24.041626 9.949142c6.376251 6.370331 9.958374 15.010353 9.958374 24.019356l0 0c0 18.760284 -15.222321 33.968506 -34.0 33.968506l0 0c-18.77768 0 -34.0 -15.208221 -34.0 -33.968506z" fill-rule="evenodd"/><path stroke="#000000" stroke-width="1.0" stroke-linejoin="round" stroke-linecap="butt" d="m221.11942 117.80315l0 0c0 -18.760284 15.222321 -33.9685 34.0 -33.9685l0 0c9.0173645 0 17.665405 3.5788116 24.041626 9.949142c6.376251 6.370331 9.958374 15.010353 9.958374 24.019356l0 0c0 18.760284 -15.222321 33.968506 -34.0 33.968506l0 0c-18.77768 0 -34.0 -15.208221 -34.0 -33.968506z" fill-rule="evenodd"/><path fill="#000000" d="m259.35168 120.035645l1.765625 0.453125q-0.5625 2.171875 -2.0 3.328125q-1.4375 1.140625 -3.5312347 1.140625q-2.15625 0 -3.515625 -0.875q-1.34375 -0.890625 -2.0625 -2.546875q-0.703125 -1.671875 -0.703125 -3.59375q0 -2.078125 0.796875 -3.625q0.796875 -1.5625 2.265625 -2.359375q1.484375 -0.8125 3.25 -0.8125q1.9999847 0 3.3593597 1.015625q1.375 1.015625 1.90625 2.875l-1.734375 0.40625q-0.46875 -1.453125 -1.359375 -2.109375q-0.875 -0.671875 -2.2031097 -0.671875q-1.546875 0 -2.578125 0.734375q-1.03125 0.734375 -1.453125 1.984375q-0.421875 1.234375 -0.421875 2.5625q0 1.703125 0.5 2.96875q0.5 1.265625 1.546875 1.90625q1.046875 0.625 2.265625 0.625q1.4843597 0 2.5156097 -0.859375q1.03125 -0.859375 1.390625 -2.546875z" fill-rule="nonzero"/><path fill="#ffffff" d="m316.7743 117.80315l0 0c0 -18.760284 15.22229 -33.9685 34.0 -33.9685l0 0c9.017334 0 17.665375 3.5788116 24.041626 9.949142c6.3762207 6.370331 9.958374 15.010353 9.958374 24.019356l0 0c0 18.760284 -15.222321 33.968506 -34.0 33.968506l0 0c-18.77771 0 -34.0 -15.208221 -34.0 -33.968506z" fill-rule="evenodd"/><path stroke="#000000" stroke-width="1.0" stroke-linejoin="round" stroke-linecap="butt" d="m316.7743 117.80315l0 0c0 -18.760284 15.22229 -33.9685 34.0 -33.9685l0 0c9.017334 0 17.665375 3.5788116 24.041626 9.949142c6.3762207 6.370331 9.958374 15.010353 9.958374 24.019356l0 0c0 18.760284 -15.222321 33.968506 -34.0 33.968506l0 0c-18.77771 0 -34.0 -15.208221 -34.0 -33.968506z" fill-rule="evenodd"/><path fill="#000000" d="m345.4753 124.723145l0 -13.359375l4.609375 0q1.546875 0 2.375 0.203125q1.140625 0.25 1.953125 0.953125q1.0625 0.890625 1.578125 2.28125q0.53125 1.390625 0.53125 3.171875q0 1.515625 -0.359375 2.703125q-0.359375 1.171875 -0.921875 1.9375q-0.546875 0.765625 -1.203125 1.21875q-0.65625 0.4375 -1.59375 0.671875q-0.9375 0.21875 -2.140625 0.21875l-4.828125 0zm1.765625 -1.578125l2.859375 0q1.3125 0 2.0625 -0.234375q0.75 -0.25 1.203125 -0.703125q0.625 -0.625 0.96875 -1.6875q0.359375 -1.0625 0.359375 -2.578125q0 -2.09375 -0.6875 -3.21875q-0.6875 -1.125 -1.671875 -1.5q-0.703125 -0.28125 -2.28125 -0.28125l-2.8125 0l0 10.203125z" fill-rule="nonzero"/><path fill="#ffffff" d="m412.42914 117.80315l0 0c0 -18.760284 15.222321 -33.9685 34.0 -33.9685l0 0c9.0173645 0 17.665375 3.5788116 24.041626 9.949142c6.376251 6.370331 9.958374 15.010353 9.958374 24.019356l0 0c0 18.760284 -15.222321 33.968506 -34.0 33.968506l0 0c-18.77768 0 -34.0 -15.208221 -34.0 -33.968506z" fill-rule="evenodd"/><path stroke="#000000" stroke-width="1.0" stroke-linejoin="round" stroke-linecap="butt" d="m412.42914 117.80315l0 0c0 -18.760284 15.222321 -33.9685 34.0 -33.9685l0 0c9.0173645 0 17.665375 3.5788116 24.041626 9.949142c6.376251 6.370331 9.958374 15.010353 9.958374 24.019356l0 0c0 18.760284 -15.222321 33.968506 -34.0 33.968506l0 0c-18.77768 0 -34.0 -15.208221 -34.0 -33.968506z" fill-rule="evenodd"/><path fill="#000000" d="m441.6761 124.723145l0 -13.359375l9.65625 0l0 1.578125l-7.875 0l0 4.09375l7.375 0l0 1.5625l-7.375 0l0 4.546875l8.1875 0l0 1.578125l-9.96875 0z" fill-rule="nonzero"/><path fill="#ffffff" d="m508.08398 117.80315l0 0c0 -18.760284 15.222351 -33.9685 34.0 -33.9685l0 0c9.017395 0 17.665405 3.5788116 24.041626 9.949142c6.3762207 6.370331 9.958374 15.010353 9.958374 24.019356l0 0c0 18.760284 -15.22229 33.968506 -34.0 33.968506l0 0c-18.777649 0 -34.0 -15.208221 -34.0 -33.968506z" fill-rule="evenodd"/><path stroke="#000000" stroke-width="1.0" stroke-linejoin="round" stroke-linecap="butt" d="m508.08398 117.80315l0 0c0 -18.760284 15.222351 -33.9685 34.0 -33.9685l0 0c9.017395 0 17.665405 3.5788116 24.041626 9.949142c6.3762207 6.370331 9.958374 15.010353 9.958374 24.019356l0 0c0 18.760284 -15.22229 33.968506 -34.0 33.968506l0 0c-18.777649 0 -34.0 -15.208221 -34.0 -33.968506z" fill-rule="evenodd"/><path fill="#000000" d="m537.91724 124.723145l0 -13.359375l9.015625 0l0 1.578125l-7.25 0l0 4.140625l6.265625 0l0 1.578125l-6.265625 0l0 6.0625l-1.765625 0z" fill-rule="nonzero"/><path fill="#ffffff" d="m603.73883 117.80315l0 0c0 -18.760284 15.222351 -33.9685 34.0 -33.9685l0 0c9.017395 0 17.665405 3.5788116 24.041626 9.949142c6.3762817 6.370331 9.958374 15.010353 9.958374 24.019356l0 0c0 18.760284 -15.22229 33.968506 -34.0 33.968506l0 0c-18.777649 0 -34.0 -15.208221 -34.0 -33.968506z" fill-rule="evenodd"/><path stroke="#000000" stroke-width="1.0" stroke-linejoin="round" stroke-linecap="butt" d="m603.73883 117.80315l0 0c0 -18.760284 15.222351 -33.9685 34.0 -33.9685l0 0c9.017395 0 17.665405 3.5788116 24.041626 9.949142c6.3762817 6.370331 9.958374 15.010353 9.958374 24.019356l0 0c0 18.760284 -15.22229 33.968506 -34.0 33.968506l0 0c-18.777649 0 -34.0 -15.208221 -34.0 -33.968506z" fill-rule="evenodd"/><path fill="#000000" d="m638.17065 119.48877l0 -1.578125l5.65625 0l0 4.953125q-1.296875 1.046875 -2.6875 1.578125q-1.375 0.515625 -2.84375 0.515625q-1.96875 0 -3.578125 -0.84375q-1.609375 -0.84375 -2.421875 -2.4375q-0.8125 -1.59375 -0.8125 -3.5625q0 -1.953125 0.8125 -3.640625q0.8125 -1.6875 2.34375 -2.5q1.53125 -0.828125 3.515625 -0.828125q1.453125 0 2.625 0.46875q1.171875 0.46875 1.828125 1.3125q0.671875 0.828125 1.015625 2.171875l-1.59375 0.4375q-0.296875 -1.015625 -0.75 -1.59375q-0.4375 -0.59375 -1.265625 -0.9375q-0.828125 -0.34375 -1.84375 -0.34375q-1.203125 0 -2.09375 0.375q-0.890625 0.359375 -1.4375 0.96875q-0.53125 0.59375 -0.828125 1.3125q-0.515625 1.234375 -0.515625 2.6875q0 1.78125 0.609375 2.984375q0.625 1.203125 1.796875 1.796875q1.171875 0.578125 2.5 0.578125q1.140625 0 2.234375 -0.4375q1.09375 -0.453125 1.65625 -0.953125l0 -2.484375l-3.921875 0z" fill-rule="nonzero"/><path fill="#000000" fill-opacity="0.0" d="m97.80971 117.80315l27.65355 0" fill-rule="evenodd"/><path stroke="#000000" stroke-width="1.0" stroke-linejoin="round" stroke-linecap="butt" d="m97.80971 117.80315l21.65355 0" fill-rule="evenodd"/><path fill="#000000" stroke="#000000" stroke-width="1.0" stroke-linecap="butt" d="m119.46326 119.45488l4.5380936 -1.6517334l-4.5380936 -1.6517258z" fill-rule="evenodd"/><path fill="#000000" fill-opacity="0.0" d="m193.46457 117.80315l27.653534 0" fill-rule="evenodd"/><path stroke="#000000" stroke-width="1.0" stroke-linejoin="round" stroke-linecap="butt" d="m193.46457 117.80315l21.653534 0" fill-rule="evenodd"/><path fill="#000000" stroke="#000000" stroke-width="1.0" stroke-linecap="butt" d="m215.1181 119.45488l4.538101 -1.6517334l-4.538101 -1.6517258z" fill-rule="evenodd"/><path fill="#000000" fill-opacity="0.0" d="m289.11942 117.80315l27.653564 0" fill-rule="evenodd"/><path stroke="#000000" stroke-width="1.0" stroke-linejoin="round" stroke-linecap="butt" d="m289.11942 117.80315l21.653564 0" fill-rule="evenodd"/><path fill="#000000" stroke="#000000" stroke-width="1.0" stroke-linecap="butt" d="m310.77298 119.45488l4.538086 -1.6517334l-4.538086 -1.6517258z" fill-rule="evenodd"/><path fill="#000000" fill-opacity="0.0" d="m384.7743 117.80315l27.653534 0" fill-rule="evenodd"/><path stroke="#000000" stroke-width="1.0" stroke-linejoin="round" stroke-linecap="butt" d="m384.7743 117.80315l21.653534 0" fill-rule="evenodd"/><path fill="#000000" stroke="#000000" stroke-width="1.0" stroke-linecap="butt" d="m406.42783 119.45488l4.538086 -1.6517334l-4.538086 -1.6517258z" fill-rule="evenodd"/><path fill="#000000" fill-opacity="0.0" d="m480.42914 117.80315l27.653534 0" fill-rule="evenodd"/><path stroke="#000000" stroke-width="1.0" stroke-linejoin="round" stroke-linecap="butt" d="m480.42914 117.80315l21.653534 0" fill-rule="evenodd"/><path fill="#000000" stroke="#000000" stroke-width="1.0" stroke-linecap="butt" d="m502.08267 119.45488l4.5381165 -1.6517334l-4.5381165 -1.6517258z" fill-rule="evenodd"/><path fill="#000000" fill-opacity="0.0" d="m576.084 117.80315l27.653564 0" fill-rule="evenodd"/><path stroke="#000000" stroke-width="1.0" stroke-linejoin="round" stroke-linecap="butt" d="m576.084 117.80315l21.653564 0" fill-rule="evenodd"/><path fill="#000000" stroke="#000000" stroke-width="1.0" stroke-linecap="butt" d="m597.73755 119.45488l4.538086 -1.6517334l-4.538086 -1.6517258z" fill-rule="evenodd"/><path fill="#000000" fill-opacity="0.0" d="m712.0066 154.75984l-50.236267 -12.944885" fill-rule="evenodd"/><path stroke="#000000" stroke-width="1.0" stroke-linejoin="round" stroke-linecap="butt" d="m712.0066 154.75984l-44.426025 -11.447708" fill-rule="evenodd"/><path fill="#000000" stroke="#000000" stroke-width="1.0" stroke-linecap="butt" d="m667.9927 141.71265l-4.8067017 0.46710205l3.9824219 2.7318726z" fill-rule="evenodd"/><path fill="#000000" fill-opacity="0.0" d="m712.0066 132.82283l109.4173 0l0 43.874023l-109.4173 0z" fill-rule="evenodd"/><path stroke="#000000" stroke-width="1.0" stroke-linejoin="round" stroke-linecap="butt" d="m712.0066 132.82283l109.4173 0l0 43.874023l-109.4173 0z" fill-rule="evenodd"/><path fill="#000000" d="m735.48785 149.88345l0.046875 0.9375q0.296875 -0.53125 0.78125 -0.8125q0.5 -0.296875 1.1875 -0.296875q1.359375 0 1.8125 1.046875q0.296875 -0.46875 0.765625 -0.75q0.484375 -0.296875 1.15625 -0.296875q1.09375 0 1.671875 0.671875q0.578125 0.65625 0.578125 2.0l0 7.359375l-1.59375 0l0 -7.375q0 -1.25 -1.140625 -1.234375q-0.296875 0 -0.515625 0.09375q-0.21875 0.078125 -0.375 0.21875q-0.140625 0.140625 -0.21875 0.328125q-0.078125 0.1875 -0.109375 0.375l0 7.59375l-1.609375 0l0 -7.390625q0 -0.59375 -0.265625 -0.90625q-0.265625 -0.328125 -0.828125 -0.3125q-0.53125 0 -0.828125 0.21875q-0.28125 0.203125 -0.421875 0.546875l0 7.84375l-1.609375 0l0 -9.859375l1.515625 0zm16.898743 9.859375q-0.09375 -0.1875 -0.15625 -0.46875q-0.0625 -0.296875 -0.09375 -0.609375q-0.25 0.265625 -0.5625 0.5q-0.3125 0.21875 -0.703125 0.390625q-0.375 0.171875 -0.8125 0.265625q-0.421875 0.109375 -0.890625 0.109375q-0.796875 0 -1.4375 -0.21875q-0.625 -0.234375 -1.0625 -0.625q-0.4375 -0.390625 -0.6875 -0.921875q-0.234375 -0.53125 -0.234375 -1.15625q0 -0.8125 0.3125 -1.421875q0.328125 -0.609375 0.921875 -1.015625q0.59375 -0.40625 1.421875 -0.59375q0.84375 -0.203125 1.875 -0.203125l1.828125 0l0 -0.78125q0 -0.453125 -0.171875 -0.796875q-0.15625 -0.359375 -0.453125 -0.609375q-0.296875 -0.25 -0.734375 -0.390625q-0.421875 -0.140625 -0.96875 -0.140625q-0.5 0 -0.90625 0.140625q-0.390625 0.125 -0.671875 0.34375q-0.265625 0.203125 -0.421875 0.484375q-0.140625 0.28125 -0.140625 0.59375l-1.6875 0q0 -0.53125 0.265625 -1.046875q0.28125 -0.53125 0.78125 -0.9375q0.5 -0.421875 1.21875 -0.671875q0.734375 -0.25 1.65625 -0.25q0.84375 0 1.5625 0.203125q0.71875 0.203125 1.234375 0.625q0.53125 0.40625 0.828125 1.03125q0.296875 0.609375 0.296875 1.4375l0 4.578125q0 0.5 0.09375 1.046875q0.09375 0.546875 0.25 0.96875l0 0.140625l-1.75 0zm-2.984375 -1.28125q0.5 0 0.921875 -0.125q0.4375 -0.140625 0.78125 -0.34375q0.34375 -0.203125 0.59375 -0.46875q0.265625 -0.28125 0.40625 -0.5625l0 -2.0l-1.5625 0q-1.46875 0 -2.296875 0.4375q-0.8125 0.4375 -0.8125 1.375q0 0.359375 0.125 0.671875q0.125 0.3125 0.359375 0.53125q0.25 0.21875 0.625 0.359375q0.375 0.125 0.859375 0.125zm14.258057 -1.328125q0 -0.3125 -0.125 -0.546875q-0.125 -0.234375 -0.40625 -0.4375q-0.28125 -0.203125 -0.75 -0.375q-0.453125 -0.171875 -1.140625 -0.296875q-0.859375 -0.1875 -1.5625 -0.421875q-0.6875 -0.25 -1.1875 -0.59375q-0.484375 -0.34375 -0.765625 -0.796875q-0.265625 -0.46875 -0.265625 -1.078125q0 -0.59375 0.28125 -1.109375q0.28125 -0.53125 0.78125 -0.921875q0.515625 -0.390625 1.21875 -0.609375q0.703125 -0.234375 1.5625 -0.234375q0.90625 0 1.625 0.234375q0.734375 0.234375 1.25 0.65625q0.515625 0.40625 0.78125 0.96875q0.28125 0.5625 0.28125 1.21875l-1.6875 0q0 -0.328125 -0.171875 -0.625q-0.15625 -0.3125 -0.453125 -0.546875q-0.28125 -0.234375 -0.703125 -0.375q-0.40625 -0.15625 -0.921875 -0.15625q-0.546875 0 -0.953125 0.125q-0.40625 0.109375 -0.671875 0.3125q-0.265625 0.203125 -0.40625 0.46875q-0.140625 0.265625 -0.140625 0.546875q0 0.28125 0.109375 0.515625q0.109375 0.234375 0.375 0.421875q0.28125 0.171875 0.734375 0.328125q0.453125 0.140625 1.140625 0.265625q0.90625 0.203125 1.625 0.453125q0.71875 0.25 1.203125 0.609375q0.5 0.34375 0.75 0.8125q0.265625 0.453125 0.265625 1.0625q0 0.65625 -0.296875 1.203125q-0.28125 0.53125 -0.8125 0.921875q-0.53125 0.375 -1.265625 0.59375q-0.734375 0.203125 -1.609375 0.203125q-1.015625 0 -1.796875 -0.265625q-0.78125 -0.28125 -1.328125 -0.71875q-0.53125 -0.4375 -0.828125 -1.015625q-0.28125 -0.59375 -0.28125 -1.21875l1.6875 0q0.03125 0.515625 0.265625 0.875q0.25 0.359375 0.609375 0.578125q0.359375 0.21875 0.796875 0.3125q0.4375 0.078125 0.875 0.078125q1.0625 0 1.671875 -0.390625q0.625 -0.390625 0.640625 -1.03125zm8.633057 -9.640625l0 2.390625l3.75 0l0 1.3125l-3.75 0l0 5.34375q0 0.578125 0.140625 0.953125q0.140625 0.375 0.390625 0.59375q0.265625 0.21875 0.59375 0.3125q0.34375 0.09375 0.71875 0.09375q0.265625 0 0.546875 -0.03125q0.296875 -0.03125 0.578125 -0.078125q0.28125 -0.046875 0.515625 -0.09375q0.25 -0.046875 0.40625 -0.09375l0.234375 1.203125q-0.21875 0.125 -0.515625 0.21875q-0.296875 0.09375 -0.65625 0.15625q-0.34375 0.078125 -0.75 0.109375q-0.390625 0.046875 -0.78125 0.046875q-0.65625 0 -1.234375 -0.1875q-0.5625 -0.1875 -0.984375 -0.59375q-0.421875 -0.40625 -0.671875 -1.046875q-0.234375 -0.640625 -0.234375 -1.5625l0 -5.34375l-2.578125 0l0 -1.3125l2.578125 0l0 -2.390625l1.703125 0zm11.554993 12.4375q-1.03125 0 -1.90625 -0.359375q-0.875 -0.359375 -1.5 -0.984375q-0.609375 -0.640625 -0.953125 -1.515625q-0.34375 -0.875 -0.34375 -1.90625l0 -0.390625q0 -1.1875 0.375 -2.125q0.390625 -0.953125 1.015625 -1.59375q0.640625 -0.65625 1.4375 -1.0q0.8125 -0.34375 1.65625 -0.34375q1.0625 0 1.859375 0.375q0.796875 0.359375 1.328125 1.015625q0.53125 0.640625 0.78125 1.53125q0.265625 0.875 0.265625 1.90625l0 0.75l-7.03125 0q0.015625 0.6875 0.25 1.28125q0.234375 0.578125 0.640625 1.03125q0.40625 0.4375 0.96875 0.703125q0.5625 0.25 1.25 0.25q0.90625 0 1.59375 -0.359375q0.703125 -0.375 1.171875 -0.96875l1.03125 0.796875q-0.25 0.375 -0.625 0.71875q-0.359375 0.328125 -0.84375 0.59375q-0.484375 0.265625 -1.09375 0.421875q-0.609375 0.171875 -1.328125 0.171875zm-0.21875 -8.84375q-0.515625 0 -0.96875 0.1875q-0.453125 0.1875 -0.8125 0.546875q-0.359375 0.359375 -0.625 0.890625q-0.25 0.515625 -0.34375 1.203125l5.296875 0l0 -0.125q-0.015625 -0.5 -0.1875 -0.984375q-0.15625 -0.484375 -0.46875 -0.859375q-0.296875 -0.390625 -0.765625 -0.625q-0.46875 -0.234375 -1.125 -0.234375zm13.523682 -1.375q0.234375 0 0.484375 0.015625q0.265625 0 0.484375 0.03125q0.234375 0.03125 0.421875 0.078125q0.203125 0.046875 0.34375 0.109375l-0.234375 1.640625q-0.484375 -0.109375 -0.9375 -0.15625q-0.4375 -0.046875 -0.921875 -0.046875q-1.1875 0 -1.921875 0.546875q-0.734375 0.53125 -1.078125 1.484375l0 6.328125l-1.6875 0l0 -9.859375l1.59375 0l0.09375 1.5625q0.59375 -0.796875 1.4375 -1.265625q0.84375 -0.46875 1.921875 -0.46875z" fill-rule="nonzero"/><path fill="#000000" fill-opacity="0.0" d="m712.0066 58.90945l180.0315 0l0 43.874012l-180.0315 0z" fill-rule="evenodd"/><path stroke="#000000" stroke-width="1.0" stroke-linejoin="round" stroke-linecap="butt" d="m712.0066 58.90945l180.0315 0l0 43.874012l-180.0315 0z" fill-rule="evenodd"/><path fill="#000000" d="m727.738 85.829445l0 -8.546875l-2.703125 0l0 -1.3125l2.703125 0l0 -0.6875q0 -0.953125 0.28125 -1.65625q0.28125 -0.71875 0.78125 -1.203125q0.515625 -0.484375 1.21875 -0.734375q0.71875 -0.25 1.59375 -0.25q0.59375 0 1.15625 0.109375q0.578125 0.09375 1.171875 0.25l-0.1875 1.390625q-0.375 -0.125 -0.875 -0.21875q-0.5 -0.09375 -1.0625 -0.09375q-1.1875 0.015625 -1.78125 0.609375q-0.59375 0.578125 -0.59375 1.796875l0 0.6875l3.796875 0l0 1.3125l-3.796875 0l0 8.546875l-1.703125 0zm13.048401 0.1875q-1.03125 0 -1.90625 -0.359375q-0.875 -0.359375 -1.5 -0.984375q-0.609375 -0.640625 -0.953125 -1.515625q-0.34375 -0.875 -0.34375 -1.90625l0 -0.390625q0 -1.1875 0.375 -2.125q0.390625 -0.953125 1.015625 -1.59375q0.640625 -0.65625 1.4375 -1.0q0.8125 -0.34375 1.65625 -0.34375q1.0625 0 1.859375 0.375q0.796875 0.359375 1.328125 1.015625q0.53125 0.640625 0.78125 1.53125q0.265625 0.875 0.265625 1.90625l0 0.75l-7.03125 0q0.015625 0.6875 0.25 1.28125q0.234375 0.578125 0.640625 1.03125q0.40625 0.4375 0.96875 0.703125q0.5625 0.25 1.25 0.25q0.90625 0 1.59375 -0.359375q0.703125 -0.375 1.171875 -0.96875l1.03125 0.796875q-0.25 0.375 -0.625 0.71875q-0.359375 0.328125 -0.84375 0.59375q-0.484375 0.265625 -1.09375 0.421875q-0.609375 0.171875 -1.328125 0.171875zm-0.21875 -8.84375q-0.515625 0 -0.96875 0.1875q-0.453125 0.1875 -0.8125 0.546875q-0.359375 0.359375 -0.625 0.890625q-0.25 0.515625 -0.34375 1.203125l5.296875 0l0 -0.125q-0.015625 -0.5 -0.1875 -0.984375q-0.15625 -0.484375 -0.46875 -0.859375q-0.296875 -0.390625 -0.765625 -0.625q-0.46875 -0.234375 -1.125 -0.234375zm13.539307 8.65625q-0.09375 -0.1875 -0.15625 -0.46875q-0.0625 -0.296875 -0.09375 -0.609375q-0.25 0.265625 -0.5625 0.5q-0.3125 0.21875 -0.703125 0.390625q-0.375 0.171875 -0.8125 0.265625q-0.421875 0.109375 -0.890625 0.109375q-0.796875 0 -1.4375 -0.21875q-0.625 -0.234375 -1.0625 -0.625q-0.4375 -0.390625 -0.6875 -0.921875q-0.234375 -0.53125 -0.234375 -1.15625q0 -0.8125 0.3125 -1.421875q0.328125 -0.609375 0.921875 -1.015625q0.59375 -0.40625 1.421875 -0.59375q0.84375 -0.203125 1.875 -0.203125l1.828125 0l0 -0.78125q0 -0.453125 -0.171875 -0.796875q-0.15625 -0.359375 -0.453125 -0.609375q-0.296875 -0.25 -0.734375 -0.390625q-0.421875 -0.140625 -0.96875 -0.140625q-0.5 0 -0.90625 0.140625q-0.390625 0.125 -0.671875 0.34375q-0.265625 0.203125 -0.421875 0.484375q-0.140625 0.28125 -0.140625 0.59375l-1.6875 0q0 -0.53125 0.265625 -1.046875q0.28125 -0.53125 0.78125 -0.9375q0.5 -0.421875 1.21875 -0.671875q0.734375 -0.25 1.65625 -0.25q0.84375 0 1.5625 0.203125q0.71875 0.203125 1.234375 0.625q0.53125 0.40625 0.828125 1.03125q0.296875 0.609375 0.296875 1.4375l0 4.578125q0 0.5 0.09375 1.046875q0.09375 0.546875 0.25 0.96875l0 0.140625l-1.75 0zm-2.984375 -1.28125q0.5 0 0.921875 -0.125q0.4375 -0.140625 0.78125 -0.34375q0.34375 -0.203125 0.59375 -0.46875q0.265625 -0.28125 0.40625 -0.5625l0 -2.0l-1.5625 0q-1.46875 0 -2.296875 0.4375q-0.8125 0.4375 -0.8125 1.375q0 0.359375 0.125 0.671875q0.125 0.3125 0.359375 0.53125q0.25 0.21875 0.625 0.359375q0.375 0.125 0.859375 0.125zm11.695618 -10.96875l0 2.390625l3.75 0l0 1.3125l-3.75 0l0 5.34375q0 0.578125 0.140625 0.953125q0.140625 0.375 0.390625 0.59375q0.265625 0.21875 0.59375 0.3125q0.34375 0.09375 0.71875 0.09375q0.265625 0 0.546875 -0.03125q0.296875 -0.03125 0.578125 -0.078125q0.28125 -0.046875 0.515625 -0.09375q0.25 -0.046875 0.40625 -0.09375l0.234375 1.203125q-0.21875 0.125 -0.515625 0.21875q-0.296875 0.09375 -0.65625 0.15625q-0.34375 0.078125 -0.75 0.109375q-0.390625 0.046875 -0.78125 0.046875q-0.65625 0 -1.234375 -0.1875q-0.5625 -0.1875 -0.984375 -0.59375q-0.421875 -0.40625 -0.671875 -1.046875q-0.234375 -0.640625 -0.234375 -1.5625l0 -5.34375l-2.578125 0l0 -1.3125l2.578125 0l0 -2.390625l1.703125 0zm13.601807 10.890625q-0.5 0.734375 -1.234375 1.140625q-0.734375 0.40625 -1.703125 0.40625q-0.78125 0 -1.40625 -0.234375q-0.625 -0.25 -1.078125 -0.765625q-0.4375 -0.515625 -0.6875 -1.296875q-0.234375 -0.78125 -0.234375 -1.890625l0 -5.859375l1.6875 0l0 5.875q0 0.8125 0.125 1.34375q0.125 0.515625 0.375 0.828125q0.265625 0.3125 0.625 0.453125q0.375 0.125 0.859375 0.125q1.03125 0 1.65625 -0.421875q0.640625 -0.421875 0.953125 -1.125l0 -7.078125l1.6875 0l0 9.859375l-1.53125 0l-0.09375 -1.359375zm11.258057 -8.671875q0.234375 0 0.484375 0.015625q0.265625 0 0.484375 0.03125q0.234375 0.03125 0.421875 0.078125q0.203125 0.046875 0.34375 0.109375l-0.234375 1.640625q-0.484375 -0.109375 -0.9375 -0.15625q-0.4375 -0.046875 -0.921875 -0.046875q-1.1875 0 -1.921875 0.546875q-0.734375 0.53125 -1.078125 1.484375l0 6.328125l-1.6875 0l0 -9.859375l1.59375 0l0.09375 1.5625q0.59375 -0.796875 1.4375 -1.265625q0.84375 -0.46875 1.921875 -0.46875zm9.086182 10.21875q-1.03125 0 -1.90625 -0.359375q-0.875 -0.359375 -1.5 -0.984375q-0.609375 -0.640625 -0.953125 -1.515625q-0.34375 -0.875 -0.34375 -1.90625l0 -0.390625q0 -1.1875 0.375 -2.125q0.390625 -0.953125 1.015625 -1.59375q0.640625 -0.65625 1.4375 -1.0q0.8125 -0.34375 1.65625 -0.34375q1.0625 0 1.859375 0.375q0.796875 0.359375 1.328125 1.015625q0.53125 0.640625 0.78125 1.53125q0.265625 0.875 0.265625 1.90625l0 0.75l-7.03125 0q0.015625 0.6875 0.25 1.28125q0.234375 0.578125 0.640625 1.03125q0.40625 0.4375 0.96875 0.703125q0.5625 0.25 1.25 0.25q0.90625 0 1.59375 -0.359375q0.703125 -0.375 1.171875 -0.96875l1.03125 0.796875q-0.25 0.375 -0.625 0.71875q-0.359375 0.328125 -0.84375 0.59375q-0.484375 0.265625 -1.09375 0.421875q-0.609375 0.171875 -1.328125 0.171875zm-0.21875 -8.84375q-0.515625 0 -0.96875 0.1875q-0.453125 0.1875 -0.8125 0.546875q-0.359375 0.359375 -0.625 0.890625q-0.25 0.515625 -0.34375 1.203125l5.296875 0l0 -0.125q-0.015625 -0.5 -0.1875 -0.984375q-0.15625 -0.484375 -0.46875 -0.859375q-0.296875 -0.390625 -0.765625 -0.625q-0.46875 -0.234375 -1.125 -0.234375zm14.429993 3.546875l-6.96875 0l0 -1.390625l6.96875 0l0 1.390625zm12.189026 0.296875q0 1.046875 -0.265625 1.96875q-0.25 0.90625 -0.75 1.59375q-0.484375 0.671875 -1.203125 1.0625q-0.71875 0.375 -1.65625 0.375q-0.953125 0 -1.65625 -0.328125q-0.6875 -0.34375 -1.1875 -0.984375l-0.078125 1.125l-1.546875 0l0 -14.0l1.6875 0l0 5.203125q0.484375 -0.609375 1.15625 -0.921875q0.6875 -0.3125 1.609375 -0.3125q0.9375 0 1.65625 0.375q0.734375 0.359375 1.21875 1.03125q0.5 0.65625 0.75 1.59375q0.265625 0.921875 0.265625 2.015625l0 0.203125zm-1.6875 -0.203125q0 -0.71875 -0.140625 -1.359375q-0.140625 -0.65625 -0.453125 -1.15625q-0.3125 -0.5 -0.8125 -0.78125q-0.5 -0.296875 -1.21875 -0.296875q-0.4375 0 -0.8125 0.125q-0.359375 0.109375 -0.65625 0.3125q-0.28125 0.203125 -0.5 0.484375q-0.21875 0.265625 -0.375 0.59375l0 4.3125q0.15625 0.328125 0.375 0.609375q0.234375 0.28125 0.515625 0.5q0.296875 0.203125 0.65625 0.3125q0.375 0.109375 0.8125 0.109375q0.6875 0 1.1875 -0.28125q0.5 -0.296875 0.8125 -0.78125q0.3125 -0.5 0.453125 -1.140625q0.15625 -0.640625 0.15625 -1.359375l0 -0.203125zm10.992432 -5.015625q0.234375 0 0.484375 0.015625q0.265625 0 0.484375 0.03125q0.234375 0.03125 0.421875 0.078125q0.203125 0.046875 0.34375 0.109375l-0.234375 1.640625q-0.484375 -0.109375 -0.9375 -0.15625q-0.4375 -0.046875 -0.921875 -0.046875q-1.1875 0 -1.921875 0.546875q-0.734375 0.53125 -1.078125 1.484375l0 6.328125l-1.6875 0l0 -9.859375l1.59375 0l0.09375 1.5625q0.59375 -0.796875 1.4375 -1.265625q0.84375 -0.46875 1.921875 -0.46875zm11.211243 10.03125q-0.09375 -0.1875 -0.15625 -0.46875q-0.0625 -0.296875 -0.09375 -0.609375q-0.25 0.265625 -0.5625 0.5q-0.3125 0.21875 -0.703125 0.390625q-0.375 0.171875 -0.8125 0.265625q-0.421875 0.109375 -0.890625 0.109375q-0.796875 0 -1.4375 -0.21875q-0.625 -0.234375 -1.0625 -0.625q-0.4375 -0.390625 -0.6875 -0.921875q-0.234375 -0.53125 -0.234375 -1.15625q0 -0.8125 0.3125 -1.421875q0.328125 -0.609375 0.921875 -1.015625q0.59375 -0.40625 1.421875 -0.59375q0.84375 -0.203125 1.875 -0.203125l1.828125 0l0 -0.78125q0 -0.453125 -0.171875 -0.796875q-0.15625 -0.359375 -0.453125 -0.609375q-0.296875 -0.25 -0.734375 -0.390625q-0.421875 -0.140625 -0.96875 -0.140625q-0.5 0 -0.90625 0.140625q-0.390625 0.125 -0.671875 0.34375q-0.265625 0.203125 -0.421875 0.484375q-0.140625 0.28125 -0.140625 0.59375l-1.6875 0q0 -0.53125 0.265625 -1.046875q0.28125 -0.53125 0.78125 -0.9375q0.5 -0.421875 1.21875 -0.671875q0.734375 -0.25 1.65625 -0.25q0.84375 0 1.5625 0.203125q0.71875 0.203125 1.234375 0.625q0.53125 0.40625 0.828125 1.03125q0.296875 0.609375 0.296875 1.4375l0 4.578125q0 0.5 0.09375 1.046875q0.09375 0.546875 0.25 0.96875l0 0.140625l-1.75 0zm-2.984375 -1.28125q0.5 0 0.921875 -0.125q0.4375 -0.140625 0.78125 -0.34375q0.34375 -0.203125 0.59375 -0.46875q0.265625 -0.28125 0.40625 -0.5625l0 -2.0l-1.5625 0q-1.46875 0 -2.296875 0.4375q-0.8125 0.4375 -0.8125 1.375q0 0.359375 0.125 0.671875q0.125 0.3125 0.359375 0.53125q0.25 0.21875 0.625 0.359375q0.375 0.125 0.859375 0.125zm9.211182 -8.578125l0.125 1.453125q0.53125 -0.765625 1.3125 -1.1875q0.78125 -0.4375 1.75 -0.4375q0.78125 0 1.40625 0.21875q0.640625 0.21875 1.078125 0.6875q0.453125 0.453125 0.6875 1.171875q0.25 0.71875 0.25 1.6875l0 6.265625l-1.6875 0l0 -6.21875q0 -0.65625 -0.15625 -1.109375q-0.140625 -0.453125 -0.421875 -0.734375q-0.28125 -0.296875 -0.703125 -0.421875q-0.40625 -0.125 -0.953125 -0.125q-0.84375 0 -1.484375 0.421875q-0.640625 0.421875 -1.03125 1.125l0 7.0625l-1.6875 0l0 -9.859375l1.515625 0zm13.883057 8.671875q0.453125 0 0.890625 -0.140625q0.4375 -0.140625 0.765625 -0.40625q0.34375 -0.265625 0.546875 -0.609375q0.203125 -0.359375 0.21875 -0.765625l1.59375 0q-0.015625 0.65625 -0.34375 1.265625q-0.328125 0.59375 -0.890625 1.046875q-0.5625 0.4375 -1.28125 0.71875q-0.71875 0.265625 -1.5 0.265625q-1.109375 0 -1.953125 -0.40625q-0.84375 -0.40625 -1.40625 -1.078125q-0.546875 -0.6875 -0.84375 -1.5625q-0.28125 -0.890625 -0.28125 -1.875l0 -0.390625q0 -0.96875 0.28125 -1.859375q0.296875 -0.890625 0.84375 -1.5625q0.5625 -0.6875 1.40625 -1.078125q0.84375 -0.40625 1.953125 -0.40625q0.875 0 1.609375 0.28125q0.734375 0.265625 1.265625 0.75q0.53125 0.46875 0.828125 1.125q0.3125 0.65625 0.3125 1.40625l-1.59375 0q-0.015625 -0.453125 -0.203125 -0.84375q-0.1875 -0.390625 -0.515625 -0.6875q-0.3125 -0.3125 -0.75 -0.484375q-0.4375 -0.171875 -0.953125 -0.171875q-0.78125 0 -1.3125 0.3125q-0.53125 0.3125 -0.859375 0.828125q-0.328125 0.5 -0.46875 1.140625q-0.140625 0.625 -0.140625 1.25l0 0.390625q0 0.640625 0.140625 1.28125q0.140625 0.625 0.453125 1.140625q0.328125 0.5 0.859375 0.8125q0.53125 0.3125 1.328125 0.3125zm8.679932 -7.203125q0.53125 -0.78125 1.296875 -1.203125q0.78125 -0.4375 1.75 -0.4375q0.78125 0 1.40625 0.21875q0.640625 0.21875 1.078125 0.703125q0.453125 0.46875 0.6875 1.1875q0.25 0.71875 0.25 1.71875l0 6.203125l-1.6875 0l0 -6.21875q0 -1.21875 -0.578125 -1.8125q-0.578125 -0.59375 -1.65625 -0.578125q-0.8125 0 -1.46875 0.40625q-0.65625 0.390625 -1.078125 1.046875l0 7.15625l-1.6875 0l0 -14.0l1.6875 0l0 5.609375z" fill-rule="nonzero"/><path fill="#000000" fill-opacity="0.0" d="m712.0066 80.84646l-50.236267 12.944878" fill-rule="evenodd"/><path stroke="#000000" stroke-width="1.0" stroke-linejoin="round" stroke-linecap="butt" d="m712.0066 80.84646l-44.426025 11.447708" fill-rule="evenodd"/><path fill="#000000" stroke="#000000" stroke-width="1.0" stroke-linecap="butt" d="m667.1684 90.69468l-3.9824219 2.7318726l4.8067017 0.46709442z" fill-rule="evenodd"/><path fill="#000000" fill-opacity="0.0" d="m934.2677 58.910763l89.66931 0l0 43.874012l-89.66931 0z" fill-rule="evenodd"/><path stroke="#000000" stroke-width="1.0" stroke-linejoin="round" stroke-linecap="butt" d="m934.2677 58.910763l89.66931 0l0 43.874012l-89.66931 0z" fill-rule="evenodd"/><path fill="#000000" d="m966.6175 85.83076l-1.59375 0l0 -6.125l-5.4375 0l0 6.125l-1.59375 0l0 -13.265625l1.59375 0l0 5.703125l5.4375 0l0 -5.703125l1.59375 0l0 13.265625zm10.164307 -6.125l-5.53125 0l0 4.6875l6.453125 0l0 1.4375l-8.140625 0l0 -13.265625l8.0625 0l0 1.4375l-6.375 0l0 4.265625l5.53125 0l0 1.4375zm10.242432 2.6875l-4.4375 0l-1.0625 3.4375l-1.6875 0l4.28125 -13.265625l1.421875 0l4.203125 13.265625l-1.671875 0l-1.046875 -3.4375zm-3.984375 -1.46875l3.53125 0l-1.75 -5.75l-1.78125 5.75zm8.664307 4.90625l0 -13.265625l3.078125 0q1.375 0.015625 2.46875 0.46875q1.09375 0.453125 1.84375 1.265625q0.75 0.796875 1.140625 1.921875q0.40625 1.125 0.40625 2.5l0 0.96875q0 1.375 -0.40625 2.5q-0.390625 1.125 -1.140625 1.9375q-0.75 0.796875 -1.84375 1.25q-1.09375 0.4375 -2.46875 0.453125l-3.078125 0zm1.71875 -11.875l0 10.5l1.359375 0q1.078125 -0.015625 1.859375 -0.375q0.78125 -0.375 1.296875 -1.0q0.515625 -0.640625 0.765625 -1.5q0.25 -0.875 0.25 -1.890625l0 -0.984375q0 -1.015625 -0.265625 -1.875q-0.25 -0.859375 -0.765625 -1.484375q-0.5 -0.640625 -1.28125 -1.0q-0.78125 -0.375 -1.859375 -0.390625l-1.359375 0z" fill-rule="nonzero"/><path fill="#000000" fill-opacity="0.0" d="m934.2677 80.84777l-42.236206 0" fill-rule="evenodd"/><path stroke="#000000" stroke-width="1.0" stroke-linejoin="round" stroke-linecap="butt" d="m934.2677 80.84777l-36.236206 0" fill-rule="evenodd"/><path fill="#000000" stroke="#000000" stroke-width="1.0" stroke-linecap="butt" d="m898.0315 79.19604l-4.538086 1.6517334l4.538086 1.6517334z" fill-rule="evenodd"/><path fill="#ffffff" d="m29.809711 312.07874l0 0c0 -18.760284 15.222317 -33.968506 34.0 -33.968506l0 0c9.017361 0 17.665394 3.578827 24.04163 9.949158c6.376236 6.370331 9.958366 15.010345 9.958366 24.019348l0 0c0 18.760284 -15.222313 33.968506 -33.999996 33.968506l0 0c-18.777683 0 -34.0 -15.208221 -34.0 -33.968506z" fill-rule="evenodd"/><path stroke="#000000" stroke-width="1.0" stroke-linejoin="round" stroke-linecap="butt" d="m29.809711 312.07874l0 0c0 -18.760284 15.222317 -33.968506 34.0 -33.968506l0 0c9.017361 0 17.665394 3.578827 24.04163 9.949158c6.376236 6.370331 9.958366 15.010345 9.958366 24.019348l0 0c0 18.760284 -15.222313 33.968506 -33.999996 33.968506l0 0c-18.777683 0 -34.0 -15.208221 -34.0 -33.968506z" fill-rule="evenodd"/><path fill="#000000" d="m57.556675 318.99875l5.125 -13.359375l1.9062462 0l5.46875 13.359375l-2.015625 0l-1.546875 -4.046875l-5.593746 0l-1.46875 4.046875l-1.875 0zm3.859375 -5.484375l4.531246 0l-1.40625 -3.703125q-0.6249962 -1.6875 -0.9374962 -2.765625q-0.265625 1.28125 -0.71875 2.546875l-1.46875 3.921875z" fill-rule="nonzero"/><path fill="#ffffff" d="m125.46457 312.07874l0 0c0 -18.760284 15.222321 -33.968506 34.0 -33.968506l0 0c9.0173645 0 17.66539 3.578827 24.041626 9.949158c6.376236 6.370331 9.958374 15.010345 9.958374 24.019348l0 0c0 18.760284 -15.222321 33.968506 -34.0 33.968506l0 0c-18.77768 0 -34.0 -15.208221 -34.0 -33.968506z" fill-rule="evenodd"/><path stroke="#000000" stroke-width="1.0" stroke-linejoin="round" stroke-linecap="butt" d="m125.46457 312.07874l0 0c0 -18.760284 15.222321 -33.968506 34.0 -33.968506l0 0c9.0173645 0 17.66539 3.578827 24.041626 9.949158c6.376236 6.370331 9.958374 15.010345 9.958374 24.019348l0 0c0 18.760284 -15.222321 33.968506 -34.0 33.968506l0 0c-18.77768 0 -34.0 -15.208221 -34.0 -33.968506z" fill-rule="evenodd"/><path fill="#000000" d="m154.60216 318.99875l0 -13.359375l5.015625 0q1.53125 0 2.453125 0.40625q0.921875 0.40625 1.4375 1.25q0.53125 0.84375 0.53125 1.765625q0 0.859375 -0.46875 1.625q-0.453125 0.75 -1.390625 1.203125q1.203125 0.359375 1.859375 1.21875q0.65625 0.859375 0.65625 2.015625q0 0.9375 -0.40625 1.75q-0.390625 0.796875 -0.984375 1.234375q-0.578125 0.4375 -1.453125 0.671875q-0.875 0.21875 -2.15625 0.21875l-5.09375 0zm1.78125 -7.75l2.875 0q1.1875 0 1.6875 -0.140625q0.671875 -0.203125 1.015625 -0.671875q0.34375 -0.46875 0.34375 -1.171875q0 -0.65625 -0.328125 -1.15625q-0.3125 -0.515625 -0.90625 -0.703125q-0.59375 -0.1875 -2.03125 -0.1875l-2.65625 0l0 4.03125zm0 6.171875l3.3125 0q0.859375 0 1.203125 -0.0625q0.609375 -0.109375 1.015625 -0.359375q0.421875 -0.265625 0.6875 -0.75q0.265625 -0.484375 0.265625 -1.125q0 -0.75 -0.390625 -1.296875q-0.375 -0.546875 -1.0625 -0.765625q-0.671875 -0.234375 -1.953125 -0.234375l-3.078125 0l0 4.59375z" fill-rule="nonzero"/><path fill="#ffffff" d="m221.11942 272.07874l0 0c0 -18.760284 15.222321 -33.968506 34.0 -33.968506l0 0c9.0173645 0 17.665405 3.578827 24.041626 9.949158c6.376251 6.370331 9.958374 15.010345 9.958374 24.019348l0 0c0 18.760284 -15.222321 33.968506 -34.0 33.968506l0 0c-18.77768 0 -34.0 -15.208221 -34.0 -33.968506z" fill-rule="evenodd"/><path stroke="#000000" stroke-width="1.0" stroke-linejoin="round" stroke-linecap="butt" d="m221.11942 272.07874l0 0c0 -18.760284 15.222321 -33.968506 34.0 -33.968506l0 0c9.0173645 0 17.665405 3.578827 24.041626 9.949158c6.376251 6.370331 9.958374 15.010345 9.958374 24.019348l0 0c0 18.760284 -15.222321 33.968506 -34.0 33.968506l0 0c-18.77768 0 -34.0 -15.208221 -34.0 -33.968506z" fill-rule="evenodd"/><path fill="#000000" d="m259.35168 274.31125l1.765625 0.453125q-0.5625 2.171875 -2.0 3.328125q-1.4375 1.140625 -3.5312347 1.140625q-2.15625 0 -3.515625 -0.875q-1.34375 -0.890625 -2.0625 -2.546875q-0.703125 -1.671875 -0.703125 -3.59375q0 -2.078125 0.796875 -3.625q0.796875 -1.5625 2.265625 -2.359375q1.484375 -0.8125 3.25 -0.8125q1.9999847 0 3.3593597 1.015625q1.375 1.015625 1.90625 2.875l-1.734375 0.40625q-0.46875 -1.453125 -1.359375 -2.109375q-0.875 -0.671875 -2.2031097 -0.671875q-1.546875 0 -2.578125 0.734375q-1.03125 0.734375 -1.453125 1.984375q-0.421875 1.234375 -0.421875 2.5625q0 1.703125 0.5 2.96875q0.5 1.265625 1.546875 1.90625q1.046875 0.625 2.265625 0.625q1.4843597 0 2.5156097 -0.859375q1.03125 -0.859375 1.390625 -2.546875z" fill-rule="nonzero"/><path fill="#ffffff" d="m316.7743 272.07874l0 0c0 -18.760284 15.22229 -33.968506 34.0 -33.968506l0 0c9.017334 0 17.665375 3.578827 24.041626 9.949158c6.3762207 6.370331 9.958374 15.010345 9.958374 24.019348l0 0c0 18.760284 -15.222321 33.968506 -34.0 33.968506l0 0c-18.77771 0 -34.0 -15.208221 -34.0 -33.968506z" fill-rule="evenodd"/><path stroke="#000000" stroke-width="1.0" stroke-linejoin="round" stroke-linecap="butt" d="m316.7743 272.07874l0 0c0 -18.760284 15.22229 -33.968506 34.0 -33.968506l0 0c9.017334 0 17.665375 3.578827 24.041626 9.949158c6.3762207 6.370331 9.958374 15.010345 9.958374 24.019348l0 0c0 18.760284 -15.222321 33.968506 -34.0 33.968506l0 0c-18.77771 0 -34.0 -15.208221 -34.0 -33.968506z" fill-rule="evenodd"/><path fill="#000000" d="m345.4753 278.99875l0 -13.359375l4.609375 0q1.546875 0 2.375 0.203125q1.140625 0.25 1.953125 0.953125q1.0625 0.890625 1.578125 2.28125q0.53125 1.390625 0.53125 3.171875q0 1.515625 -0.359375 2.703125q-0.359375 1.171875 -0.921875 1.9375q-0.546875 0.765625 -1.203125 1.21875q-0.65625 0.4375 -1.59375 0.671875q-0.9375 0.21875 -2.140625 0.21875l-4.828125 0zm1.765625 -1.578125l2.859375 0q1.3125 0 2.0625 -0.234375q0.75 -0.25 1.203125 -0.703125q0.625 -0.625 0.96875 -1.6875q0.359375 -1.0625 0.359375 -2.578125q0 -2.09375 -0.6875 -3.21875q-0.6875 -1.125 -1.671875 -1.5q-0.703125 -0.28125 -2.28125 -0.28125l-2.8125 0l0 10.203125z" fill-rule="nonzero"/><path fill="#ffffff" d="m412.42914 272.07874l0 0c0 -18.760284 15.222321 -33.968506 34.0 -33.968506l0 0c9.0173645 0 17.665375 3.578827 24.041626 9.949158c6.376251 6.370331 9.958374 15.010345 9.958374 24.019348l0 0c0 18.760284 -15.222321 33.968506 -34.0 33.968506l0 0c-18.77768 0 -34.0 -15.208221 -34.0 -33.968506z" fill-rule="evenodd"/><path stroke="#000000" stroke-width="1.0" stroke-linejoin="round" stroke-linecap="butt" d="m412.42914 272.07874l0 0c0 -18.760284 15.222321 -33.968506 34.0 -33.968506l0 0c9.0173645 0 17.665375 3.578827 24.041626 9.949158c6.376251 6.370331 9.958374 15.010345 9.958374 24.019348l0 0c0 18.760284 -15.222321 33.968506 -34.0 33.968506l0 0c-18.77768 0 -34.0 -15.208221 -34.0 -33.968506z" fill-rule="evenodd"/><path fill="#000000" d="m441.6761 278.99875l0 -13.359375l9.65625 0l0 1.578125l-7.875 0l0 4.09375l7.375 0l0 1.5625l-7.375 0l0 4.546875l8.1875 0l0 1.578125l-9.96875 0z" fill-rule="nonzero"/><path fill="#ffffff" d="m508.08398 272.07874l0 0c0 -18.760284 15.222351 -33.968506 34.0 -33.968506l0 0c9.017395 0 17.665405 3.578827 24.041626 9.949158c6.3762207 6.370331 9.958374 15.010345 9.958374 24.019348l0 0c0 18.760284 -15.22229 33.968506 -34.0 33.968506l0 0c-18.777649 0 -34.0 -15.208221 -34.0 -33.968506z" fill-rule="evenodd"/><path stroke="#000000" stroke-width="1.0" stroke-linejoin="round" stroke-linecap="butt" d="m508.08398 272.07874l0 0c0 -18.760284 15.222351 -33.968506 34.0 -33.968506l0 0c9.017395 0 17.665405 3.578827 24.041626 9.949158c6.3762207 6.370331 9.958374 15.010345 9.958374 24.019348l0 0c0 18.760284 -15.22229 33.968506 -34.0 33.968506l0 0c-18.777649 0 -34.0 -15.208221 -34.0 -33.968506z" fill-rule="evenodd"/><path fill="#000000" d="m537.91724 278.99875l0 -13.359375l9.015625 0l0 1.578125l-7.25 0l0 4.140625l6.265625 0l0 1.578125l-6.265625 0l0 6.0625l-1.765625 0z" fill-rule="nonzero"/><path fill="#ffffff" d="m603.73883 272.07874l0 0c0 -18.760284 15.222351 -33.968506 34.0 -33.968506l0 0c9.017395 0 17.665405 3.578827 24.041626 9.949158c6.3762817 6.370331 9.958374 15.010345 9.958374 24.019348l0 0c0 18.760284 -15.22229 33.968506 -34.0 33.968506l0 0c-18.777649 0 -34.0 -15.208221 -34.0 -33.968506z" fill-rule="evenodd"/><path stroke="#000000" stroke-width="1.0" stroke-linejoin="round" stroke-linecap="butt" d="m603.73883 272.07874l0 0c0 -18.760284 15.222351 -33.968506 34.0 -33.968506l0 0c9.017395 0 17.665405 3.578827 24.041626 9.949158c6.3762817 6.370331 9.958374 15.010345 9.958374 24.019348l0 0c0 18.760284 -15.22229 33.968506 -34.0 33.968506l0 0c-18.777649 0 -34.0 -15.208221 -34.0 -33.968506z" fill-rule="evenodd"/><path fill="#000000" d="m638.17065 273.76437l0 -1.578125l5.65625 0l0 4.953125q-1.296875 1.046875 -2.6875 1.578125q-1.375 0.515625 -2.84375 0.515625q-1.96875 0 -3.578125 -0.84375q-1.609375 -0.84375 -2.421875 -2.4375q-0.8125 -1.59375 -0.8125 -3.5625q0 -1.953125 0.8125 -3.640625q0.8125 -1.6875 2.34375 -2.5q1.53125 -0.828125 3.515625 -0.828125q1.453125 0 2.625 0.46875q1.171875 0.46875 1.828125 1.3125q0.671875 0.828125 1.015625 2.171875l-1.59375 0.4375q-0.296875 -1.015625 -0.75 -1.59375q-0.4375 -0.59375 -1.265625 -0.9375q-0.828125 -0.34375 -1.84375 -0.34375q-1.203125 0 -2.09375 0.375q-0.890625 0.359375 -1.4375 0.96875q-0.53125 0.59375 -0.828125 1.3125q-0.515625 1.234375 -0.515625 2.6875q0 1.78125 0.609375 2.984375q0.625 1.203125 1.796875 1.796875q1.171875 0.578125 2.5 0.578125q1.140625 0 2.234375 -0.4375q1.09375 -0.453125 1.65625 -0.953125l0 -2.484375l-3.921875 0z" fill-rule="nonzero"/><path fill="#000000" fill-opacity="0.0" d="m97.80971 312.07874l27.65355 0" fill-rule="evenodd"/><path stroke="#000000" stroke-width="1.0" stroke-linejoin="round" stroke-linecap="butt" d="m97.80971 312.07874l21.65355 0" fill-rule="evenodd"/><path fill="#000000" stroke="#000000" stroke-width="1.0" stroke-linecap="butt" d="m119.46326 313.73047l4.5380936 -1.6517334l-4.5380936 -1.6517334z" fill-rule="evenodd"/><path fill="#000000" fill-opacity="0.0" d="m193.46457 312.07874l27.653534 -40.0" fill-rule="evenodd"/><path stroke="#000000" stroke-width="1.0" stroke-linejoin="round" stroke-linecap="butt" d="m193.46457 312.07874l24.241516 -35.064606" fill-rule="evenodd"/><path fill="#000000" stroke="#000000" stroke-width="1.0" stroke-linecap="butt" d="m219.06474 277.95343l1.2220306 -4.67218l-3.9393463 2.793579z" fill-rule="evenodd"/><path fill="#000000" fill-opacity="0.0" d="m289.11942 272.07874l27.653564 0" fill-rule="evenodd"/><path stroke="#000000" stroke-width="1.0" stroke-linejoin="round" stroke-linecap="butt" d="m289.11942 272.07874l21.653564 0" fill-rule="evenodd"/><path fill="#000000" stroke="#000000" stroke-width="1.0" stroke-linecap="butt" d="m310.77298 273.73047l4.538086 -1.6517334l-4.538086 -1.6517334z" fill-rule="evenodd"/><path fill="#000000" fill-opacity="0.0" d="m384.7743 272.07874l27.653534 0" fill-rule="evenodd"/><path stroke="#000000" stroke-width="1.0" stroke-linejoin="round" stroke-linecap="butt" d="m384.7743 272.07874l21.653534 0" fill-rule="evenodd"/><path fill="#000000" stroke="#000000" stroke-width="1.0" stroke-linecap="butt" d="m406.42783 273.73047l4.538086 -1.6517334l-4.538086 -1.6517334z" fill-rule="evenodd"/><path fill="#000000" fill-opacity="0.0" d="m480.42914 272.07874l27.653534 0" fill-rule="evenodd"/><path stroke="#000000" stroke-width="1.0" stroke-linejoin="round" stroke-linecap="butt" d="m480.42914 272.07874l21.653534 0" fill-rule="evenodd"/><path fill="#000000" stroke="#000000" stroke-width="1.0" stroke-linecap="butt" d="m502.08267 273.73047l4.5381165 -1.6517334l-4.5381165 -1.6517334z" fill-rule="evenodd"/><path fill="#000000" fill-opacity="0.0" d="m576.084 272.07874l27.653564 0" fill-rule="evenodd"/><path stroke="#000000" stroke-width="1.0" stroke-linejoin="round" stroke-linecap="butt" d="m576.084 272.07874l21.653564 0" fill-rule="evenodd"/><path fill="#000000" stroke="#000000" stroke-width="1.0" stroke-linecap="butt" d="m597.73755 273.73047l4.538086 -1.6517334l-4.538086 -1.6517334z" fill-rule="evenodd"/><path fill="#000000" fill-opacity="0.0" d="m216.41077 369.16403l-32.91339 -33.07086" fill-rule="evenodd"/><path stroke="#000000" stroke-width="1.0" stroke-linejoin="round" stroke-linecap="butt" d="m216.41077 369.16403l-28.680878 -28.818115" fill-rule="evenodd"/><path fill="#000000" stroke="#000000" stroke-width="1.0" stroke-linecap="butt" d="m188.90062 339.18076l-4.371994 -2.0513916l2.0305176 4.381714z" fill-rule="evenodd"/><path fill="#000000" fill-opacity="0.0" d="m216.41077 347.22702l109.41733 0l0 43.874023l-109.41733 0z" fill-rule="evenodd"/><path stroke="#000000" stroke-width="1.0" stroke-linejoin="round" stroke-linecap="butt" d="m216.41077 347.22702l109.41733 0l0 43.874023l-109.41733 0z" fill-rule="evenodd"/><path fill="#000000" d="m239.89207 364.28766l0.046875 0.9375q0.296875 -0.53125 0.78125 -0.8125q0.5 -0.296875 1.1875 -0.296875q1.359375 0 1.8125 1.046875q0.296875 -0.46875 0.765625 -0.75q0.484375 -0.296875 1.15625 -0.296875q1.09375 0 1.671875 0.671875q0.578125 0.65625 0.578125 2.0l0 7.359375l-1.59375 0l0 -7.375q0 -1.25 -1.140625 -1.234375q-0.296875 0 -0.515625 0.09375q-0.21875 0.078125 -0.375 0.21875q-0.140625 0.140625 -0.21875 0.328125q-0.078125 0.1875 -0.109375 0.375l0 7.59375l-1.609375 0l0 -7.390625q0 -0.59375 -0.265625 -0.90625q-0.265625 -0.328125 -0.828125 -0.3125q-0.53125 0 -0.828125 0.21875q-0.28125 0.203125 -0.421875 0.546875l0 7.84375l-1.609375 0l0 -9.859375l1.515625 0zm16.898697 9.859375q-0.09375 -0.1875 -0.15625 -0.46875q-0.0625 -0.296875 -0.09375 -0.609375q-0.25 0.265625 -0.5625 0.5q-0.3125 0.21875 -0.703125 0.390625q-0.375 0.171875 -0.8125 0.265625q-0.421875 0.109375 -0.890625 0.109375q-0.796875 0 -1.4375 -0.21875q-0.625 -0.234375 -1.0625 -0.625q-0.4375 -0.390625 -0.6875 -0.921875q-0.234375 -0.53125 -0.234375 -1.15625q0 -0.8125 0.3125 -1.421875q0.328125 -0.609375 0.921875 -1.015625q0.59375 -0.40625 1.421875 -0.59375q0.84375 -0.203125 1.875 -0.203125l1.828125 0l0 -0.78125q0 -0.453125 -0.171875 -0.796875q-0.15625 -0.359375 -0.453125 -0.609375q-0.296875 -0.25 -0.734375 -0.390625q-0.421875 -0.140625 -0.96875 -0.140625q-0.5 0 -0.90625 0.140625q-0.390625 0.125 -0.671875 0.34375q-0.265625 0.203125 -0.421875 0.484375q-0.140625 0.28125 -0.140625 0.59375l-1.6875 0q0 -0.53125 0.265625 -1.046875q0.28125 -0.53125 0.78125 -0.9375q0.5 -0.421875 1.21875 -0.671875q0.734375 -0.25 1.65625 -0.25q0.84375 0 1.5625 0.203125q0.71875 0.203125 1.234375 0.625q0.53125 0.40625 0.828125 1.03125q0.296875 0.609375 0.296875 1.4375l0 4.578125q0 0.5 0.09375 1.046875q0.09375 0.546875 0.25 0.96875l0 0.140625l-1.75 0zm-2.984375 -1.28125q0.5 0 0.921875 -0.125q0.4375 -0.140625 0.78125 -0.34375q0.34375 -0.203125 0.59375 -0.46875q0.265625 -0.28125 0.40625 -0.5625l0 -2.0l-1.5625 0q-1.46875 0 -2.296875 0.4375q-0.8125 0.4375 -0.8125 1.375q0 0.359375 0.125 0.671875q0.125 0.3125 0.359375 0.53125q0.25 0.21875 0.625 0.359375q0.375 0.125 0.859375 0.125zm14.258087 -1.328125q0 -0.3125 -0.125 -0.546875q-0.125 -0.234375 -0.40625 -0.4375q-0.28125 -0.203125 -0.75 -0.375q-0.453125 -0.171875 -1.140625 -0.296875q-0.859375 -0.1875 -1.5625 -0.421875q-0.6875 -0.25 -1.1875 -0.59375q-0.484375 -0.34375 -0.765625 -0.796875q-0.265625 -0.46875 -0.265625 -1.078125q0 -0.59375 0.28125 -1.109375q0.28125 -0.53125 0.78125 -0.921875q0.515625 -0.390625 1.21875 -0.609375q0.703125 -0.234375 1.5625 -0.234375q0.90625 0 1.625 0.234375q0.734375 0.234375 1.25 0.65625q0.515625 0.40625 0.78125 0.96875q0.28125 0.5625 0.28125 1.21875l-1.6875 0q0 -0.328125 -0.171875 -0.625q-0.15625 -0.3125 -0.453125 -0.546875q-0.28125 -0.234375 -0.703125 -0.375q-0.40625 -0.15625 -0.921875 -0.15625q-0.546875 0 -0.953125 0.125q-0.40625 0.109375 -0.671875 0.3125q-0.265625 0.203125 -0.40625 0.46875q-0.140625 0.265625 -0.140625 0.546875q0 0.28125 0.109375 0.515625q0.109375 0.234375 0.375 0.421875q0.28125 0.171875 0.734375 0.328125q0.453125 0.140625 1.140625 0.265625q0.90625 0.203125 1.625 0.453125q0.71875 0.25 1.203125 0.609375q0.5 0.34375 0.75 0.8125q0.265625 0.453125 0.265625 1.0625q0 0.65625 -0.296875 1.203125q-0.28125 0.53125 -0.8125 0.921875q-0.53125 0.375 -1.265625 0.59375q-0.734375 0.203125 -1.609375 0.203125q-1.015625 0 -1.796875 -0.265625q-0.78125 -0.28125 -1.328125 -0.71875q-0.53125 -0.4375 -0.828125 -1.015625q-0.28125 -0.59375 -0.28125 -1.21875l1.6875 0q0.03125 0.515625 0.265625 0.875q0.25 0.359375 0.609375 0.578125q0.359375 0.21875 0.796875 0.3125q0.4375 0.078125 0.875 0.078125q1.0625 0 1.671875 -0.390625q0.625 -0.390625 0.640625 -1.03125zm8.633057 -9.640625l0 2.390625l3.75 0l0 1.3125l-3.75 0l0 5.34375q0 0.578125 0.140625 0.953125q0.140625 0.375 0.390625 0.59375q0.265625 0.21875 0.59375 0.3125q0.34375 0.09375 0.71875 0.09375q0.265625 0 0.546875 -0.03125q0.296875 -0.03125 0.578125 -0.078125q0.28125 -0.046875 0.515625 -0.09375q0.25 -0.046875 0.40625 -0.09375l0.234375 1.203125q-0.21875 0.125 -0.515625 0.21875q-0.296875 0.09375 -0.65625 0.15625q-0.34375 0.078125 -0.75 0.109375q-0.390625 0.046875 -0.78125 0.046875q-0.65625 0 -1.234375 -0.1875q-0.5625 -0.1875 -0.984375 -0.59375q-0.421875 -0.40625 -0.671875 -1.046875q-0.234375 -0.640625 -0.234375 -1.5625l0 -5.34375l-2.578125 0l0 -1.3125l2.578125 0l0 -2.390625l1.703125 0zm11.554962 12.4375q-1.03125 0 -1.90625 -0.359375q-0.875 -0.359375 -1.5 -0.984375q-0.609375 -0.640625 -0.953125 -1.515625q-0.34375 -0.875 -0.34375 -1.90625l0 -0.390625q0 -1.1875 0.375 -2.125q0.390625 -0.953125 1.015625 -1.59375q0.640625 -0.65625 1.4375 -1.0q0.8125 -0.34375 1.65625 -0.34375q1.0625 0 1.859375 0.375q0.796875 0.359375 1.328125 1.015625q0.53125 0.640625 0.78125 1.53125q0.265625 0.875 0.265625 1.90625l0 0.75l-7.03125 0q0.015625 0.6875 0.25 1.28125q0.234375 0.578125 0.640625 1.03125q0.40625 0.4375 0.96875 0.703125q0.5625 0.25 1.25 0.25q0.90625 0 1.59375 -0.359375q0.703125 -0.375 1.171875 -0.96875l1.03125 0.796875q-0.25 0.375 -0.625 0.71875q-0.359375 0.328125 -0.84375 0.59375q-0.484375 0.265625 -1.09375 0.421875q-0.609375 0.171875 -1.328125 0.171875zm-0.21875 -8.84375q-0.515625 0 -0.96875 0.1875q-0.453125 0.1875 -0.8125 0.546875q-0.359375 0.359375 -0.625 0.890625q-0.25 0.515625 -0.34375 1.203125l5.296875 0l0 -0.125q-0.015625 -0.5 -0.1875 -0.984375q-0.15625 -0.484375 -0.46875 -0.859375q-0.296875 -0.390625 -0.765625 -0.625q-0.46875 -0.234375 -1.125 -0.234375zm13.523682 -1.375q0.234375 0 0.484375 0.015625q0.265625 0 0.484375 0.03125q0.234375 0.03125 0.421875 0.078125q0.203125 0.046875 0.34375 0.109375l-0.234375 1.640625q-0.484375 -0.109375 -0.9375 -0.15625q-0.4375 -0.046875 -0.921875 -0.046875q-1.1875 0 -1.921875 0.546875q-0.734375 0.53125 -1.078125 1.484375l0 6.328125l-1.6875 0l0 -9.859375l1.59375 0l0.09375 1.5625q0.59375 -0.796875 1.4375 -1.265625q0.84375 -0.46875 1.921875 -0.46875z" fill-rule="nonzero"/><path fill="#000000" fill-opacity="0.0" d="m712.0066 250.14043l180.0315 0l0 43.87401l-180.0315 0z" fill-rule="evenodd"/><path stroke="#000000" stroke-width="1.0" stroke-linejoin="round" stroke-linecap="butt" d="m712.0066 250.14043l180.0315 0l0 43.87401l-180.0315 0z" fill-rule="evenodd"/><path fill="#000000" d="m727.738 277.06042l0 -8.546875l-2.703125 0l0 -1.3125l2.703125 0l0 -0.6875q0 -0.953125 0.28125 -1.65625q0.28125 -0.71875 0.78125 -1.203125q0.515625 -0.484375 1.21875 -0.734375q0.71875 -0.25 1.59375 -0.25q0.59375 0 1.15625 0.109375q0.578125 0.09375 1.171875 0.25l-0.1875 1.390625q-0.375 -0.125 -0.875 -0.21875q-0.5 -0.09375 -1.0625 -0.09375q-1.1875 0.015625 -1.78125 0.609375q-0.59375 0.578125 -0.59375 1.796875l0 0.6875l3.796875 0l0 1.3125l-3.796875 0l0 8.546875l-1.703125 0zm13.048401 0.1875q-1.03125 0 -1.90625 -0.359375q-0.875 -0.359375 -1.5 -0.984375q-0.609375 -0.640625 -0.953125 -1.515625q-0.34375 -0.875 -0.34375 -1.90625l0 -0.390625q0 -1.1875 0.375 -2.125q0.390625 -0.953125 1.015625 -1.59375q0.640625 -0.65625 1.4375 -1.0q0.8125 -0.34375 1.65625 -0.34375q1.0625 0 1.859375 0.375q0.796875 0.359375 1.328125 1.015625q0.53125 0.640625 0.78125 1.53125q0.265625 0.875 0.265625 1.90625l0 0.75l-7.03125 0q0.015625 0.6875 0.25 1.28125q0.234375 0.578125 0.640625 1.03125q0.40625 0.4375 0.96875 0.703125q0.5625 0.25 1.25 0.25q0.90625 0 1.59375 -0.359375q0.703125 -0.375 1.171875 -0.96875l1.03125 0.796875q-0.25 0.375 -0.625 0.71875q-0.359375 0.328125 -0.84375 0.59375q-0.484375 0.265625 -1.09375 0.421875q-0.609375 0.171875 -1.328125 0.171875zm-0.21875 -8.84375q-0.515625 0 -0.96875 0.1875q-0.453125 0.1875 -0.8125 0.546875q-0.359375 0.359375 -0.625 0.890625q-0.25 0.515625 -0.34375 1.203125l5.296875 0l0 -0.125q-0.015625 -0.5 -0.1875 -0.984375q-0.15625 -0.484375 -0.46875 -0.859375q-0.296875 -0.390625 -0.765625 -0.625q-0.46875 -0.234375 -1.125 -0.234375zm13.539307 8.65625q-0.09375 -0.1875 -0.15625 -0.46875q-0.0625 -0.296875 -0.09375 -0.609375q-0.25 0.265625 -0.5625 0.5q-0.3125 0.21875 -0.703125 0.390625q-0.375 0.171875 -0.8125 0.265625q-0.421875 0.109375 -0.890625 0.109375q-0.796875 0 -1.4375 -0.21875q-0.625 -0.234375 -1.0625 -0.625q-0.4375 -0.390625 -0.6875 -0.921875q-0.234375 -0.53125 -0.234375 -1.15625q0 -0.8125 0.3125 -1.421875q0.328125 -0.609375 0.921875 -1.015625q0.59375 -0.40625 1.421875 -0.59375q0.84375 -0.203125 1.875 -0.203125l1.828125 0l0 -0.78125q0 -0.453125 -0.171875 -0.796875q-0.15625 -0.359375 -0.453125 -0.609375q-0.296875 -0.25 -0.734375 -0.390625q-0.421875 -0.140625 -0.96875 -0.140625q-0.5 0 -0.90625 0.140625q-0.390625 0.125 -0.671875 0.34375q-0.265625 0.203125 -0.421875 0.484375q-0.140625 0.28125 -0.140625 0.59375l-1.6875 0q0 -0.53125 0.265625 -1.046875q0.28125 -0.53125 0.78125 -0.9375q0.5 -0.421875 1.21875 -0.671875q0.734375 -0.25 1.65625 -0.25q0.84375 0 1.5625 0.203125q0.71875 0.203125 1.234375 0.625q0.53125 0.40625 0.828125 1.03125q0.296875 0.609375 0.296875 1.4375l0 4.578125q0 0.5 0.09375 1.046875q0.09375 0.546875 0.25 0.96875l0 0.140625l-1.75 0zm-2.984375 -1.28125q0.5 0 0.921875 -0.125q0.4375 -0.140625 0.78125 -0.34375q0.34375 -0.203125 0.59375 -0.46875q0.265625 -0.28125 0.40625 -0.5625l0 -2.0l-1.5625 0q-1.46875 0 -2.296875 0.4375q-0.8125 0.4375 -0.8125 1.375q0 0.359375 0.125 0.671875q0.125 0.3125 0.359375 0.53125q0.25 0.21875 0.625 0.359375q0.375 0.125 0.859375 0.125zm11.695618 -10.96875l0 2.390625l3.75 0l0 1.3125l-3.75 0l0 5.34375q0 0.578125 0.140625 0.953125q0.140625 0.375 0.390625 0.59375q0.265625 0.21875 0.59375 0.3125q0.34375 0.09375 0.71875 0.09375q0.265625 0 0.546875 -0.03125q0.296875 -0.03125 0.578125 -0.078125q0.28125 -0.046875 0.515625 -0.09375q0.25 -0.046875 0.40625 -0.09375l0.234375 1.203125q-0.21875 0.125 -0.515625 0.21875q-0.296875 0.09375 -0.65625 0.15625q-0.34375 0.078125 -0.75 0.109375q-0.390625 0.046875 -0.78125 0.046875q-0.65625 0 -1.234375 -0.1875q-0.5625 -0.1875 -0.984375 -0.59375q-0.421875 -0.40625 -0.671875 -1.046875q-0.234375 -0.640625 -0.234375 -1.5625l0 -5.34375l-2.578125 0l0 -1.3125l2.578125 0l0 -2.390625l1.703125 0zm13.601807 10.890625q-0.5 0.734375 -1.234375 1.140625q-0.734375 0.40625 -1.703125 0.40625q-0.78125 0 -1.40625 -0.234375q-0.625 -0.25 -1.078125 -0.765625q-0.4375 -0.515625 -0.6875 -1.296875q-0.234375 -0.78125 -0.234375 -1.890625l0 -5.859375l1.6875 0l0 5.875q0 0.8125 0.125 1.34375q0.125 0.515625 0.375 0.828125q0.265625 0.3125 0.625 0.453125q0.375 0.125 0.859375 0.125q1.03125 0 1.65625 -0.421875q0.640625 -0.421875 0.953125 -1.125l0 -7.078125l1.6875 0l0 9.859375l-1.53125 0l-0.09375 -1.359375zm11.258057 -8.671875q0.234375 0 0.484375 0.015625q0.265625 0 0.484375 0.03125q0.234375 0.03125 0.421875 0.078125q0.203125 0.046875 0.34375 0.109375l-0.234375 1.640625q-0.484375 -0.109375 -0.9375 -0.15625q-0.4375 -0.046875 -0.921875 -0.046875q-1.1875 0 -1.921875 0.546875q-0.734375 0.53125 -1.078125 1.484375l0 6.328125l-1.6875 0l0 -9.859375l1.59375 0l0.09375 1.5625q0.59375 -0.796875 1.4375 -1.265625q0.84375 -0.46875 1.921875 -0.46875zm9.086182 10.21875q-1.03125 0 -1.90625 -0.359375q-0.875 -0.359375 -1.5 -0.984375q-0.609375 -0.640625 -0.953125 -1.515625q-0.34375 -0.875 -0.34375 -1.90625l0 -0.390625q0 -1.1875 0.375 -2.125q0.390625 -0.953125 1.015625 -1.59375q0.640625 -0.65625 1.4375 -1.0q0.8125 -0.34375 1.65625 -0.34375q1.0625 0 1.859375 0.375q0.796875 0.359375 1.328125 1.015625q0.53125 0.640625 0.78125 1.53125q0.265625 0.875 0.265625 1.90625l0 0.75l-7.03125 0q0.015625 0.6875 0.25 1.28125q0.234375 0.578125 0.640625 1.03125q0.40625 0.4375 0.96875 0.703125q0.5625 0.25 1.25 0.25q0.90625 0 1.59375 -0.359375q0.703125 -0.375 1.171875 -0.96875l1.03125 0.796875q-0.25 0.375 -0.625 0.71875q-0.359375 0.328125 -0.84375 0.59375q-0.484375 0.265625 -1.09375 0.421875q-0.609375 0.171875 -1.328125 0.171875zm-0.21875 -8.84375q-0.515625 0 -0.96875 0.1875q-0.453125 0.1875 -0.8125 0.546875q-0.359375 0.359375 -0.625 0.890625q-0.25 0.515625 -0.34375 1.203125l5.296875 0l0 -0.125q-0.015625 -0.5 -0.1875 -0.984375q-0.15625 -0.484375 -0.46875 -0.859375q-0.296875 -0.390625 -0.765625 -0.625q-0.46875 -0.234375 -1.125 -0.234375zm14.429993 3.546875l-6.96875 0l0 -1.390625l6.96875 0l0 1.390625zm12.189026 0.296875q0 1.046875 -0.265625 1.96875q-0.25 0.90625 -0.75 1.59375q-0.484375 0.671875 -1.203125 1.0625q-0.71875 0.375 -1.65625 0.375q-0.953125 0 -1.65625 -0.328125q-0.6875 -0.34375 -1.1875 -0.984375l-0.078125 1.125l-1.546875 0l0 -14.0l1.6875 0l0 5.203125q0.484375 -0.609375 1.15625 -0.921875q0.6875 -0.3125 1.609375 -0.3125q0.9375 0 1.65625 0.375q0.734375 0.359375 1.21875 1.03125q0.5 0.65625 0.75 1.59375q0.265625 0.921875 0.265625 2.015625l0 0.203125zm-1.6875 -0.203125q0 -0.71875 -0.140625 -1.359375q-0.140625 -0.65625 -0.453125 -1.15625q-0.3125 -0.5 -0.8125 -0.78125q-0.5 -0.296875 -1.21875 -0.296875q-0.4375 0 -0.8125 0.125q-0.359375 0.109375 -0.65625 0.3125q-0.28125 0.203125 -0.5 0.484375q-0.21875 0.265625 -0.375 0.59375l0 4.3125q0.15625 0.328125 0.375 0.609375q0.234375 0.28125 0.515625 0.5q0.296875 0.203125 0.65625 0.3125q0.375 0.109375 0.8125 0.109375q0.6875 0 1.1875 -0.28125q0.5 -0.296875 0.8125 -0.78125q0.3125 -0.5 0.453125 -1.140625q0.15625 -0.640625 0.15625 -1.359375l0 -0.203125zm10.992432 -5.015625q0.234375 0 0.484375 0.015625q0.265625 0 0.484375 0.03125q0.234375 0.03125 0.421875 0.078125q0.203125 0.046875 0.34375 0.109375l-0.234375 1.640625q-0.484375 -0.109375 -0.9375 -0.15625q-0.4375 -0.046875 -0.921875 -0.046875q-1.1875 0 -1.921875 0.546875q-0.734375 0.53125 -1.078125 1.484375l0 6.328125l-1.6875 0l0 -9.859375l1.59375 0l0.09375 1.5625q0.59375 -0.796875 1.4375 -1.265625q0.84375 -0.46875 1.921875 -0.46875zm11.211243 10.03125q-0.09375 -0.1875 -0.15625 -0.46875q-0.0625 -0.296875 -0.09375 -0.609375q-0.25 0.265625 -0.5625 0.5q-0.3125 0.21875 -0.703125 0.390625q-0.375 0.171875 -0.8125 0.265625q-0.421875 0.109375 -0.890625 0.109375q-0.796875 0 -1.4375 -0.21875q-0.625 -0.234375 -1.0625 -0.625q-0.4375 -0.390625 -0.6875 -0.921875q-0.234375 -0.53125 -0.234375 -1.15625q0 -0.8125 0.3125 -1.421875q0.328125 -0.609375 0.921875 -1.015625q0.59375 -0.40625 1.421875 -0.59375q0.84375 -0.203125 1.875 -0.203125l1.828125 0l0 -0.78125q0 -0.453125 -0.171875 -0.796875q-0.15625 -0.359375 -0.453125 -0.609375q-0.296875 -0.25 -0.734375 -0.390625q-0.421875 -0.140625 -0.96875 -0.140625q-0.5 0 -0.90625 0.140625q-0.390625 0.125 -0.671875 0.34375q-0.265625 0.203125 -0.421875 0.484375q-0.140625 0.28125 -0.140625 0.59375l-1.6875 0q0 -0.53125 0.265625 -1.046875q0.28125 -0.53125 0.78125 -0.9375q0.5 -0.421875 1.21875 -0.671875q0.734375 -0.25 1.65625 -0.25q0.84375 0 1.5625 0.203125q0.71875 0.203125 1.234375 0.625q0.53125 0.40625 0.828125 1.03125q0.296875 0.609375 0.296875 1.4375l0 4.578125q0 0.5 0.09375 1.046875q0.09375 0.546875 0.25 0.96875l0 0.140625l-1.75 0zm-2.984375 -1.28125q0.5 0 0.921875 -0.125q0.4375 -0.140625 0.78125 -0.34375q0.34375 -0.203125 0.59375 -0.46875q0.265625 -0.28125 0.40625 -0.5625l0 -2.0l-1.5625 0q-1.46875 0 -2.296875 0.4375q-0.8125 0.4375 -0.8125 1.375q0 0.359375 0.125 0.671875q0.125 0.3125 0.359375 0.53125q0.25 0.21875 0.625 0.359375q0.375 0.125 0.859375 0.125zm9.211182 -8.578125l0.125 1.453125q0.53125 -0.765625 1.3125 -1.1875q0.78125 -0.4375 1.75 -0.4375q0.78125 0 1.40625 0.21875q0.640625 0.21875 1.078125 0.6875q0.453125 0.453125 0.6875 1.171875q0.25 0.71875 0.25 1.6875l0 6.265625l-1.6875 0l0 -6.21875q0 -0.65625 -0.15625 -1.109375q-0.140625 -0.453125 -0.421875 -0.734375q-0.28125 -0.296875 -0.703125 -0.421875q-0.40625 -0.125 -0.953125 -0.125q-0.84375 0 -1.484375 0.421875q-0.640625 0.421875 -1.03125 1.125l0 7.0625l-1.6875 0l0 -9.859375l1.515625 0zm13.883057 8.671875q0.453125 0 0.890625 -0.140625q0.4375 -0.140625 0.765625 -0.40625q0.34375 -0.265625 0.546875 -0.609375q0.203125 -0.359375 0.21875 -0.765625l1.59375 0q-0.015625 0.65625 -0.34375 1.265625q-0.328125 0.59375 -0.890625 1.046875q-0.5625 0.4375 -1.28125 0.71875q-0.71875 0.265625 -1.5 0.265625q-1.109375 0 -1.953125 -0.40625q-0.84375 -0.40625 -1.40625 -1.078125q-0.546875 -0.6875 -0.84375 -1.5625q-0.28125 -0.890625 -0.28125 -1.875l0 -0.390625q0 -0.96875 0.28125 -1.859375q0.296875 -0.890625 0.84375 -1.5625q0.5625 -0.6875 1.40625 -1.078125q0.84375 -0.40625 1.953125 -0.40625q0.875 0 1.609375 0.28125q0.734375 0.265625 1.265625 0.75q0.53125 0.46875 0.828125 1.125q0.3125 0.65625 0.3125 1.40625l-1.59375 0q-0.015625 -0.453125 -0.203125 -0.84375q-0.1875 -0.390625 -0.515625 -0.6875q-0.3125 -0.3125 -0.75 -0.484375q-0.4375 -0.171875 -0.953125 -0.171875q-0.78125 0 -1.3125 0.3125q-0.53125 0.3125 -0.859375 0.828125q-0.328125 0.5 -0.46875 1.140625q-0.140625 0.625 -0.140625 1.25l0 0.390625q0 0.640625 0.140625 1.28125q0.140625 0.625 0.453125 1.140625q0.328125 0.5 0.859375 0.8125q0.53125 0.3125 1.328125 0.3125zm8.679932 -7.203125q0.53125 -0.78125 1.296875 -1.203125q0.78125 -0.4375 1.75 -0.4375q0.78125 0 1.40625 0.21875q0.640625 0.21875 1.078125 0.703125q0.453125 0.46875 0.6875 1.1875q0.25 0.71875 0.25 1.71875l0 6.203125l-1.6875 0l0 -6.21875q0 -1.21875 -0.578125 -1.8125q-0.578125 -0.59375 -1.65625 -0.578125q-0.8125 0 -1.46875 0.40625q-0.65625 0.390625 -1.078125 1.046875l0 7.15625l-1.6875 0l0 -14.0l1.6875 0l0 5.609375z" fill-rule="nonzero"/><path fill="#000000" fill-opacity="0.0" d="m712.0066 272.07742l-40.28351 0" fill-rule="evenodd"/><path stroke="#000000" stroke-width="1.0" stroke-linejoin="round" stroke-linecap="butt" d="m712.0066 272.07742l-34.28351 0" fill-rule="evenodd"/><path fill="#000000" stroke="#000000" stroke-width="1.0" stroke-linecap="butt" d="m677.7231 270.4257l-4.538086 1.6517334l4.538086 1.6517334z" fill-rule="evenodd"/><path fill="#000000" fill-opacity="0.0" d="m359.52493 347.22833l89.66928 0l0 43.874023l-89.66928 0z" fill-rule="evenodd"/><path stroke="#000000" stroke-width="1.0" stroke-linejoin="round" stroke-linecap="butt" d="m359.52493 347.22833l89.66928 0l0 43.874023l-89.66928 0z" fill-rule="evenodd"/><path fill="#000000" d="m391.8747 374.14835l-1.59375 0l0 -6.125l-5.4375 0l0 6.125l-1.59375 0l0 -13.265625l1.59375 0l0 5.703125l5.4375 0l0 -5.703125l1.59375 0l0 13.265625zm10.164307 -6.125l-5.53125 0l0 4.6875l6.453125 0l0 1.4375l-8.140625 0l0 -13.265625l8.0625 0l0 1.4375l-6.375 0l0 4.265625l5.53125 0l0 1.4375zm10.242462 2.6875l-4.4375 0l-1.0625 3.4375l-1.6875 0l4.28125 -13.265625l1.421875 0l4.203125 13.265625l-1.671875 0l-1.046875 -3.4375zm-3.984375 -1.46875l3.53125 0l-1.75 -5.75l-1.78125 5.75zm8.664307 4.90625l0 -13.265625l3.078125 0q1.375 0.015625 2.46875 0.46875q1.09375 0.453125 1.84375 1.265625q0.75 0.796875 1.140625 1.921875q0.40625 1.125 0.40625 2.5l0 0.96875q0 1.375 -0.40625 2.5q-0.390625 1.125 -1.140625 1.9375q-0.75 0.796875 -1.84375 1.25q-1.09375 0.4375 -2.46875 0.453125l-3.078125 0zm1.71875 -11.875l0 10.5l1.359375 0q1.078125 -0.015625 1.859375 -0.375q0.78125 -0.375 1.296875 -1.0q0.515625 -0.640625 0.765625 -1.5q0.25 -0.875 0.25 -1.890625l0 -0.984375q0 -1.015625 -0.265625 -1.875q-0.25 -0.859375 -0.765625 -1.484375q-0.5 -0.640625 -1.28125 -1.0q-0.78125 -0.375 -1.859375 -0.390625l-1.359375 0z" fill-rule="nonzero"/><path fill="#000000" fill-opacity="0.0" d="m359.52493 369.16534l-33.700775 0" fill-rule="evenodd"/><path stroke="#000000" stroke-width="1.0" stroke-linejoin="round" stroke-linecap="butt" d="m359.52493 369.16534l-27.700775 0" fill-rule="evenodd"/><path fill="#000000" stroke="#000000" stroke-width="1.0" stroke-linecap="butt" d="m331.82416 367.5136l-4.5381165 1.6517334l4.5381165 1.6517334z" fill-rule="evenodd"/><path fill="#ffffff" d="m29.809711 548.4593l0 0c0 -18.760254 15.222317 -33.968506 34.0 -33.968506l0 0c9.017361 0 17.665394 3.5788574 24.04163 9.949158c6.376236 6.3703613 9.958366 15.010376 9.958366 24.019348l0 0c0 18.760315 -15.222313 33.968506 -33.999996 33.968506l0 0c-18.777683 0 -34.0 -15.208191 -34.0 -33.968506z" fill-rule="evenodd"/><path stroke="#000000" stroke-width="1.0" stroke-linejoin="round" stroke-linecap="butt" d="m29.809711 548.4593l0 0c0 -18.760254 15.222317 -33.968506 34.0 -33.968506l0 0c9.017361 0 17.665394 3.5788574 24.04163 9.949158c6.376236 6.3703613 9.958366 15.010376 9.958366 24.019348l0 0c0 18.760315 -15.222313 33.968506 -33.999996 33.968506l0 0c-18.777683 0 -34.0 -15.208191 -34.0 -33.968506z" fill-rule="evenodd"/><path fill="#000000" d="m57.556675 555.37933l5.125 -13.359375l1.9062462 0l5.46875 13.359375l-2.015625 0l-1.546875 -4.046875l-5.593746 0l-1.46875 4.046875l-1.875 0zm3.859375 -5.484375l4.531246 0l-1.40625 -3.703125q-0.6249962 -1.6875 -0.9374962 -2.765625q-0.265625 1.28125 -0.71875 2.546875l-1.46875 3.921875z" fill-rule="nonzero"/><path fill="#ffffff" d="m125.46457 548.4593l0 0c0 -18.760254 15.222321 -33.968506 34.0 -33.968506l0 0c9.0173645 0 17.66539 3.5788574 24.041626 9.949158c6.376236 6.3703613 9.958374 15.010376 9.958374 24.019348l0 0c0 18.760315 -15.222321 33.968506 -34.0 33.968506l0 0c-18.77768 0 -34.0 -15.208191 -34.0 -33.968506z" fill-rule="evenodd"/><path stroke="#000000" stroke-width="1.0" stroke-linejoin="round" stroke-linecap="butt" d="m125.46457 548.4593l0 0c0 -18.760254 15.222321 -33.968506 34.0 -33.968506l0 0c9.0173645 0 17.66539 3.5788574 24.041626 9.949158c6.376236 6.3703613 9.958374 15.010376 9.958374 24.019348l0 0c0 18.760315 -15.222321 33.968506 -34.0 33.968506l0 0c-18.77768 0 -34.0 -15.208191 -34.0 -33.968506z" fill-rule="evenodd"/><path fill="#000000" d="m154.60216 555.37933l0 -13.359375l5.015625 0q1.53125 0 2.453125 0.40625q0.921875 0.40625 1.4375 1.25q0.53125 0.84375 0.53125 1.765625q0 0.859375 -0.46875 1.625q-0.453125 0.75 -1.390625 1.203125q1.203125 0.359375 1.859375 1.21875q0.65625 0.859375 0.65625 2.015625q0 0.9375 -0.40625 1.75q-0.390625 0.796875 -0.984375 1.234375q-0.578125 0.4375 -1.453125 0.671875q-0.875 0.21875 -2.15625 0.21875l-5.09375 0zm1.78125 -7.75l2.875 0q1.1875 0 1.6875 -0.140625q0.671875 -0.203125 1.015625 -0.671875q0.34375 -0.46875 0.34375 -1.171875q0 -0.65625 -0.328125 -1.15625q-0.3125 -0.515625 -0.90625 -0.703125q-0.59375 -0.1875 -2.03125 -0.1875l-2.65625 0l0 4.03125zm0 6.171875l3.3125 0q0.859375 0 1.203125 -0.0625q0.609375 -0.109375 1.015625 -0.359375q0.421875 -0.265625 0.6875 -0.75q0.265625 -0.484375 0.265625 -1.125q0 -0.75 -0.390625 -1.296875q-0.375 -0.546875 -1.0625 -0.765625q-0.671875 -0.234375 -1.953125 -0.234375l-3.078125 0l0 4.59375z" fill-rule="nonzero"/><path fill="#ffffff" d="m221.11942 508.45932l0 0c0 -18.760284 15.222321 -33.968506 34.0 -33.968506l0 0c9.0173645 0 17.665405 3.578827 24.041626 9.949158c6.376251 6.370331 9.958374 15.010345 9.958374 24.019348l0 0c0 18.760284 -15.222321 33.968475 -34.0 33.968475l0 0c-18.77768 0 -34.0 -15.208191 -34.0 -33.968475z" fill-rule="evenodd"/><path stroke="#000000" stroke-width="1.0" stroke-linejoin="round" stroke-linecap="butt" d="m221.11942 508.45932l0 0c0 -18.760284 15.222321 -33.968506 34.0 -33.968506l0 0c9.0173645 0 17.665405 3.578827 24.041626 9.949158c6.376251 6.370331 9.958374 15.010345 9.958374 24.019348l0 0c0 18.760284 -15.222321 33.968475 -34.0 33.968475l0 0c-18.77768 0 -34.0 -15.208191 -34.0 -33.968475z" fill-rule="evenodd"/><path fill="#000000" d="m249.88295 515.37933l0 -13.3594055l1.765625 0l0 5.484375l6.9374847 0l0 -5.484375l1.765625 0l0 13.3594055l-1.765625 0l0 -6.2969055l-6.9374847 0l0 6.2969055l-1.765625 0z" fill-rule="nonzero"/><path fill="#ffffff" d="m316.7743 508.45932l0 0c0 -18.760284 15.22229 -33.968506 34.0 -33.968506l0 0c9.017334 0 17.665375 3.578827 24.041626 9.949158c6.3762207 6.370331 9.958374 15.010345 9.958374 24.019348l0 0c0 18.760284 -15.222321 33.968475 -34.0 33.968475l0 0c-18.77771 0 -34.0 -15.208191 -34.0 -33.968475z" fill-rule="evenodd"/><path stroke="#000000" stroke-width="1.0" stroke-linejoin="round" stroke-linecap="butt" d="m316.7743 508.45932l0 0c0 -18.760284 15.22229 -33.968506 34.0 -33.968506l0 0c9.017334 0 17.665375 3.578827 24.041626 9.949158c6.3762207 6.370331 9.958374 15.010345 9.958374 24.019348l0 0c0 18.760284 -15.222321 33.968475 -34.0 33.968475l0 0c-18.77771 0 -34.0 -15.208191 -34.0 -33.968475z" fill-rule="evenodd"/><path fill="#000000" d="m349.917 515.37933l0 -13.3594055l1.765625 0l0 13.3594055l-1.765625 0z" fill-rule="nonzero"/><path fill="#ffffff" d="m412.42914 508.45932l0 0c0 -18.760284 15.222321 -33.968506 34.0 -33.968506l0 0c9.0173645 0 17.665375 3.578827 24.041626 9.949158c6.376251 6.370331 9.958374 15.010345 9.958374 24.019348l0 0c0 18.760284 -15.222321 33.968475 -34.0 33.968475l0 0c-18.77768 0 -34.0 -15.208191 -34.0 -33.968475z" fill-rule="evenodd"/><path stroke="#000000" stroke-width="1.0" stroke-linejoin="round" stroke-linecap="butt" d="m412.42914 508.45932l0 0c0 -18.760284 15.222321 -33.968506 34.0 -33.968506l0 0c9.0173645 0 17.665375 3.578827 24.041626 9.949158c6.376251 6.370331 9.958374 15.010345 9.958374 24.019348l0 0c0 18.760284 -15.222321 33.968475 -34.0 33.968475l0 0c-18.77768 0 -34.0 -15.208191 -34.0 -33.968475z" fill-rule="evenodd"/><path fill="#000000" d="m442.29633 511.58243l1.59375 -0.21875q0.078125 1.5312805 0.578125 2.1094055q0.515625 0.5625 1.421875 0.5625q0.65625 0 1.140625 -0.296875q0.484375 -0.3125 0.65625 -0.828125q0.1875 -0.53125 0.1875 -1.6875305l0 -9.203125l1.765625 0l0 9.109375q0 1.6719055 -0.40625 2.5937805q-0.40625 0.921875 -1.28125 1.40625q-0.875 0.484375 -2.0625 0.484375q-1.75 0 -2.6875 -1.015625q-0.9375 -1.015625 -0.90625 -3.0156555z" fill-rule="nonzero"/><path fill="#000000" fill-opacity="0.0" d="m97.80971 548.4593l27.65355 0" fill-rule="evenodd"/><path stroke="#000000" stroke-width="1.0" stroke-linejoin="round" stroke-linecap="butt" d="m97.80971 548.4593l21.65355 0" fill-rule="evenodd"/><path fill="#000000" stroke="#000000" stroke-width="1.0" stroke-linecap="butt" d="m119.46326 550.111l4.5380936 -1.6517334l-4.5380936 -1.6517334z" fill-rule="evenodd"/><path fill="#000000" fill-opacity="0.0" d="m193.46457 548.4593l27.653534 -39.99997" fill-rule="evenodd"/><path stroke="#000000" stroke-width="1.0" stroke-linejoin="round" stroke-linecap="butt" d="m193.46457 548.4593l24.241516 -35.064575" fill-rule="evenodd"/><path fill="#000000" stroke="#000000" stroke-width="1.0" stroke-linecap="butt" d="m219.06474 514.334l1.2220306 -4.6721497l-3.9393463 2.7936096z" fill-rule="evenodd"/><path fill="#000000" fill-opacity="0.0" d="m289.11942 508.45932l27.653564 0" fill-rule="evenodd"/><path stroke="#000000" stroke-width="1.0" stroke-linejoin="round" stroke-linecap="butt" d="m289.11942 508.45932l21.653564 0" fill-rule="evenodd"/><path fill="#000000" stroke="#000000" stroke-width="1.0" stroke-linecap="butt" d="m310.77298 510.11105l4.538086 -1.6517334l-4.538086 -1.6517334z" fill-rule="evenodd"/><path fill="#000000" fill-opacity="0.0" d="m384.7743 508.45932l27.653534 0" fill-rule="evenodd"/><path stroke="#000000" stroke-width="1.0" stroke-linejoin="round" stroke-linecap="butt" d="m384.7743 508.45932l21.653534 0" fill-rule="evenodd"/><path fill="#000000" stroke="#000000" stroke-width="1.0" stroke-linecap="butt" d="m406.42783 510.11105l4.538086 -1.6517334l-4.538086 -1.6517334z" fill-rule="evenodd"/><path fill="#000000" fill-opacity="0.0" d="m200.41077 629.5446l-16.913391 -57.07086" fill-rule="evenodd"/><path stroke="#000000" stroke-width="1.0" stroke-linejoin="round" stroke-linecap="butt" d="m200.41077 629.5446l-15.208542 -51.318176" fill-rule="evenodd"/><path fill="#000000" stroke="#000000" stroke-width="1.0" stroke-linecap="butt" d="m186.78587 577.75714l-2.873108 -3.8817139l-0.29418945 4.8203735z" fill-rule="evenodd"/><path fill="#000000" fill-opacity="0.0" d="m200.41077 607.6076l109.41733 0l0 43.874023l-109.41733 0z" fill-rule="evenodd"/><path stroke="#000000" stroke-width="1.0" stroke-linejoin="round" stroke-linecap="butt" d="m200.41077 607.6076l109.41733 0l0 43.874023l-109.41733 0z" fill-rule="evenodd"/><path fill="#000000" d="m223.89207 624.6682l0.046875 0.9375q0.296875 -0.53125 0.78125 -0.8125q0.5 -0.296875 1.1875 -0.296875q1.359375 0 1.8125 1.046875q0.296875 -0.46875 0.765625 -0.75q0.484375 -0.296875 1.15625 -0.296875q1.09375 0 1.671875 0.671875q0.578125 0.65625 0.578125 2.0l0 7.359375l-1.59375 0l0 -7.375q0 -1.25 -1.140625 -1.234375q-0.296875 0 -0.515625 0.09375q-0.21875 0.078125 -0.375 0.21875q-0.140625 0.140625 -0.21875 0.328125q-0.078125 0.1875 -0.109375 0.375l0 7.59375l-1.609375 0l0 -7.390625q0 -0.59375 -0.265625 -0.90625q-0.265625 -0.328125 -0.828125 -0.3125q-0.53125 0 -0.828125 0.21875q-0.28125 0.203125 -0.421875 0.546875l0 7.84375l-1.609375 0l0 -9.859375l1.515625 0zm16.898697 9.859375q-0.09375 -0.1875 -0.15625 -0.46875q-0.0625 -0.296875 -0.09375 -0.609375q-0.25 0.265625 -0.5625 0.5q-0.3125 0.21875 -0.703125 0.390625q-0.375 0.171875 -0.8125 0.265625q-0.421875 0.109375 -0.890625 0.109375q-0.796875 0 -1.4375 -0.21875q-0.625 -0.234375 -1.0625 -0.625q-0.4375 -0.390625 -0.6875 -0.921875q-0.234375 -0.53125 -0.234375 -1.15625q0 -0.8125 0.3125 -1.421875q0.328125 -0.609375 0.921875 -1.015625q0.59375 -0.40625 1.421875 -0.59375q0.84375 -0.203125 1.875 -0.203125l1.828125 0l0 -0.78125q0 -0.453125 -0.171875 -0.796875q-0.15625 -0.359375 -0.453125 -0.609375q-0.296875 -0.25 -0.734375 -0.390625q-0.421875 -0.140625 -0.96875 -0.140625q-0.5 0 -0.90625 0.140625q-0.390625 0.125 -0.671875 0.34375q-0.265625 0.203125 -0.421875 0.484375q-0.140625 0.28125 -0.140625 0.59375l-1.6875 0q0 -0.53125 0.265625 -1.046875q0.28125 -0.53125 0.78125 -0.9375q0.5 -0.421875 1.21875 -0.671875q0.734375 -0.25 1.65625 -0.25q0.84375 0 1.5625 0.203125q0.71875 0.203125 1.234375 0.625q0.53125 0.40625 0.828125 1.03125q0.296875 0.609375 0.296875 1.4375l0 4.578125q0 0.5 0.09375 1.046875q0.09375 0.546875 0.25 0.96875l0 0.140625l-1.75 0zm-2.984375 -1.28125q0.5 0 0.921875 -0.125q0.4375 -0.140625 0.78125 -0.34375q0.34375 -0.203125 0.59375 -0.46875q0.265625 -0.28125 0.40625 -0.5625l0 -2.0l-1.5625 0q-1.46875 0 -2.296875 0.4375q-0.8125 0.4375 -0.8125 1.375q0 0.359375 0.125 0.671875q0.125 0.3125 0.359375 0.53125q0.25 0.21875 0.625 0.359375q0.375 0.125 0.859375 0.125zm14.258072 -1.328125q0 -0.3125 -0.125 -0.546875q-0.125 -0.234375 -0.40625 -0.4375q-0.28125 -0.203125 -0.75 -0.375q-0.453125 -0.171875 -1.140625 -0.296875q-0.859375 -0.1875 -1.5625 -0.421875q-0.6875 -0.25 -1.1875 -0.59375q-0.484375 -0.34375 -0.765625 -0.796875q-0.265625 -0.46875 -0.265625 -1.078125q0 -0.59375 0.28125 -1.109375q0.28125 -0.53125 0.78125 -0.921875q0.515625 -0.390625 1.21875 -0.609375q0.703125 -0.234375 1.5625 -0.234375q0.90625 0 1.625 0.234375q0.734375 0.234375 1.25 0.65625q0.515625 0.40625 0.78125 0.96875q0.28125 0.5625 0.28125 1.21875l-1.6875 0q0 -0.328125 -0.171875 -0.625q-0.15625 -0.3125 -0.453125 -0.546875q-0.28125 -0.234375 -0.703125 -0.375q-0.40625 -0.15625 -0.921875 -0.15625q-0.546875 0 -0.953125 0.125q-0.40625 0.109375 -0.671875 0.3125q-0.265625 0.203125 -0.40625 0.46875q-0.140625 0.265625 -0.140625 0.546875q0 0.28125 0.109375 0.515625q0.109375 0.234375 0.375 0.421875q0.28125 0.171875 0.734375 0.328125q0.453125 0.140625 1.140625 0.265625q0.90625 0.203125 1.625 0.453125q0.71875 0.25 1.203125 0.609375q0.5 0.34375 0.75 0.8125q0.265625 0.453125 0.265625 1.0625q0 0.65625 -0.296875 1.203125q-0.28125 0.53125 -0.8125 0.921875q-0.53125 0.375 -1.265625 0.59375q-0.734375 0.203125 -1.609375 0.203125q-1.015625 0 -1.796875 -0.265625q-0.78125 -0.28125 -1.328125 -0.71875q-0.53125 -0.4375 -0.828125 -1.015625q-0.28125 -0.59375 -0.28125 -1.21875l1.6875 0q0.03125 0.515625 0.265625 0.875q0.25 0.359375 0.609375 0.578125q0.359375 0.21875 0.796875 0.3125q0.4375 0.078125 0.875 0.078125q1.0625 0 1.671875 -0.390625q0.625 -0.390625 0.640625 -1.03125zm8.633072 -9.640625l0 2.390625l3.75 0l0 1.3125l-3.75 0l0 5.34375q0 0.578125 0.140625 0.953125q0.140625 0.375 0.390625 0.59375q0.265625 0.21875 0.59375 0.3125q0.34375 0.09375 0.71875 0.09375q0.265625 0 0.546875 -0.03125q0.296875 -0.03125 0.578125 -0.078125q0.28125 -0.046875 0.515625 -0.09375q0.25 -0.046875 0.40625 -0.09375l0.234375 1.203125q-0.21875 0.125 -0.515625 0.21875q-0.296875 0.09375 -0.65625 0.15625q-0.34375 0.078125 -0.75 0.109375q-0.390625 0.046875 -0.78125 0.046875q-0.65625 0 -1.234375 -0.1875q-0.5625 -0.1875 -0.984375 -0.59375q-0.421875 -0.40625 -0.671875 -1.046875q-0.234375 -0.640625 -0.234375 -1.5625l0 -5.34375l-2.578125 0l0 -1.3125l2.578125 0l0 -2.390625l1.703125 0zm11.554962 12.4375q-1.03125 0 -1.90625 -0.359375q-0.875 -0.359375 -1.5 -0.984375q-0.609375 -0.640625 -0.953125 -1.515625q-0.34375 -0.875 -0.34375 -1.90625l0 -0.390625q0 -1.1875 0.375 -2.125q0.390625 -0.953125 1.015625 -1.59375q0.640625 -0.65625 1.4375 -1.0q0.8125 -0.34375 1.65625 -0.34375q1.0625 0 1.859375 0.375q0.796875 0.359375 1.328125 1.015625q0.53125 0.640625 0.78125 1.53125q0.265625 0.875 0.265625 1.90625l0 0.75l-7.03125 0q0.015625 0.6875 0.25 1.28125q0.234375 0.578125 0.640625 1.03125q0.40625 0.4375 0.96875 0.703125q0.5625 0.25 1.25 0.25q0.90625 0 1.59375 -0.359375q0.703125 -0.375 1.171875 -0.96875l1.03125 0.796875q-0.25 0.375 -0.625 0.71875q-0.359375 0.328125 -0.84375 0.59375q-0.484375 0.265625 -1.09375 0.421875q-0.609375 0.171875 -1.328125 0.171875zm-0.21875 -8.84375q-0.515625 0 -0.96875 0.1875q-0.453125 0.1875 -0.8125 0.546875q-0.359375 0.359375 -0.625 0.890625q-0.25 0.515625 -0.34375 1.203125l5.296875 0l0 -0.125q-0.015625 -0.5 -0.1875 -0.984375q-0.15625 -0.484375 -0.46875 -0.859375q-0.296875 -0.390625 -0.765625 -0.625q-0.46875 -0.234375 -1.125 -0.234375zm13.523682 -1.375q0.234375 0 0.484375 0.015625q0.265625 0 0.484375 0.03125q0.234375 0.03125 0.421875 0.078125q0.203125 0.046875 0.34375 0.109375l-0.234375 1.640625q-0.484375 -0.109375 -0.9375 -0.15625q-0.4375 -0.046875 -0.921875 -0.046875q-1.1875 0 -1.921875 0.546875q-0.734375 0.53125 -1.078125 1.484375l0 6.328125l-1.6875 0l0 -9.859375l1.59375 0l0.09375 1.5625q0.59375 -0.796875 1.4375 -1.265625q0.84375 -0.46875 1.921875 -0.46875z" fill-rule="nonzero"/><path fill="#000000" fill-opacity="0.0" d="m522.01184 486.521l180.0315 0l0 43.874023l-180.0315 0z" fill-rule="evenodd"/><path stroke="#000000" stroke-width="1.0" stroke-linejoin="round" stroke-linecap="butt" d="m522.01184 486.521l180.0315 0l0 43.874023l-180.0315 0z" fill-rule="evenodd"/><path fill="#000000" d="m537.7432 513.441l0 -8.5468445l-2.703125 0l0 -1.3125l2.703125 0l0 -0.6875q0 -0.953125 0.28125 -1.65625q0.28125 -0.71875 0.78125 -1.203125q0.515625 -0.484375 1.21875 -0.734375q0.71875 -0.25 1.59375 -0.25q0.59375 0 1.15625 0.109375q0.578125 0.09375 1.171875 0.25l-0.1875 1.390625q-0.375 -0.125 -0.875 -0.21875q-0.5 -0.09375 -1.0625 -0.09375q-1.1875 0.015625 -1.78125 0.609375q-0.59375 0.578125 -0.59375 1.796875l0 0.6875l3.796875 0l0 1.3125l-3.796875 0l0 8.5468445l-1.703125 0zm13.048401 0.1875q-1.03125 0 -1.90625 -0.359375q-0.875 -0.359375 -1.5 -0.984375q-0.609375 -0.6405945 -0.953125 -1.5155945q-0.34375 -0.875 -0.34375 -1.90625l0 -0.390625q0 -1.1875 0.375 -2.125q0.390625 -0.953125 1.015625 -1.59375q0.640625 -0.65625 1.4375 -1.0q0.8125 -0.34375 1.65625 -0.34375q1.0625 0 1.859375 0.375q0.796875 0.359375 1.328125 1.015625q0.53125 0.640625 0.78125 1.53125q0.265625 0.875 0.265625 1.90625l0 0.75l-7.03125 0q0.015625 0.6875 0.25 1.28125q0.234375 0.578125 0.640625 1.03125q0.40625 0.4375 0.96875 0.7030945q0.5625 0.25 1.25 0.25q0.90625 0 1.59375 -0.35934448q0.703125 -0.375 1.171875 -0.96875l1.03125 0.796875q-0.25 0.37496948 -0.625 0.7187195q-0.359375 0.328125 -0.84375 0.59375q-0.484375 0.265625 -1.09375 0.421875q-0.609375 0.171875 -1.328125 0.171875zm-0.21875 -8.8437195q-0.515625 0 -0.96875 0.1875q-0.453125 0.1875 -0.8125 0.546875q-0.359375 0.359375 -0.625 0.890625q-0.25 0.515625 -0.34375 1.203125l5.296875 0l0 -0.125q-0.015625 -0.5 -0.1875 -0.984375q-0.15625 -0.484375 -0.46875 -0.859375q-0.296875 -0.390625 -0.765625 -0.625q-0.46875 -0.234375 -1.125 -0.234375zm13.539307 8.6562195q-0.09375 -0.1875 -0.15625 -0.46875q-0.0625 -0.296875 -0.09375 -0.609375q-0.25 0.265625 -0.5625 0.5q-0.3125 0.21875 -0.703125 0.390625q-0.375 0.171875 -0.8125 0.265625q-0.421875 0.109375 -0.890625 0.109375q-0.796875 0 -1.4375 -0.21875q-0.625 -0.234375 -1.0625 -0.625q-0.4375 -0.390625 -0.6875 -0.9218445q-0.234375 -0.53125 -0.234375 -1.15625q0 -0.8125 0.3125 -1.421875q0.328125 -0.609375 0.921875 -1.015625q0.59375 -0.40625 1.421875 -0.59375q0.84375 -0.203125 1.875 -0.203125l1.828125 0l0 -0.78125q0 -0.453125 -0.171875 -0.796875q-0.15625 -0.359375 -0.453125 -0.609375q-0.296875 -0.25 -0.734375 -0.390625q-0.421875 -0.140625 -0.96875 -0.140625q-0.5 0 -0.90625 0.140625q-0.390625 0.125 -0.671875 0.34375q-0.265625 0.203125 -0.421875 0.484375q-0.140625 0.28125 -0.140625 0.59375l-1.6875 0q0 -0.53125 0.265625 -1.046875q0.28125 -0.53125 0.78125 -0.9375q0.5 -0.421875 1.21875 -0.671875q0.734375 -0.25 1.65625 -0.25q0.84375 0 1.5625 0.203125q0.71875 0.203125 1.234375 0.625q0.53125 0.40625 0.828125 1.03125q0.296875 0.609375 0.296875 1.4375l0 4.578125q0 0.5 0.09375 1.0468445q0.09375 0.546875 0.25 0.96875l0 0.140625l-1.75 0zm-2.984375 -1.28125q0.5 0 0.921875 -0.125q0.4375 -0.14059448 0.78125 -0.34371948q0.34375 -0.203125 0.59375 -0.46875q0.265625 -0.28125 0.40625 -0.5625l0 -2.0l-1.5625 0q-1.46875 0 -2.296875 0.4375q-0.8125 0.4375 -0.8125 1.375q0 0.359375 0.125 0.671875q0.125 0.3125 0.359375 0.53125q0.25 0.21875 0.625 0.35934448q0.375 0.125 0.859375 0.125zm11.695618 -10.9687195l0 2.390625l3.75 0l0 1.3125l-3.75 0l0 5.34375q0 0.578125 0.140625 0.953125q0.140625 0.375 0.390625 0.59375q0.265625 0.21871948 0.59375 0.31246948q0.34375 0.09375 0.71875 0.09375q0.265625 0 0.546875 -0.03125q0.296875 -0.03125 0.578125 -0.078125q0.28125 -0.046875 0.515625 -0.09371948q0.25 -0.046875 0.40625 -0.09375l0.234375 1.2030945q-0.21875 0.125 -0.515625 0.21875q-0.296875 0.09375 -0.65625 0.15625q-0.34375 0.078125 -0.75 0.109375q-0.390625 0.046875 -0.78125 0.046875q-0.65625 0 -1.234375 -0.1875q-0.5625 -0.1875 -0.984375 -0.59375q-0.421875 -0.40625 -0.671875 -1.0468445q-0.234375 -0.640625 -0.234375 -1.5625l0 -5.34375l-2.578125 0l0 -1.3125l2.578125 0l0 -2.390625l1.703125 0zm13.601807 10.8905945q-0.5 0.734375 -1.234375 1.140625q-0.734375 0.40625 -1.703125 0.40625q-0.78125 0 -1.40625 -0.234375q-0.625 -0.25 -1.078125 -0.765625q-0.4375 -0.515625 -0.6875 -1.2968445q-0.234375 -0.78125 -0.234375 -1.890625l0 -5.859375l1.6875 0l0 5.875q0 0.8125 0.125 1.34375q0.125 0.515625 0.375 0.828125q0.265625 0.3125 0.625 0.45309448q0.375 0.125 0.859375 0.125q1.03125 0 1.65625 -0.42184448q0.640625 -0.421875 0.953125 -1.125l0 -7.078125l1.6875 0l0 9.8593445l-1.53125 0l-0.09375 -1.359375zm11.258057 -8.6718445q0.234375 0 0.484375 0.015625q0.265625 0 0.484375 0.03125q0.234375 0.03125 0.421875 0.078125q0.203125 0.046875 0.34375 0.109375l-0.234375 1.640625q-0.484375 -0.109375 -0.9375 -0.15625q-0.4375 -0.046875 -0.921875 -0.046875q-1.1875 0 -1.921875 0.546875q-0.734375 0.53125 -1.078125 1.484375l0 6.3280945l-1.6875 0l0 -9.8593445l1.59375 0l0.09375 1.5625q0.59375 -0.796875 1.4375 -1.265625q0.84375 -0.46875 1.921875 -0.46875zm9.086182 10.2187195q-1.03125 0 -1.90625 -0.359375q-0.875 -0.359375 -1.5 -0.984375q-0.609375 -0.6405945 -0.953125 -1.5155945q-0.34375 -0.875 -0.34375 -1.90625l0 -0.390625q0 -1.1875 0.375 -2.125q0.390625 -0.953125 1.015625 -1.59375q0.640625 -0.65625 1.4375 -1.0q0.8125 -0.34375 1.65625 -0.34375q1.0625 0 1.859375 0.375q0.796875 0.359375 1.328125 1.015625q0.53125 0.640625 0.78125 1.53125q0.265625 0.875 0.265625 1.90625l0 0.75l-7.03125 0q0.015625 0.6875 0.25 1.28125q0.234375 0.578125 0.640625 1.03125q0.40625 0.4375 0.96875 0.7030945q0.5625 0.25 1.25 0.25q0.90625 0 1.59375 -0.35934448q0.703125 -0.375 1.171875 -0.96875l1.03125 0.796875q-0.25 0.37496948 -0.625 0.7187195q-0.359375 0.328125 -0.84375 0.59375q-0.484375 0.265625 -1.09375 0.421875q-0.609375 0.171875 -1.328125 0.171875zm-0.21875 -8.8437195q-0.515625 0 -0.96875 0.1875q-0.453125 0.1875 -0.8125 0.546875q-0.359375 0.359375 -0.625 0.890625q-0.25 0.515625 -0.34375 1.203125l5.296875 0l0 -0.125q-0.015625 -0.5 -0.1875 -0.984375q-0.15625 -0.484375 -0.46875 -0.859375q-0.296875 -0.390625 -0.765625 -0.625q-0.46875 -0.234375 -1.125 -0.234375zm14.429993 3.546875l-6.96875 0l0 -1.390625l6.96875 0l0 1.390625zm12.189026 0.296875q0 1.046875 -0.265625 1.96875q-0.25 0.90625 -0.75 1.5937195q-0.484375 0.671875 -1.203125 1.0625q-0.71875 0.375 -1.65625 0.375q-0.953125 0 -1.65625 -0.328125q-0.6875 -0.34375 -1.1875 -0.984375l-0.078125 1.125l-1.546875 0l0 -13.9999695l1.6875 0l0 5.203125q0.484375 -0.609375 1.15625 -0.921875q0.6875 -0.3125 1.609375 -0.3125q0.9375 0 1.65625 0.375q0.734375 0.359375 1.21875 1.03125q0.5 0.65625 0.75 1.59375q0.265625 0.921875 0.265625 2.015625l0 0.203125zm-1.6875 -0.203125q0 -0.71875 -0.140625 -1.359375q-0.140625 -0.65625 -0.453125 -1.15625q-0.3125 -0.5 -0.8125 -0.78125q-0.5 -0.296875 -1.21875 -0.296875q-0.4375 0 -0.8125 0.125q-0.359375 0.109375 -0.65625 0.3125q-0.28125 0.203125 -0.5 0.484375q-0.21875 0.265625 -0.375 0.59375l0 4.3125q0.15625 0.328125 0.375 0.609375q0.234375 0.28125 0.515625 0.5q0.296875 0.203125 0.65625 0.31246948q0.375 0.109375 0.8125 0.109375q0.6875 0 1.1875 -0.28121948q0.5 -0.296875 0.8125 -0.78125q0.3125 -0.5 0.453125 -1.140625q0.15625 -0.640625 0.15625 -1.359375l0 -0.203125zm10.992432 -5.015625q0.234375 0 0.484375 0.015625q0.265625 0 0.484375 0.03125q0.234375 0.03125 0.421875 0.078125q0.203125 0.046875 0.34375 0.109375l-0.234375 1.640625q-0.484375 -0.109375 -0.9375 -0.15625q-0.4375 -0.046875 -0.921875 -0.046875q-1.1875 0 -1.921875 0.546875q-0.734375 0.53125 -1.078125 1.484375l0 6.3280945l-1.6875 0l0 -9.8593445l1.59375 0l0.09375 1.5625q0.59375 -0.796875 1.4375 -1.265625q0.84375 -0.46875 1.921875 -0.46875zm11.211243 10.0312195q-0.09375 -0.1875 -0.15625 -0.46875q-0.0625 -0.296875 -0.09375 -0.609375q-0.25 0.265625 -0.5625 0.5q-0.3125 0.21875 -0.703125 0.390625q-0.375 0.171875 -0.8125 0.265625q-0.421875 0.109375 -0.890625 0.109375q-0.796875 0 -1.4375 -0.21875q-0.625 -0.234375 -1.0625 -0.625q-0.4375 -0.390625 -0.6875 -0.9218445q-0.234375 -0.53125 -0.234375 -1.15625q0 -0.8125 0.3125 -1.421875q0.328125 -0.609375 0.921875 -1.015625q0.59375 -0.40625 1.421875 -0.59375q0.84375 -0.203125 1.875 -0.203125l1.828125 0l0 -0.78125q0 -0.453125 -0.171875 -0.796875q-0.15625 -0.359375 -0.453125 -0.609375q-0.296875 -0.25 -0.734375 -0.390625q-0.421875 -0.140625 -0.96875 -0.140625q-0.5 0 -0.90625 0.140625q-0.390625 0.125 -0.671875 0.34375q-0.265625 0.203125 -0.421875 0.484375q-0.140625 0.28125 -0.140625 0.59375l-1.6875 0q0 -0.53125 0.265625 -1.046875q0.28125 -0.53125 0.78125 -0.9375q0.5 -0.421875 1.21875 -0.671875q0.734375 -0.25 1.65625 -0.25q0.84375 0 1.5625 0.203125q0.71875 0.203125 1.234375 0.625q0.53125 0.40625 0.828125 1.03125q0.296875 0.609375 0.296875 1.4375l0 4.578125q0 0.5 0.09375 1.0468445q0.09375 0.546875 0.25 0.96875l0 0.140625l-1.75 0zm-2.984375 -1.28125q0.5 0 0.921875 -0.125q0.4375 -0.14059448 0.78125 -0.34371948q0.34375 -0.203125 0.59375 -0.46875q0.265625 -0.28125 0.40625 -0.5625l0 -2.0l-1.5625 0q-1.46875 0 -2.296875 0.4375q-0.8125 0.4375 -0.8125 1.375q0 0.359375 0.125 0.671875q0.125 0.3125 0.359375 0.53125q0.25 0.21875 0.625 0.35934448q0.375 0.125 0.859375 0.125zm9.211182 -8.5780945l0.125 1.453125q0.53125 -0.765625 1.3125 -1.1875q0.78125 -0.4375 1.75 -0.4375q0.78125 0 1.40625 0.21875q0.640625 0.21875 1.078125 0.6875q0.453125 0.453125 0.6875 1.171875q0.25 0.71875 0.25 1.6875l0 6.2655945l-1.6875 0l0 -6.2187195q0 -0.65625 -0.15625 -1.109375q-0.140625 -0.453125 -0.421875 -0.734375q-0.28125 -0.296875 -0.703125 -0.421875q-0.40625 -0.125 -0.953125 -0.125q-0.84375 0 -1.484375 0.421875q-0.640625 0.421875 -1.03125 1.125l0 7.0624695l-1.6875 0l0 -9.8593445l1.515625 0zm13.883057 8.6718445q0.453125 0 0.890625 -0.140625q0.4375 -0.14059448 0.765625 -0.40621948q0.34375 -0.265625 0.546875 -0.609375q0.203125 -0.359375 0.21875 -0.765625l1.59375 0q-0.015625 0.65625 -0.34375 1.265625q-0.328125 0.5937195 -0.890625 1.0468445q-0.5625 0.4375 -1.28125 0.71875q-0.71875 0.265625 -1.5 0.265625q-1.109375 0 -1.953125 -0.40625q-0.84375 -0.40625 -1.40625 -1.078125q-0.546875 -0.6874695 -0.84375 -1.5624695q-0.28125 -0.890625 -0.28125 -1.875l0 -0.390625q0 -0.96875 0.28125 -1.859375q0.296875 -0.890625 0.84375 -1.5625q0.5625 -0.6875 1.40625 -1.078125q0.84375 -0.40625 1.953125 -0.40625q0.875 0 1.609375 0.28125q0.734375 0.265625 1.265625 0.75q0.53125 0.46875 0.828125 1.125q0.3125 0.65625 0.3125 1.40625l-1.59375 0q-0.015625 -0.453125 -0.203125 -0.84375q-0.1875 -0.390625 -0.515625 -0.6875q-0.3125 -0.3125 -0.75 -0.484375q-0.4375 -0.171875 -0.953125 -0.171875q-0.78125 0 -1.3125 0.3125q-0.53125 0.3125 -0.859375 0.828125q-0.328125 0.5 -0.46875 1.140625q-0.140625 0.625 -0.140625 1.25l0 0.390625q0 0.640625 0.140625 1.28125q0.140625 0.625 0.453125 1.140625q0.328125 0.5 0.859375 0.8125q0.53125 0.31246948 1.328125 0.31246948zm8.679932 -7.2030945q0.53125 -0.78125 1.296875 -1.203125q0.78125 -0.4375 1.75 -0.4375q0.78125 0 1.40625 0.21875q0.640625 0.21875 1.078125 0.703125q0.453125 0.46875 0.6875 1.1875q0.25 0.71875 0.25 1.71875l0 6.2030945l-1.6875 0l0 -6.2187195q0 -1.21875 -0.578125 -1.8125q-0.578125 -0.59375 -1.65625 -0.578125q-0.8125 0 -1.46875 0.40625q-0.65625 0.390625 -1.078125 1.046875l0 7.1562195l-1.6875 0l0 -13.9999695l1.6875 0l0 5.609375z" fill-rule="nonzero"/><path fill="#000000" fill-opacity="0.0" d="m522.01184 508.458l-41.57483 0" fill-rule="evenodd"/><path stroke="#000000" stroke-width="1.0" stroke-linejoin="round" stroke-linecap="butt" d="m522.01184 508.458l-35.57483 0" fill-rule="evenodd"/><path fill="#000000" stroke="#000000" stroke-width="1.0" stroke-linecap="butt" d="m486.437 506.80627l-4.5381165 1.6517334l4.5381165 1.6517334z" fill-rule="evenodd"/><path fill="#000000" fill-opacity="0.0" d="m743.6273 486.5223l89.66925 0l0 43.873993l-89.66925 0z" fill-rule="evenodd"/><path stroke="#000000" stroke-width="1.0" stroke-linejoin="round" stroke-linecap="butt" d="m743.6273 486.5223l89.66925 0l0 43.873993l-89.66925 0z" fill-rule="evenodd"/><path fill="#000000" d="m775.97705 513.4423l-1.59375 0l0 -6.125l-5.4375 0l0 6.125l-1.59375 0l0 -13.265625l1.59375 0l0 5.703125l5.4375 0l0 -5.703125l1.59375 0l0 13.265625zm10.164307 -6.125l-5.53125 0l0 4.6875l6.453125 0l0 1.4375l-8.140625 0l0 -13.265625l8.0625 0l0 1.4375l-6.375 0l0 4.265625l5.53125 0l0 1.4375zm10.242432 2.6875l-4.4375 0l-1.0625 3.4375l-1.6875 0l4.28125 -13.265625l1.421875 0l4.203125 13.265625l-1.671875 0l-1.046875 -3.4375zm-3.984375 -1.46875l3.53125 0l-1.75 -5.75l-1.78125 5.75zm8.664368 4.90625l0 -13.265625l3.078125 0q1.375 0.015625 2.46875 0.46875q1.09375 0.453125 1.84375 1.265625q0.75 0.796875 1.140625 1.921875q0.40625 1.125 0.40625 2.5l0 0.96875q0 1.375 -0.40625 2.5q-0.390625 1.125 -1.140625 1.9375q-0.75 0.796875 -1.84375 1.25q-1.09375 0.4375 -2.46875 0.453125l-3.078125 0zm1.71875 -11.875l0 10.5l1.359375 0q1.078125 -0.015625 1.859375 -0.375q0.78125 -0.375 1.296875 -1.0q0.515625 -0.640625 0.765625 -1.5q0.25 -0.875 0.25 -1.890625l0 -0.984375q0 -1.015625 -0.265625 -1.875q-0.25 -0.859375 -0.765625 -1.484375q-0.5 -0.640625 -1.28125 -1.0q-0.78125 -0.375 -1.859375 -0.390625l-1.359375 0z" fill-rule="nonzero"/><path fill="#000000" fill-opacity="0.0" d="m743.6273 508.45932l-41.57483 0" fill-rule="evenodd"/><path stroke="#000000" stroke-width="1.0" stroke-linejoin="round" stroke-linecap="butt" d="m743.6273 508.45932l-35.57483 0" fill-rule="evenodd"/><path fill="#000000" stroke="#000000" stroke-width="1.0" stroke-linecap="butt" d="m708.0525 506.8076l-4.538086 1.6517334l4.538086 1.6517334z" fill-rule="evenodd"/><path fill="#000000" fill-opacity="0.0" d="m221.1181 437.17584l73.13388 0l0 40.0l-73.13388 0z" fill-rule="evenodd"/><path fill="#000000" d="m252.22888 464.09586l2.78125 -13.359375l9.90625 0l-0.46875 2.234375l-7.140625 0l-0.640625 3.03125l6.90625 0l-0.453125 2.234375l-6.921875 0l-0.828125 3.625l7.765625 0l-0.46875 2.234375l-10.4375 0z" fill-rule="nonzero"/><path fill="#000000" fill-opacity="0.0" d="m314.20734 437.17584l73.13388 0l0 40.0l-73.13388 0z" fill-rule="evenodd"/><path fill="#000000" d="m333.70483 464.09586l2.796875 -13.359375l3.59375 0q1.5 0 1.921875 0.046875q0.828125 0.078125 1.484375 0.34375q0.65625 0.25 1.1875 0.71875q0.53125 0.453125 0.90625 1.109375q0.390625 0.640625 0.59375 1.484375q0.21875 0.84375 0.21875 1.84375q0 2.15625 -0.828125 3.828125q-0.8125 1.671875 -2.0625 2.65625q-0.953125 0.765625 -2.46875 1.125q-0.859375 0.203125 -2.640625 0.203125l-4.703125 0zm3.203125 -2.15625l1.390625 0q1.515625 0 2.1875 -0.171875q0.671875 -0.1875 1.25 -0.703125q0.796875 -0.734375 1.359375 -1.96875q0.5625 -1.234375 0.5625 -2.890625q0 -1.421875 -0.46875 -2.140625q-0.453125 -0.71875 -1.125 -0.953125q-0.484375 -0.171875 -1.6875 -0.171875l-1.59375 0l-1.875 9.0zm14.457336 0.234375l0 -3.46875l-3.5 0l0 -2.390625l3.5 0l0 -3.484375l2.328125 0l0 3.484375l3.515625 0l0 2.390625l-3.515625 0l0 3.46875l-2.328125 0zm6.6293335 1.921875l2.796875 -13.359375l9.34375 0l-0.484375 2.234375l-6.59375 0l-0.671875 3.203125l6.46875 0l-0.46875 2.234375l-6.453125 0l-1.1875 5.6875l-2.75 0z" fill-rule="nonzero"/><path fill="#000000" fill-opacity="0.0" d="m412.42783 437.17584l73.13385 0l0 40.0l-73.13385 0z" fill-rule="evenodd"/><path fill="#000000" d="m452.69577 459.28336l2.765625 0.421875q-0.8125 2.25 -2.4375 3.4375q-1.609375 1.1875 -3.78125 1.1875q-2.453125 0 -3.84375 -1.46875q-1.375 -1.484375 -1.375 -4.28125q0 -2.28125 0.921875 -4.171875q0.921875 -1.890625 2.5625 -2.890625q1.640625 -1.0 3.578125 -1.0q2.171875 0 3.5 1.15625q1.34375 1.15625 1.578125 3.171875l-2.625 0.25q-0.21875 -1.171875 -0.84375 -1.6875q-0.625 -0.53125 -1.671875 -0.53125q-1.125 0 -2.125 0.703125q-0.984375 0.6875 -1.578125 2.15625q-0.59375 1.46875 -0.59375 2.9375q0 1.609375 0.765625 2.484375q0.78125 0.875 1.921875 0.875q1.0625 0 1.953125 -0.6875q0.890625 -0.703125 1.328125 -2.0625z" fill-rule="nonzero"/></g></svg>