<svg version="1.1" viewBox="0.0 0.0 1037.748031496063 221.3044619422572" fill="none" stroke="none" stroke-linecap="square" stroke-miterlimit="10" xmlns:xlink="http://www.w3.org/1999/xlink" xmlns="http://www.w3.org/2000/svg"><clipPath id="p.0"><path d="m0 0l1037.748 0l0 221.30446l-1037.748 0l0 -221.30446z" clip-rule="nonzero"/></clipPath><g clip-path="url(#p.0)"><path fill="#000000" fill-opacity="0.0" d="m0 0l1037.748 0l0 221.30446l-1037.748 0z" fill-rule="evenodd"/><path fill="#ffffff" d="m94.68372 -321.1916l0 0c0 -18.760284 15.222321 -33.968506 34.000008 -33.968506l0 0c9.017349 0 17.66539 3.5787964 24.041626 9.949127c6.376236 6.370331 9.958374 15.010345 9.958374 24.019379l0 0c0 18.760284 -15.222321 33.968506 -34.0 33.968506l0 0c-18.777687 0 -34.000008 -15.208221 -34.000008 -33.968506z" fill-rule="evenodd"/><path stroke="#000000" stroke-width="1.0" stroke-linejoin="round" stroke-linecap="butt" d="m94.68372 -321.1916l0 0c0 -18.760284 15.222321 -33.968506 34.000008 -33.968506l0 0c9.017349 0 17.66539 3.5787964 24.041626 9.949127c6.376236 6.370331 9.958374 15.010345 9.958374 24.019379l0 0c0 18.760284 -15.222321 33.968506 -34.0 33.968506l0 0c-18.777687 0 -34.000008 -15.208221 -34.000008 -33.968506z" fill-rule="evenodd"/><path fill="#000000" d="m122.43069 -314.2716l5.125 -13.359375l1.9062576 0l5.46875 13.359375l-2.015625 0l-1.546875 -4.046875l-5.5937576 0l-1.46875 4.046875l-1.875 0zm3.859375 -5.484375l4.5312576 0l-1.40625 -3.703125q-0.625 -1.6875 -0.9375 -2.765625q-0.265625 1.28125 -0.7187576 2.546875l-1.46875 3.921875z" fill-rule="nonzero"/><path fill="#ffffff" d="m190.33858 -321.1916l0 0c0 -18.760284 15.222321 -33.968506 34.0 -33.968506l0 0c9.0173645 0 17.665405 3.5787964 24.041641 9.949127c6.376236 6.370331 9.958374 15.010345 9.958374 24.019379l0 0c0 18.760284 -15.222336 33.968506 -34.000015 33.968506l0 0c-18.77768 0 -34.0 -15.208221 -34.0 -33.968506z" fill-rule="evenodd"/><path stroke="#000000" stroke-width="1.0" stroke-linejoin="round" stroke-linecap="butt" d="m190.33858 -321.1916l0 0c0 -18.760284 15.222321 -33.968506 34.0 -33.968506l0 0c9.0173645 0 17.665405 3.5787964 24.041641 9.949127c6.376236 6.370331 9.958374 15.010345 9.958374 24.019379l0 0c0 18.760284 -15.222336 33.968506 -34.000015 33.968506l0 0c-18.77768 0 -34.0 -15.208221 -34.0 -33.968506z" fill-rule="evenodd"/><path fill="#000000" d="m219.47617 -314.2716l0 -13.359375l5.015625 0q1.53125 0 2.453125 0.40625q0.921875 0.40625 1.4375 1.25q0.53125 0.84375 0.53125 1.765625q0 0.859375 -0.46875 1.625q-0.453125 0.75 -1.390625 1.203125q1.203125 0.359375 1.859375 1.21875q0.65625 0.859375 0.65625 2.015625q0 0.9375 -0.40625 1.75q-0.390625 0.796875 -0.984375 1.234375q-0.578125 0.4375 -1.453125 0.671875q-0.875 0.21875 -2.15625 0.21875l-5.09375 0zm1.78125 -7.75l2.875 0q1.1875 0 1.6875 -0.140625q0.671875 -0.203125 1.015625 -0.671875q0.34375 -0.46875 0.34375 -1.171875q0 -0.65625 -0.328125 -1.15625q-0.3125 -0.515625 -0.90625 -0.703125q-0.59375 -0.1875 -2.03125 -0.1875l-2.65625 0l0 4.03125zm0 6.171875l3.3125 0q0.859375 0 1.203125 -0.0625q0.609375 -0.109375 1.015625 -0.359375q0.421875 -0.265625 0.6875 -0.75q0.265625 -0.484375 0.265625 -1.125q0 -0.75 -0.390625 -1.296875q-0.375 -0.546875 -1.0625 -0.765625q-0.671875 -0.234375 -1.953125 -0.234375l-3.078125 0l0 4.59375z" fill-rule="nonzero"/><path fill="#ffffff" d="m285.99344 -321.1916l0 0c0 -18.760284 15.222321 -33.968506 34.0 -33.968506l0 0c9.0173645 0 17.665405 3.5787964 24.041626 9.949127c6.376251 6.370331 9.958374 15.010345 9.958374 24.019379l0 0c0 18.760284 -15.222321 33.968506 -34.0 33.968506l0 0c-18.77768 0 -34.0 -15.208221 -34.0 -33.968506z" fill-rule="evenodd"/><path stroke="#000000" stroke-width="1.0" stroke-linejoin="round" stroke-linecap="butt" d="m285.99344 -321.1916l0 0c0 -18.760284 15.222321 -33.968506 34.0 -33.968506l0 0c9.0173645 0 17.665405 3.5787964 24.041626 9.949127c6.376251 6.370331 9.958374 15.010345 9.958374 24.019379l0 0c0 18.760284 -15.222321 33.968506 -34.0 33.968506l0 0c-18.77768 0 -34.0 -15.208221 -34.0 -33.968506z" fill-rule="evenodd"/><path fill="#000000" d="m324.2257 -318.9591l1.765625 0.453125q-0.5625 2.171875 -2.0 3.328125q-1.4375 1.140625 -3.53125 1.140625q-2.15625 0 -3.515625 -0.875q-1.34375 -0.890625 -2.0625 -2.546875q-0.703125 -1.671875 -0.703125 -3.59375q0 -2.078125 0.796875 -3.625q0.796875 -1.5625 2.265625 -2.359375q1.484375 -0.8125 3.25 -0.8125q2.0 0 3.359375 1.015625q1.375 1.015625 1.90625 2.875l-1.734375 0.40625q-0.46875 -1.453125 -1.359375 -2.109375q-0.875 -0.671875 -2.203125 -0.671875q-1.546875 0 -2.578125 0.734375q-1.03125 0.734375 -1.453125 1.984375q-0.421875 1.234375 -0.421875 2.5625q0 1.703125 0.5 2.96875q0.5 1.265625 1.546875 1.90625q1.046875 0.625 2.265625 0.625q1.484375 0 2.515625 -0.859375q1.03125 -0.859375 1.390625 -2.546875z" fill-rule="nonzero"/><path fill="#ffffff" d="m381.6483 -321.1916l0 0c0 -18.760284 15.222321 -33.968506 34.0 -33.968506l0 0c9.0173645 0 17.665405 3.5787964 24.041626 9.949127c6.376251 6.370331 9.958374 15.010345 9.958374 24.019379l0 0c0 18.760284 -15.222321 33.968506 -34.0 33.968506l0 0c-18.77768 0 -34.0 -15.208221 -34.0 -33.968506z" fill-rule="evenodd"/><path stroke="#000000" stroke-width="1.0" stroke-linejoin="round" stroke-linecap="butt" d="m381.6483 -321.1916l0 0c0 -18.760284 15.222321 -33.968506 34.0 -33.968506l0 0c9.0173645 0 17.665405 3.5787964 24.041626 9.949127c6.376251 6.370331 9.958374 15.010345 9.958374 24.019379l0 0c0 18.760284 -15.222321 33.968506 -34.0 33.968506l0 0c-18.77768 0 -34.0 -15.208221 -34.0 -33.968506z" fill-rule="evenodd"/><path fill="#000000" d="m410.34933 -314.2716l0 -13.359375l4.609375 0q1.546875 0 2.375 0.203125q1.140625 0.25 1.953125 0.953125q1.0625 0.890625 1.578125 2.28125q0.53125 1.390625 0.53125 3.171875q0 1.515625 -0.359375 2.703125q-0.359375 1.171875 -0.921875 1.9375q-0.546875 0.765625 -1.203125 1.21875q-0.65625 0.4375 -1.59375 0.671875q-0.9375 0.21875 -2.140625 0.21875l-4.828125 0zm1.765625 -1.578125l2.859375 0q1.3125 0 2.0625 -0.234375q0.75 -0.25 1.203125 -0.703125q0.625 -0.625 0.96875 -1.6875q0.359375 -1.0625 0.359375 -2.578125q0 -2.09375 -0.6875 -3.21875q-0.6875 -1.125 -1.671875 -1.5q-0.703125 -0.28125 -2.28125 -0.28125l-2.8125 0l0 10.203125z" fill-rule="nonzero"/><path fill="#ffffff" d="m477.30316 -321.1916l0 0c0 -18.760284 15.222321 -33.968506 34.0 -33.968506l0 0c9.017334 0 17.665405 3.5787964 24.041626 9.949127c6.3762207 6.370331 9.958374 15.010345 9.958374 24.019379l0 0c0 18.760284 -15.222351 33.968506 -34.0 33.968506l0 0c-18.77768 0 -34.0 -15.208221 -34.0 -33.968506z" fill-rule="evenodd"/><path stroke="#000000" stroke-width="1.0" stroke-linejoin="round" stroke-linecap="butt" d="m477.30316 -321.1916l0 0c0 -18.760284 15.222321 -33.968506 34.0 -33.968506l0 0c9.017334 0 17.665405 3.5787964 24.041626 9.949127c6.3762207 6.370331 9.958374 15.010345 9.958374 24.019379l0 0c0 18.760284 -15.222351 33.968506 -34.0 33.968506l0 0c-18.77768 0 -34.0 -15.208221 -34.0 -33.968506z" fill-rule="evenodd"/><path fill="#000000" d="m506.5501 -314.2716l0 -13.359375l9.65625 0l0 1.578125l-7.875 0l0 4.09375l7.375 0l0 1.5625l-7.375 0l0 4.546875l8.1875 0l0 1.578125l-9.96875 0z" fill-rule="nonzero"/><path fill="#ffffff" d="m572.958 -321.1916l0 0c0 -18.760284 15.22229 -33.968506 34.0 -33.968506l0 0c9.017334 0 17.665405 3.5787964 24.041626 9.949127c6.3762207 6.370331 9.958374 15.010345 9.958374 24.019379l0 0c0 18.760284 -15.222351 33.968506 -34.0 33.968506l0 0c-18.77771 0 -34.0 -15.208221 -34.0 -33.968506z" fill-rule="evenodd"/><path stroke="#000000" stroke-width="1.0" stroke-linejoin="round" stroke-linecap="butt" d="m572.958 -321.1916l0 0c0 -18.760284 15.22229 -33.968506 34.0 -33.968506l0 0c9.017334 0 17.665405 3.5787964 24.041626 9.949127c6.3762207 6.370331 9.958374 15.010345 9.958374 24.019379l0 0c0 18.760284 -15.222351 33.968506 -34.0 33.968506l0 0c-18.77771 0 -34.0 -15.208221 -34.0 -33.968506z" fill-rule="evenodd"/><path fill="#000000" d="m602.79126 -314.2716l0 -13.359375l9.015625 0l0 1.578125l-7.25 0l0 4.140625l6.265625 0l0 1.578125l-6.265625 0l0 6.0625l-1.765625 0z" fill-rule="nonzero"/><path fill="#ffffff" d="m668.61285 -321.1916l0 0c0 -18.760284 15.222351 -33.968506 34.0 -33.968506l0 0c9.017395 0 17.665405 3.5787964 24.041626 9.949127c6.3762207 6.370331 9.958374 15.010345 9.958374 24.019379l0 0c0 18.760284 -15.22229 33.968506 -34.0 33.968506l0 0c-18.777649 0 -34.0 -15.208221 -34.0 -33.968506z" fill-rule="evenodd"/><path stroke="#000000" stroke-width="1.0" stroke-linejoin="round" stroke-linecap="butt" d="m668.61285 -321.1916l0 0c0 -18.760284 15.222351 -33.968506 34.0 -33.968506l0 0c9.017395 0 17.665405 3.5787964 24.041626 9.949127c6.3762207 6.370331 9.958374 15.010345 9.958374 24.019379l0 0c0 18.760284 -15.22229 33.968506 -34.0 33.968506l0 0c-18.777649 0 -34.0 -15.208221 -34.0 -33.968506z" fill-rule="evenodd"/><path fill="#000000" d="m703.0446 -319.50598l0 -1.578125l5.65625 0l0 4.953125q-1.296875 1.046875 -2.6875 1.578125q-1.375 0.515625 -2.84375 0.515625q-1.96875 0 -3.578125 -0.84375q-1.609375 -0.84375 -2.421875 -2.4375q-0.8125 -1.59375 -0.8125 -3.5625q0 -1.953125 0.8125 -3.640625q0.8125 -1.6875 2.34375 -2.5q1.53125 -0.828125 3.515625 -0.828125q1.453125 0 2.625 0.46875q1.171875 0.46875 1.828125 1.3125q0.671875 0.828125 1.015625 2.171875l-1.59375 0.4375q-0.296875 -1.015625 -0.75 -1.59375q-0.4375 -0.59375 -1.265625 -0.9375q-0.828125 -0.34375 -1.84375 -0.34375q-1.203125 0 -2.09375 0.375q-0.890625 0.359375 -1.4375 0.96875q-0.53125 0.59375 -0.828125 1.3125q-0.515625 1.234375 -0.515625 2.6875q0 1.78125 0.609375 2.984375q0.625 1.203125 1.796875 1.796875q1.171875 0.578125 2.5 0.578125q1.140625 0 2.234375 -0.4375q1.09375 -0.453125 1.65625 -0.953125l0 -2.484375l-3.921875 0z" fill-rule="nonzero"/><path fill="#000000" fill-opacity="0.0" d="m162.68373 -321.1916l27.653534 0" fill-rule="evenodd"/><path stroke="#000000" stroke-width="1.0" stroke-linejoin="round" stroke-linecap="butt" d="m162.68373 -321.1916l21.653534 0" fill-rule="evenodd"/><path fill="#000000" stroke="#000000" stroke-width="1.0" stroke-linecap="butt" d="m184.33727 -319.53986l4.538101 -1.6517334l-4.538101 -1.6517334z" fill-rule="evenodd"/><path fill="#000000" fill-opacity="0.0" d="m258.3386 -321.1916l27.653534 0" fill-rule="evenodd"/><path stroke="#000000" stroke-width="1.0" stroke-linejoin="round" stroke-linecap="butt" d="m258.3386 -321.1916l21.653534 0" fill-rule="evenodd"/><path fill="#000000" stroke="#000000" stroke-width="1.0" stroke-linecap="butt" d="m279.99213 -319.53986l4.538086 -1.6517334l-4.538086 -1.6517334z" fill-rule="evenodd"/><path fill="#000000" fill-opacity="0.0" d="m353.99344 -321.1916l27.653534 0" fill-rule="evenodd"/><path stroke="#000000" stroke-width="1.0" stroke-linejoin="round" stroke-linecap="butt" d="m353.99344 -321.1916l21.653534 0" fill-rule="evenodd"/><path fill="#000000" stroke="#000000" stroke-width="1.0" stroke-linecap="butt" d="m375.64697 -319.53986l4.5381165 -1.6517334l-4.5381165 -1.6517334z" fill-rule="evenodd"/><path fill="#000000" fill-opacity="0.0" d="m449.6483 -321.1916l27.653564 0" fill-rule="evenodd"/><path stroke="#000000" stroke-width="1.0" stroke-linejoin="round" stroke-linecap="butt" d="m449.6483 -321.1916l21.653564 0" fill-rule="evenodd"/><path fill="#000000" stroke="#000000" stroke-width="1.0" stroke-linecap="butt" d="m471.30185 -319.53986l4.538086 -1.6517334l-4.538086 -1.6517334z" fill-rule="evenodd"/><path fill="#000000" fill-opacity="0.0" d="m545.30316 -321.1916l27.653503 0" fill-rule="evenodd"/><path stroke="#000000" stroke-width="1.0" stroke-linejoin="round" stroke-linecap="butt" d="m545.30316 -321.1916l21.653503 0" fill-rule="evenodd"/><path fill="#000000" stroke="#000000" stroke-width="1.0" stroke-linecap="butt" d="m566.95667 -319.53986l4.538147 -1.6517334l-4.538147 -1.6517334z" fill-rule="evenodd"/><path fill="#000000" fill-opacity="0.0" d="m640.958 -321.1916l27.653564 0" fill-rule="evenodd"/><path stroke="#000000" stroke-width="1.0" stroke-linejoin="round" stroke-linecap="butt" d="m640.958 -321.1916l21.653564 0" fill-rule="evenodd"/><path fill="#000000" stroke="#000000" stroke-width="1.0" stroke-linecap="butt" d="m662.6116 -319.53986l4.538086 -1.6517334l-4.538086 -1.6517334z" fill-rule="evenodd"/><path fill="#000000" fill-opacity="0.0" d="m776.88055 -284.2349l-50.236206 -12.944885" fill-rule="evenodd"/><path stroke="#000000" stroke-width="1.0" stroke-linejoin="round" stroke-linecap="butt" d="m776.88055 -284.2349l-44.425964 -11.447723" fill-rule="evenodd"/><path fill="#000000" stroke="#000000" stroke-width="1.0" stroke-linecap="butt" d="m732.8667 -297.2821l-4.8067017 0.46710205l3.9824219 2.7318726z" fill-rule="evenodd"/><path fill="#000000" fill-opacity="0.0" d="m776.88055 -306.1719l109.41736 0l0 43.873993l-109.41736 0z" fill-rule="evenodd"/><path stroke="#000000" stroke-width="1.0" stroke-linejoin="round" stroke-linecap="butt" d="m776.88055 -306.1719l109.41736 0l0 43.873993l-109.41736 0z" fill-rule="evenodd"/><path fill="#000000" d="m800.3619 -289.1113l0.046875 0.9375q0.296875 -0.53125 0.78125 -0.8125q0.5 -0.296875 1.1875 -0.296875q1.359375 0 1.8125 1.046875q0.296875 -0.46875 0.765625 -0.75q0.484375 -0.296875 1.15625 -0.296875q1.09375 0 1.671875 0.671875q0.578125 0.65625 0.578125 2.0l0 7.359375l-1.59375 0l0 -7.375q0 -1.25 -1.140625 -1.234375q-0.296875 0 -0.515625 0.09375q-0.21875 0.078125 -0.375 0.21875q-0.140625 0.140625 -0.21875 0.328125q-0.078125 0.1875 -0.109375 0.375l0 7.59375l-1.609375 0l0 -7.390625q0 -0.59375 -0.265625 -0.90625q-0.265625 -0.328125 -0.828125 -0.3125q-0.53125 0 -0.828125 0.21875q-0.28125 0.203125 -0.421875 0.546875l0 7.84375l-1.609375 0l0 -9.859375l1.515625 0zm16.898743 9.859375q-0.09375 -0.1875 -0.15625 -0.46875q-0.0625 -0.296875 -0.09375 -0.609375q-0.25 0.265625 -0.5625 0.5q-0.3125 0.21875 -0.703125 0.390625q-0.375 0.171875 -0.8125 0.265625q-0.421875 0.109375 -0.890625 0.109375q-0.796875 0 -1.4375 -0.21875q-0.625 -0.234375 -1.0625 -0.625q-0.4375 -0.390625 -0.6875 -0.921875q-0.234375 -0.53125 -0.234375 -1.15625q0 -0.8125 0.3125 -1.421875q0.328125 -0.609375 0.921875 -1.015625q0.59375 -0.40625 1.421875 -0.59375q0.84375 -0.203125 1.875 -0.203125l1.828125 0l0 -0.78125q0 -0.453125 -0.171875 -0.796875q-0.15625 -0.359375 -0.453125 -0.609375q-0.296875 -0.25 -0.734375 -0.390625q-0.421875 -0.140625 -0.96875 -0.140625q-0.5 0 -0.90625 0.140625q-0.390625 0.125 -0.671875 0.34375q-0.265625 0.203125 -0.421875 0.484375q-0.140625 0.28125 -0.140625 0.59375l-1.6875 0q0 -0.53125 0.265625 -1.046875q0.28125 -0.53125 0.78125 -0.9375q0.5 -0.421875 1.21875 -0.671875q0.734375 -0.25 1.65625 -0.25q0.84375 0 1.5625 0.203125q0.71875 0.203125 1.234375 0.625q0.53125 0.40625 0.828125 1.03125q0.296875 0.609375 0.296875 1.4375l0 4.578125q0 0.5 0.09375 1.046875q0.09375 0.546875 0.25 0.96875l0 0.140625l-1.75 0zm-2.984375 -1.28125q0.5 0 0.921875 -0.125q0.4375 -0.140625 0.78125 -0.34375q0.34375 -0.203125 0.59375 -0.46875q0.265625 -0.28125 0.40625 -0.5625l0 -2.0l-1.5625 0q-1.46875 0 -2.296875 0.4375q-0.8125 0.4375 -0.8125 1.375q0 0.359375 0.125 0.671875q0.125 0.3125 0.359375 0.53125q0.25 0.21875 0.625 0.359375q0.375 0.125 0.859375 0.125zm14.258057 -1.328125q0 -0.3125 -0.125 -0.546875q-0.125 -0.234375 -0.40625 -0.4375q-0.28125 -0.203125 -0.75 -0.375q-0.453125 -0.171875 -1.140625 -0.296875q-0.859375 -0.1875 -1.5625 -0.421875q-0.6875 -0.25 -1.1875 -0.59375q-0.484375 -0.34375 -0.765625 -0.796875q-0.265625 -0.46875 -0.265625 -1.078125q0 -0.59375 0.28125 -1.109375q0.28125 -0.53125 0.78125 -0.921875q0.515625 -0.390625 1.21875 -0.609375q0.703125 -0.234375 1.5625 -0.234375q0.90625 0 1.625 0.234375q0.734375 0.234375 1.25 0.65625q0.515625 0.40625 0.78125 0.96875q0.28125 0.5625 0.28125 1.21875l-1.6875 0q0 -0.328125 -0.171875 -0.625q-0.15625 -0.3125 -0.453125 -0.546875q-0.28125 -0.234375 -0.703125 -0.375q-0.40625 -0.15625 -0.921875 -0.15625q-0.546875 0 -0.953125 0.125q-0.40625 0.109375 -0.671875 0.3125q-0.265625 0.203125 -0.40625 0.46875q-0.140625 0.265625 -0.140625 0.546875q0 0.28125 0.109375 0.515625q0.109375 0.234375 0.375 0.421875q0.28125 0.171875 0.734375 0.328125q0.453125 0.140625 1.140625 0.265625q0.90625 0.203125 1.625 0.453125q0.71875 0.25 1.203125 0.609375q0.5 0.34375 0.75 0.8125q0.265625 0.453125 0.265625 1.0625q0 0.65625 -0.296875 1.203125q-0.28125 0.53125 -0.8125 0.921875q-0.53125 0.375 -1.265625 0.59375q-0.734375 0.203125 -1.609375 0.203125q-1.015625 0 -1.796875 -0.265625q-0.78125 -0.28125 -1.328125 -0.71875q-0.53125 -0.4375 -0.828125 -1.015625q-0.28125 -0.59375 -0.28125 -1.21875l1.6875 0q0.03125 0.515625 0.265625 0.875q0.25 0.359375 0.609375 0.578125q0.359375 0.21875 0.796875 0.3125q0.4375 0.078125 0.875 0.078125q1.0625 0 1.671875 -0.390625q0.625 -0.390625 0.640625 -1.03125zm8.633057 -9.640625l0 2.390625l3.75 0l0 1.3125l-3.75 0l0 5.34375q0 0.578125 0.140625 0.953125q0.140625 0.375 0.390625 0.59375q0.265625 0.21875 0.59375 0.3125q0.34375 0.09375 0.71875 0.09375q0.265625 0 0.546875 -0.03125q0.296875 -0.03125 0.578125 -0.078125q0.28125 -0.046875 0.515625 -0.09375q0.25 -0.046875 0.40625 -0.09375l0.234375 1.203125q-0.21875 0.125 -0.515625 0.21875q-0.296875 0.09375 -0.65625 0.15625q-0.34375 0.078125 -0.75 0.109375q-0.390625 0.046875 -0.78125 0.046875q-0.65625 0 -1.234375 -0.1875q-0.5625 -0.1875 -0.984375 -0.59375q-0.421875 -0.40625 -0.671875 -1.046875q-0.234375 -0.640625 -0.234375 -1.5625l0 -5.34375l-2.578125 0l0 -1.3125l2.578125 0l0 -2.390625l1.703125 0zm11.554932 12.4375q-1.03125 0 -1.90625 -0.359375q-0.875 -0.359375 -1.5 -0.984375q-0.609375 -0.640625 -0.953125 -1.515625q-0.34375 -0.875 -0.34375 -1.90625l0 -0.390625q0 -1.1875 0.375 -2.125q0.390625 -0.953125 1.015625 -1.59375q0.640625 -0.65625 1.4375 -1.0q0.8125 -0.34375 1.65625 -0.34375q1.0625 0 1.859375 0.375q0.796875 0.359375 1.328125 1.015625q0.53125 0.640625 0.78125 1.53125q0.265625 0.875 0.265625 1.90625l0 0.75l-7.03125 0q0.015625 0.6875 0.25 1.28125q0.234375 0.578125 0.640625 1.03125q0.40625 0.4375 0.96875 0.703125q0.5625 0.25 1.25 0.25q0.90625 0 1.59375 -0.359375q0.703125 -0.375 1.171875 -0.96875l1.03125 0.796875q-0.25 0.375 -0.625 0.71875q-0.359375 0.328125 -0.84375 0.59375q-0.484375 0.265625 -1.09375 0.421875q-0.609375 0.171875 -1.328125 0.171875zm-0.21875 -8.84375q-0.515625 0 -0.96875 0.1875q-0.453125 0.1875 -0.8125 0.546875q-0.359375 0.359375 -0.625 0.890625q-0.25 0.515625 -0.34375 1.203125l5.296875 0l0 -0.125q-0.015625 -0.5 -0.1875 -0.984375q-0.15625 -0.484375 -0.46875 -0.859375q-0.296875 -0.390625 -0.765625 -0.625q-0.46875 -0.234375 -1.125 -0.234375zm13.523743 -1.375q0.234375 0 0.484375 0.015625q0.265625 0 0.484375 0.03125q0.234375 0.03125 0.421875 0.078125q0.203125 0.046875 0.34375 0.109375l-0.234375 1.640625q-0.484375 -0.109375 -0.9375 -0.15625q-0.4375 -0.046875 -0.921875 -0.046875q-1.1875 0 -1.921875 0.546875q-0.734375 0.53125 -1.078125 1.484375l0 6.328125l-1.6875 0l0 -9.859375l1.59375 0l0.09375 1.5625q0.59375 -0.796875 1.4375 -1.265625q0.84375 -0.46875 1.921875 -0.46875z" fill-rule="nonzero"/><path fill="#000000" fill-opacity="0.0" d="m776.88055 -380.0853l180.0315 0l0 43.874023l-180.0315 0z" fill-rule="evenodd"/><path stroke="#000000" stroke-width="1.0" stroke-linejoin="round" stroke-linecap="butt" d="m776.88055 -380.0853l180.0315 0l0 43.874023l-180.0315 0z" fill-rule="evenodd"/><path fill="#000000" d="m792.61194 -353.1653l0 -8.546875l-2.703125 0l0 -1.3125l2.703125 0l0 -0.6875q0 -0.953125 0.28125 -1.65625q0.28125 -0.71875 0.78125 -1.203125q0.515625 -0.484375 1.21875 -0.734375q0.71875 -0.25 1.59375 -0.25q0.59375 0 1.15625 0.109375q0.578125 0.09375 1.171875 0.25l-0.1875 1.390625q-0.375 -0.125 -0.875 -0.21875q-0.5 -0.09375 -1.0625 -0.09375q-1.1875 0.015625 -1.78125 0.609375q-0.59375 0.578125 -0.59375 1.796875l0 0.6875l3.796875 0l0 1.3125l-3.796875 0l0 8.546875l-1.703125 0zm13.048462 0.1875q-1.03125 0 -1.90625 -0.359375q-0.875 -0.359375 -1.5 -0.984375q-0.609375 -0.640625 -0.953125 -1.515625q-0.34375 -0.875 -0.34375 -1.90625l0 -0.390625q0 -1.1875 0.375 -2.125q0.390625 -0.953125 1.015625 -1.59375q0.640625 -0.65625 1.4375 -1.0q0.8125 -0.34375 1.65625 -0.34375q1.0625 0 1.859375 0.375q0.796875 0.359375 1.328125 1.015625q0.53125 0.640625 0.78125 1.53125q0.265625 0.875 0.265625 1.90625l0 0.75l-7.03125 0q0.015625 0.6875 0.25 1.28125q0.234375 0.578125 0.640625 1.03125q0.40625 0.4375 0.96875 0.703125q0.5625 0.25 1.25 0.25q0.90625 0 1.59375 -0.359375q0.703125 -0.375 1.171875 -0.96875l1.03125 0.796875q-0.25 0.375 -0.625 0.71875q-0.359375 0.328125 -0.84375 0.59375q-0.484375 0.265625 -1.09375 0.421875q-0.609375 0.171875 -1.328125 0.171875zm-0.21875 -8.84375q-0.515625 0 -0.96875 0.1875q-0.453125 0.1875 -0.8125 0.546875q-0.359375 0.359375 -0.625 0.890625q-0.25 0.515625 -0.34375 1.203125l5.296875 0l0 -0.125q-0.015625 -0.5 -0.1875 -0.984375q-0.15625 -0.484375 -0.46875 -0.859375q-0.296875 -0.390625 -0.765625 -0.625q-0.46875 -0.234375 -1.125 -0.234375zm13.539307 8.65625q-0.09375 -0.1875 -0.15625 -0.46875q-0.0625 -0.296875 -0.09375 -0.609375q-0.25 0.265625 -0.5625 0.5q-0.3125 0.21875 -0.703125 0.390625q-0.375 0.171875 -0.8125 0.265625q-0.421875 0.109375 -0.890625 0.109375q-0.796875 0 -1.4375 -0.21875q-0.625 -0.234375 -1.0625 -0.625q-0.4375 -0.390625 -0.6875 -0.921875q-0.234375 -0.53125 -0.234375 -1.15625q0 -0.8125 0.3125 -1.421875q0.328125 -0.609375 0.921875 -1.015625q0.59375 -0.40625 1.421875 -0.59375q0.84375 -0.203125 1.875 -0.203125l1.828125 0l0 -0.78125q0 -0.453125 -0.171875 -0.796875q-0.15625 -0.359375 -0.453125 -0.609375q-0.296875 -0.25 -0.734375 -0.390625q-0.421875 -0.140625 -0.96875 -0.140625q-0.5 0 -0.90625 0.140625q-0.390625 0.125 -0.671875 0.34375q-0.265625 0.203125 -0.421875 0.484375q-0.140625 0.28125 -0.140625 0.59375l-1.6875 0q0 -0.53125 0.265625 -1.046875q0.28125 -0.53125 0.78125 -0.9375q0.5 -0.421875 1.21875 -0.671875q0.734375 -0.25 1.65625 -0.25q0.84375 0 1.5625 0.203125q0.71875 0.203125 1.234375 0.625q0.53125 0.40625 0.828125 1.03125q0.296875 0.609375 0.296875 1.4375l0 4.578125q0 0.5 0.09375 1.046875q0.09375 0.546875 0.25 0.96875l0 0.140625l-1.75 0zm-2.984375 -1.28125q0.5 0 0.921875 -0.125q0.4375 -0.140625 0.78125 -0.34375q0.34375 -0.203125 0.59375 -0.46875q0.265625 -0.28125 0.40625 -0.5625l0 -2.0l-1.5625 0q-1.46875 0 -2.296875 0.4375q-0.8125 0.4375 -0.8125 1.375q0 0.359375 0.125 0.671875q0.125 0.3125 0.359375 0.53125q0.25 0.21875 0.625 0.359375q0.375 0.125 0.859375 0.125zm11.695557 -10.96875l0 2.390625l3.75 0l0 1.3125l-3.75 0l0 5.34375q0 0.578125 0.140625 0.953125q0.140625 0.375 0.390625 0.59375q0.265625 0.21875 0.59375 0.3125q0.34375 0.09375 0.71875 0.09375q0.265625 0 0.546875 -0.03125q0.296875 -0.03125 0.578125 -0.078125q0.28125 -0.046875 0.515625 -0.09375q0.25 -0.046875 0.40625 -0.09375l0.234375 1.203125q-0.21875 0.125 -0.515625 0.21875q-0.296875 0.09375 -0.65625 0.15625q-0.34375 0.078125 -0.75 0.109375q-0.390625 0.046875 -0.78125 0.046875q-0.65625 0 -1.234375 -0.1875q-0.5625 -0.1875 -0.984375 -0.59375q-0.421875 -0.40625 -0.671875 -1.046875q-0.234375 -0.640625 -0.234375 -1.5625l0 -5.34375l-2.578125 0l0 -1.3125l2.578125 0l0 -2.390625l1.703125 0zm13.601868 10.890625q-0.5 0.734375 -1.234375 1.140625q-0.734375 0.40625 -1.703125 0.40625q-0.78125 0 -1.40625 -0.234375q-0.625 -0.25 -1.078125 -0.765625q-0.4375 -0.515625 -0.6875 -1.296875q-0.234375 -0.78125 -0.234375 -1.890625l0 -5.859375l1.6875 0l0 5.875q0 0.8125 0.125 1.34375q0.125 0.515625 0.375 0.828125q0.265625 0.3125 0.625 0.453125q0.375 0.125 0.859375 0.125q1.03125 0 1.65625 -0.421875q0.640625 -0.421875 0.953125 -1.125l0 -7.078125l1.6875 0l0 9.859375l-1.53125 0l-0.09375 -1.359375zm11.258057 -8.671875q0.234375 0 0.484375 0.015625q0.265625 0 0.484375 0.03125q0.234375 0.03125 0.421875 0.078125q0.203125 0.046875 0.34375 0.109375l-0.234375 1.640625q-0.484375 -0.109375 -0.9375 -0.15625q-0.4375 -0.046875 -0.921875 -0.046875q-1.1875 0 -1.921875 0.546875q-0.734375 0.53125 -1.078125 1.484375l0 6.328125l-1.6875 0l0 -9.859375l1.59375 0l0.09375 1.5625q0.59375 -0.796875 1.4375 -1.265625q0.84375 -0.46875 1.921875 -0.46875zm9.086182 10.21875q-1.03125 0 -1.90625 -0.359375q-0.875 -0.359375 -1.5 -0.984375q-0.609375 -0.640625 -0.953125 -1.515625q-0.34375 -0.875 -0.34375 -1.90625l0 -0.390625q0 -1.1875 0.375 -2.125q0.390625 -0.953125 1.015625 -1.59375q0.640625 -0.65625 1.4375 -1.0q0.8125 -0.34375 1.65625 -0.34375q1.0625 0 1.859375 0.375q0.796875 0.359375 1.328125 1.015625q0.53125 0.640625 0.78125 1.53125q0.265625 0.875 0.265625 1.90625l0 0.75l-7.03125 0q0.015625 0.6875 0.25 1.28125q0.234375 0.578125 0.640625 1.03125q0.40625 0.4375 0.96875 0.703125q0.5625 0.25 1.25 0.25q0.90625 0 1.59375 -0.359375q0.703125 -0.375 1.171875 -0.96875l1.03125 0.796875q-0.25 0.375 -0.625 0.71875q-0.359375 0.328125 -0.84375 0.59375q-0.484375 0.265625 -1.09375 0.421875q-0.609375 0.171875 -1.328125 0.171875zm-0.21875 -8.84375q-0.515625 0 -0.96875 0.1875q-0.453125 0.1875 -0.8125 0.546875q-0.359375 0.359375 -0.625 0.890625q-0.25 0.515625 -0.34375 1.203125l5.296875 0l0 -0.125q-0.015625 -0.5 -0.1875 -0.984375q-0.15625 -0.484375 -0.46875 -0.859375q-0.296875 -0.390625 -0.765625 -0.625q-0.46875 -0.234375 -1.125 -0.234375zm14.429932 3.546875l-6.96875 0l0 -1.390625l6.96875 0l0 1.390625zm12.189087 0.296875q0 1.046875 -0.265625 1.96875q-0.25 0.90625 -0.75 1.59375q-0.484375 0.671875 -1.203125 1.0625q-0.71875 0.375 -1.65625 0.375q-0.953125 0 -1.65625 -0.328125q-0.6875 -0.34375 -1.1875 -0.984375l-0.078125 1.125l-1.546875 0l0 -14.0l1.6875 0l0 5.203125q0.484375 -0.609375 1.15625 -0.921875q0.6875 -0.3125 1.609375 -0.3125q0.9375 0 1.65625 0.375q0.734375 0.359375 1.21875 1.03125q0.5 0.65625 0.75 1.59375q0.265625 0.921875 0.265625 2.015625l0 0.203125zm-1.6875 -0.203125q0 -0.71875 -0.140625 -1.359375q-0.140625 -0.65625 -0.453125 -1.15625q-0.3125 -0.5 -0.8125 -0.78125q-0.5 -0.296875 -1.21875 -0.296875q-0.4375 0 -0.8125 0.125q-0.359375 0.109375 -0.65625 0.3125q-0.28125 0.203125 -0.5 0.484375q-0.21875 0.265625 -0.375 0.59375l0 4.3125q0.15625 0.328125 0.375 0.609375q0.234375 0.28125 0.515625 0.5q0.296875 0.203125 0.65625 0.3125q0.375 0.109375 0.8125 0.109375q0.6875 0 1.1875 -0.28125q0.5 -0.296875 0.8125 -0.78125q0.3125 -0.5 0.453125 -1.140625q0.15625 -0.640625 0.15625 -1.359375l0 -0.203125zm10.992432 -5.015625q0.234375 0 0.484375 0.015625q0.265625 0 0.484375 0.03125q0.234375 0.03125 0.421875 0.078125q0.203125 0.046875 0.34375 0.109375l-0.234375 1.640625q-0.484375 -0.109375 -0.9375 -0.15625q-0.4375 -0.046875 -0.921875 -0.046875q-1.1875 0 -1.921875 0.546875q-0.734375 0.53125 -1.078125 1.484375l0 6.328125l-1.6875 0l0 -9.859375l1.59375 0l0.09375 1.5625q0.59375 -0.796875 1.4375 -1.265625q0.84375 -0.46875 1.921875 -0.46875zm11.211182 10.03125q-0.09375 -0.1875 -0.15625 -0.46875q-0.0625 -0.296875 -0.09375 -0.609375q-0.25 0.265625 -0.5625 0.5q-0.3125 0.21875 -0.703125 0.390625q-0.375 0.171875 -0.8125 0.265625q-0.421875 0.109375 -0.890625 0.109375q-0.796875 0 -1.4375 -0.21875q-0.625 -0.234375 -1.0625 -0.625q-0.4375 -0.390625 -0.6875 -0.921875q-0.234375 -0.53125 -0.234375 -1.15625q0 -0.8125 0.3125 -1.421875q0.328125 -0.609375 0.921875 -1.015625q0.59375 -0.40625 1.421875 -0.59375q0.84375 -0.203125 1.875 -0.203125l1.828125 0l0 -0.78125q0 -0.453125 -0.171875 -0.796875q-0.15625 -0.359375 -0.453125 -0.609375q-0.296875 -0.25 -0.734375 -0.390625q-0.421875 -0.140625 -0.96875 -0.140625q-0.5 0 -0.90625 0.140625q-0.390625 0.125 -0.671875 0.34375q-0.265625 0.203125 -0.421875 0.484375q-0.140625 0.28125 -0.140625 0.59375l-1.6875 0q0 -0.53125 0.265625 -1.046875q0.28125 -0.53125 0.78125 -0.9375q0.5 -0.421875 1.21875 -0.671875q0.734375 -0.25 1.65625 -0.25q0.84375 0 1.5625 0.203125q0.71875 0.203125 1.234375 0.625q0.53125 0.40625 0.828125 1.03125q0.296875 0.609375 0.296875 1.4375l0 4.578125q0 0.5 0.09375 1.046875q0.09375 0.546875 0.25 0.96875l0 0.140625l-1.75 0zm-2.984375 -1.28125q0.5 0 0.921875 -0.125q0.4375 -0.140625 0.78125 -0.34375q0.34375 -0.203125 0.59375 -0.46875q0.265625 -0.28125 0.40625 -0.5625l0 -2.0l-1.5625 0q-1.46875 0 -2.296875 0.4375q-0.8125 0.4375 -0.8125 1.375q0 0.359375 0.125 0.671875q0.125 0.3125 0.359375 0.53125q0.25 0.21875 0.625 0.359375q0.375 0.125 0.859375 0.125zm9.211243 -8.578125l0.125 1.453125q0.53125 -0.765625 1.3125 -1.1875q0.78125 -0.4375 1.75 -0.4375q0.78125 0 1.40625 0.21875q0.640625 0.21875 1.078125 0.6875q0.453125 0.453125 0.6875 1.171875q0.25 0.71875 0.25 1.6875l0 6.265625l-1.6875 0l0 -6.21875q0 -0.65625 -0.15625 -1.109375q-0.140625 -0.453125 -0.421875 -0.734375q-0.28125 -0.296875 -0.703125 -0.421875q-0.40625 -0.125 -0.953125 -0.125q-0.84375 0 -1.484375 0.421875q-0.640625 0.421875 -1.03125 1.125l0 7.0625l-1.6875 0l0 -9.859375l1.515625 0zm13.883057 8.671875q0.453125 0 0.890625 -0.140625q0.4375 -0.140625 0.765625 -0.40625q0.34375 -0.265625 0.546875 -0.609375q0.203125 -0.359375 0.21875 -0.765625l1.59375 0q-0.015625 0.65625 -0.34375 1.265625q-0.328125 0.59375 -0.890625 1.046875q-0.5625 0.4375 -1.28125 0.71875q-0.71875 0.265625 -1.5 0.265625q-1.109375 0 -1.953125 -0.40625q-0.84375 -0.40625 -1.40625 -1.078125q-0.546875 -0.6875 -0.84375 -1.5625q-0.28125 -0.890625 -0.28125 -1.875l0 -0.390625q0 -0.96875 0.28125 -1.859375q0.296875 -0.890625 0.84375 -1.5625q0.5625 -0.6875 1.40625 -1.078125q0.84375 -0.40625 1.953125 -0.40625q0.875 0 1.609375 0.28125q0.734375 0.265625 1.265625 0.75q0.53125 0.46875 0.828125 1.125q0.3125 0.65625 0.3125 1.40625l-1.59375 0q-0.015625 -0.453125 -0.203125 -0.84375q-0.1875 -0.390625 -0.515625 -0.6875q-0.3125 -0.3125 -0.75 -0.484375q-0.4375 -0.171875 -0.953125 -0.171875q-0.78125 0 -1.3125 0.3125q-0.53125 0.3125 -0.859375 0.828125q-0.328125 0.5 -0.46875 1.140625q-0.140625 0.625 -0.140625 1.25l0 0.390625q0 0.640625 0.140625 1.28125q0.140625 0.625 0.453125 1.140625q0.328125 0.5 0.859375 0.8125q0.53125 0.3125 1.328125 0.3125zm8.679932 -7.203125q0.53125 -0.78125 1.296875 -1.203125q0.78125 -0.4375 1.75 -0.4375q0.78125 0 1.40625 0.21875q0.640625 0.21875 1.078125 0.703125q0.453125 0.46875 0.6875 1.1875q0.25 0.71875 0.25 1.71875l0 6.203125l-1.6875 0l0 -6.21875q0 -1.21875 -0.578125 -1.8125q-0.578125 -0.59375 -1.65625 -0.578125q-0.8125 0 -1.46875 0.40625q-0.65625 0.390625 -1.078125 1.046875l0 7.15625l-1.6875 0l0 -14.0l1.6875 0l0 5.609375z" fill-rule="nonzero"/><path fill="#000000" fill-opacity="0.0" d="m776.88055 -358.1483l-50.236206 12.944885" fill-rule="evenodd"/><path stroke="#000000" stroke-width="1.0" stroke-linejoin="round" stroke-linecap="butt" d="m776.88055 -358.1483l-44.425964 11.447693" fill-rule="evenodd"/><path fill="#000000" stroke="#000000" stroke-width="1.0" stroke-linecap="butt" d="m732.0424 -348.30008l-3.9824219 2.7318726l4.8067017 0.46710205z" fill-rule="evenodd"/><path fill="#000000" fill-opacity="0.0" d="m999.1417 -380.08398l89.66931 0l0 43.874023l-89.66931 0z" fill-rule="evenodd"/><path stroke="#000000" stroke-width="1.0" stroke-linejoin="round" stroke-linecap="butt" d="m999.1417 -380.08398l89.66931 0l0 43.874023l-89.66931 0z" fill-rule="evenodd"/><path fill="#000000" d="m1031.4915 -353.164l-1.59375 0l0 -6.125l-5.4375 0l0 6.125l-1.59375 0l0 -13.265625l1.59375 0l0 5.703125l5.4375 0l0 -5.703125l1.59375 0l0 13.265625zm10.164307 -6.125l-5.53125 0l0 4.6875l6.453125 0l0 1.4375l-8.140625 0l0 -13.265625l8.0625 0l0 1.4375l-6.375 0l0 4.265625l5.53125 0l0 1.4375zm10.242432 2.6875l-4.4375 0l-1.0625 3.4375l-1.6875 0l4.28125 -13.265625l1.421875 0l4.203125 13.265625l-1.671875 0l-1.046875 -3.4375zm-3.984375 -1.46875l3.53125 0l-1.75 -5.75l-1.78125 5.75zm8.664429 4.90625l0 -13.265625l3.078125 0q1.375 0.015625 2.46875 0.46875q1.09375 0.453125 1.84375 1.265625q0.75 0.796875 1.140625 1.921875q0.40625 1.125 0.40625 2.5l0 0.96875q0 1.375 -0.40625 2.5q-0.390625 1.125 -1.140625 1.9375q-0.75 0.796875 -1.84375 1.25q-1.09375 0.4375 -2.46875 0.453125l-3.078125 0zm1.71875 -11.875l0 10.5l1.359375 0q1.078125 -0.015625 1.859375 -0.375q0.78125 -0.375 1.296875 -1.0q0.515625 -0.640625 0.765625 -1.5q0.25 -0.875 0.25 -1.890625l0 -0.984375q0 -1.015625 -0.265625 -1.875q-0.25 -0.859375 -0.765625 -1.484375q-0.5 -0.640625 -1.28125 -1.0q-0.78125 -0.375 -1.859375 -0.390625l-1.359375 0z" fill-rule="nonzero"/><path fill="#000000" fill-opacity="0.0" d="m999.1417 -358.14697l-42.236206 0" fill-rule="evenodd"/><path stroke="#000000" stroke-width="1.0" stroke-linejoin="round" stroke-linecap="butt" d="m999.1417 -358.14697l-36.236206 0" fill-rule="evenodd"/><path fill="#000000" stroke="#000000" stroke-width="1.0" stroke-linecap="butt" d="m962.9055 -359.7987l-4.538086 1.6517334l4.538086 1.6517334z" fill-rule="evenodd"/><path fill="#ffffff" d="m94.68372 -126.91601l0 0c0 -18.760292 15.222321 -33.968513 34.000008 -33.968513l0 0c9.017349 0 17.66539 3.578827 24.041626 9.949158c6.376236 6.370331 9.958374 15.010345 9.958374 24.019356l0 0c0 18.760284 -15.222321 33.9685 -34.0 33.9685l0 0c-18.777687 0 -34.000008 -15.208214 -34.000008 -33.9685z" fill-rule="evenodd"/><path stroke="#000000" stroke-width="1.0" stroke-linejoin="round" stroke-linecap="butt" d="m94.68372 -126.91601l0 0c0 -18.760292 15.222321 -33.968513 34.000008 -33.968513l0 0c9.017349 0 17.66539 3.578827 24.041626 9.949158c6.376236 6.370331 9.958374 15.010345 9.958374 24.019356l0 0c0 18.760284 -15.222321 33.9685 -34.0 33.9685l0 0c-18.777687 0 -34.000008 -15.208214 -34.000008 -33.9685z" fill-rule="evenodd"/><path fill="#000000" d="m122.43069 -119.99601l5.125 -13.359383l1.9062576 0l5.46875 13.359383l-2.015625 0l-1.546875 -4.046875l-5.5937576 0l-1.46875 4.046875l-1.875 0zm3.859375 -5.484375l4.5312576 0l-1.40625 -3.7031326q-0.625 -1.6875 -0.9375 -2.765625q-0.265625 1.28125 -0.7187576 2.546875l-1.46875 3.9218826z" fill-rule="nonzero"/><path fill="#ffffff" d="m190.33858 -126.91601l0 0c0 -18.760292 15.222321 -33.968513 34.0 -33.968513l0 0c9.0173645 0 17.665405 3.578827 24.041641 9.949158c6.376236 6.370331 9.958374 15.010345 9.958374 24.019356l0 0c0 18.760284 -15.222336 33.9685 -34.000015 33.9685l0 0c-18.77768 0 -34.0 -15.208214 -34.0 -33.9685z" fill-rule="evenodd"/><path stroke="#000000" stroke-width="1.0" stroke-linejoin="round" stroke-linecap="butt" d="m190.33858 -126.91601l0 0c0 -18.760292 15.222321 -33.968513 34.0 -33.968513l0 0c9.0173645 0 17.665405 3.578827 24.041641 9.949158c6.376236 6.370331 9.958374 15.010345 9.958374 24.019356l0 0c0 18.760284 -15.222336 33.9685 -34.000015 33.9685l0 0c-18.77768 0 -34.0 -15.208214 -34.0 -33.9685z" fill-rule="evenodd"/><path fill="#000000" d="m219.47617 -119.99601l0 -13.359383l5.015625 0q1.53125 0 2.453125 0.40625q0.921875 0.40625 1.4375 1.25q0.53125 0.84375 0.53125 1.765625q0 0.859375 -0.46875 1.625q-0.453125 0.7500076 -1.390625 1.2031326q1.203125 0.359375 1.859375 1.21875q0.65625 0.859375 0.65625 2.015625q0 0.9375 -0.40625 1.75q-0.390625 0.796875 -0.984375 1.234375q-0.578125 0.4375 -1.453125 0.671875q-0.875 0.21875 -2.15625 0.21875l-5.09375 0zm1.78125 -7.75l2.875 0q1.1875 0 1.6875 -0.140625q0.671875 -0.20313263 1.015625 -0.6718826q0.34375 -0.46875 0.34375 -1.171875q0 -0.65625 -0.328125 -1.15625q-0.3125 -0.515625 -0.90625 -0.703125q-0.59375 -0.1875 -2.03125 -0.1875l-2.65625 0l0 4.0312576zm0 6.171875l3.3125 0q0.859375 0 1.203125 -0.0625q0.609375 -0.109375 1.015625 -0.359375q0.421875 -0.265625 0.6875 -0.75q0.265625 -0.484375 0.265625 -1.125q0 -0.75 -0.390625 -1.296875q-0.375 -0.546875 -1.0625 -0.765625q-0.671875 -0.234375 -1.953125 -0.234375l-3.078125 0l0 4.59375z" fill-rule="nonzero"/><path fill="#ffffff" d="m285.99344 -166.91602l0 0c0 -18.760284 15.222321 -33.968506 34.0 -33.968506l0 0c9.0173645 0 17.665405 3.578827 24.041626 9.949158c6.376251 6.370331 9.958374 15.010345 9.958374 24.019348l0 0c0 18.760284 -15.222321 33.968506 -34.0 33.968506l0 0c-18.77768 0 -34.0 -15.208221 -34.0 -33.968506z" fill-rule="evenodd"/><path stroke="#000000" stroke-width="1.0" stroke-linejoin="round" stroke-linecap="butt" d="m285.99344 -166.91602l0 0c0 -18.760284 15.222321 -33.968506 34.0 -33.968506l0 0c9.0173645 0 17.665405 3.578827 24.041626 9.949158c6.376251 6.370331 9.958374 15.010345 9.958374 24.019348l0 0c0 18.760284 -15.222321 33.968506 -34.0 33.968506l0 0c-18.77768 0 -34.0 -15.208221 -34.0 -33.968506z" fill-rule="evenodd"/><path fill="#000000" d="m324.2257 -164.68352l1.765625 0.453125q-0.5625 2.171875 -2.0 3.328125q-1.4375 1.140625 -3.53125 1.140625q-2.15625 0 -3.515625 -0.875q-1.34375 -0.890625 -2.0625 -2.546875q-0.703125 -1.671875 -0.703125 -3.59375q0 -2.078125 0.796875 -3.625q0.796875 -1.5625 2.265625 -2.359375q1.484375 -0.8125 3.25 -0.8125q2.0 0 3.359375 1.015625q1.375 1.015625 1.90625 2.875l-1.734375 0.40625q-0.46875 -1.453125 -1.359375 -2.109375q-0.875 -0.671875 -2.203125 -0.671875q-1.546875 0 -2.578125 0.734375q-1.03125 0.734375 -1.453125 1.984375q-0.421875 1.234375 -0.421875 2.5625q0 1.703125 0.5 2.96875q0.5 1.265625 1.546875 1.90625q1.046875 0.625 2.265625 0.625q1.484375 0 2.515625 -0.859375q1.03125 -0.859375 1.390625 -2.546875z" fill-rule="nonzero"/><path fill="#ffffff" d="m381.6483 -166.91602l0 0c0 -18.760284 15.222321 -33.968506 34.0 -33.968506l0 0c9.0173645 0 17.665405 3.578827 24.041626 9.949158c6.376251 6.370331 9.958374 15.010345 9.958374 24.019348l0 0c0 18.760284 -15.222321 33.968506 -34.0 33.968506l0 0c-18.77768 0 -34.0 -15.208221 -34.0 -33.968506z" fill-rule="evenodd"/><path stroke="#000000" stroke-width="1.0" stroke-linejoin="round" stroke-linecap="butt" d="m381.6483 -166.91602l0 0c0 -18.760284 15.222321 -33.968506 34.0 -33.968506l0 0c9.0173645 0 17.665405 3.578827 24.041626 9.949158c6.376251 6.370331 9.958374 15.010345 9.958374 24.019348l0 0c0 18.760284 -15.222321 33.968506 -34.0 33.968506l0 0c-18.77768 0 -34.0 -15.208221 -34.0 -33.968506z" fill-rule="evenodd"/><path fill="#000000" d="m410.34933 -159.99602l0 -13.359375l4.609375 0q1.546875 0 2.375 0.203125q1.140625 0.25 1.953125 0.953125q1.0625 0.890625 1.578125 2.28125q0.53125 1.390625 0.53125 3.171875q0 1.515625 -0.359375 2.703125q-0.359375 1.171875 -0.921875 1.9375q-0.546875 0.765625 -1.203125 1.21875q-0.65625 0.4375 -1.59375 0.671875q-0.9375 0.21875 -2.140625 0.21875l-4.828125 0zm1.765625 -1.578125l2.859375 0q1.3125 0 2.0625 -0.234375q0.75 -0.25 1.203125 -0.703125q0.625 -0.625 0.96875 -1.6875q0.359375 -1.0625 0.359375 -2.578125q0 -2.09375 -0.6875 -3.21875q-0.6875 -1.125 -1.671875 -1.5q-0.703125 -0.28125 -2.28125 -0.28125l-2.8125 0l0 10.203125z" fill-rule="nonzero"/><path fill="#ffffff" d="m477.30316 -166.91602l0 0c0 -18.760284 15.222321 -33.968506 34.0 -33.968506l0 0c9.017334 0 17.665405 3.578827 24.041626 9.949158c6.3762207 6.370331 9.958374 15.010345 9.958374 24.019348l0 0c0 18.760284 -15.222351 33.968506 -34.0 33.968506l0 0c-18.77768 0 -34.0 -15.208221 -34.0 -33.968506z" fill-rule="evenodd"/><path stroke="#000000" stroke-width="1.0" stroke-linejoin="round" stroke-linecap="butt" d="m477.30316 -166.91602l0 0c0 -18.760284 15.222321 -33.968506 34.0 -33.968506l0 0c9.017334 0 17.665405 3.578827 24.041626 9.949158c6.3762207 6.370331 9.958374 15.010345 9.958374 24.019348l0 0c0 18.760284 -15.222351 33.968506 -34.0 33.968506l0 0c-18.77768 0 -34.0 -15.208221 -34.0 -33.968506z" fill-rule="evenodd"/><path fill="#000000" d="m506.5501 -159.99602l0 -13.359375l9.65625 0l0 1.578125l-7.875 0l0 4.09375l7.375 0l0 1.5625l-7.375 0l0 4.546875l8.1875 0l0 1.578125l-9.96875 0z" fill-rule="nonzero"/><path fill="#ffffff" d="m572.958 -166.91602l0 0c0 -18.760284 15.22229 -33.968506 34.0 -33.968506l0 0c9.017334 0 17.665405 3.578827 24.041626 9.949158c6.3762207 6.370331 9.958374 15.010345 9.958374 24.019348l0 0c0 18.760284 -15.222351 33.968506 -34.0 33.968506l0 0c-18.77771 0 -34.0 -15.208221 -34.0 -33.968506z" fill-rule="evenodd"/><path stroke="#000000" stroke-width="1.0" stroke-linejoin="round" stroke-linecap="butt" d="m572.958 -166.91602l0 0c0 -18.760284 15.22229 -33.968506 34.0 -33.968506l0 0c9.017334 0 17.665405 3.578827 24.041626 9.949158c6.3762207 6.370331 9.958374 15.010345 9.958374 24.019348l0 0c0 18.760284 -15.222351 33.968506 -34.0 33.968506l0 0c-18.77771 0 -34.0 -15.208221 -34.0 -33.968506z" fill-rule="evenodd"/><path fill="#000000" d="m602.79126 -159.99602l0 -13.359375l9.015625 0l0 1.578125l-7.25 0l0 4.140625l6.265625 0l0 1.578125l-6.265625 0l0 6.0625l-1.765625 0z" fill-rule="nonzero"/><path fill="#ffffff" d="m668.61285 -166.91602l0 0c0 -18.760284 15.222351 -33.968506 34.0 -33.968506l0 0c9.017395 0 17.665405 3.578827 24.041626 9.949158c6.3762207 6.370331 9.958374 15.010345 9.958374 24.019348l0 0c0 18.760284 -15.22229 33.968506 -34.0 33.968506l0 0c-18.777649 0 -34.0 -15.208221 -34.0 -33.968506z" fill-rule="evenodd"/><path stroke="#000000" stroke-width="1.0" stroke-linejoin="round" stroke-linecap="butt" d="m668.61285 -166.91602l0 0c0 -18.760284 15.222351 -33.968506 34.0 -33.968506l0 0c9.017395 0 17.665405 3.578827 24.041626 9.949158c6.3762207 6.370331 9.958374 15.010345 9.958374 24.019348l0 0c0 18.760284 -15.22229 33.968506 -34.0 33.968506l0 0c-18.777649 0 -34.0 -15.208221 -34.0 -33.968506z" fill-rule="evenodd"/><path fill="#000000" d="m703.0446 -165.2304l0 -1.578125l5.65625 0l0 4.953125q-1.296875 1.046875 -2.6875 1.578125q-1.375 0.515625 -2.84375 0.515625q-1.96875 0 -3.578125 -0.84375q-1.609375 -0.84375 -2.421875 -2.4375q-0.8125 -1.59375 -0.8125 -3.5625q0 -1.953125 0.8125 -3.640625q0.8125 -1.6875 2.34375 -2.5q1.53125 -0.828125 3.515625 -0.828125q1.453125 0 2.625 0.46875q1.171875 0.46875 1.828125 1.3125q0.671875 0.828125 1.015625 2.171875l-1.59375 0.4375q-0.296875 -1.015625 -0.75 -1.59375q-0.4375 -0.59375 -1.265625 -0.9375q-0.828125 -0.34375 -1.84375 -0.34375q-1.203125 0 -2.09375 0.375q-0.890625 0.359375 -1.4375 0.96875q-0.53125 0.59375 -0.828125 1.3125q-0.515625 1.234375 -0.515625 2.6875q0 1.78125 0.609375 2.984375q0.625 1.203125 1.796875 1.796875q1.171875 0.578125 2.5 0.578125q1.140625 0 2.234375 -0.4375q1.09375 -0.453125 1.65625 -0.953125l0 -2.484375l-3.921875 0z" fill-rule="nonzero"/><path fill="#000000" fill-opacity="0.0" d="m162.68373 -126.91601l27.653534 0" fill-rule="evenodd"/><path stroke="#000000" stroke-width="1.0" stroke-linejoin="round" stroke-linecap="butt" d="m162.68373 -126.91601l21.653534 0" fill-rule="evenodd"/><path fill="#000000" stroke="#000000" stroke-width="1.0" stroke-linecap="butt" d="m184.33727 -125.264275l4.538101 -1.6517334l-4.538101 -1.651741z" fill-rule="evenodd"/><path fill="#000000" fill-opacity="0.0" d="m258.3386 -126.91601l27.653534 -40.000008" fill-rule="evenodd"/><path stroke="#000000" stroke-width="1.0" stroke-linejoin="round" stroke-linecap="butt" d="m258.3386 -126.91601l24.241516 -35.064613" fill-rule="evenodd"/><path fill="#000000" stroke="#000000" stroke-width="1.0" stroke-linecap="butt" d="m283.93875 -161.04132l1.2220459 -4.67218l-3.9393616 2.7935944z" fill-rule="evenodd"/><path fill="#000000" fill-opacity="0.0" d="m353.99344 -166.91602l27.653534 0" fill-rule="evenodd"/><path stroke="#000000" stroke-width="1.0" stroke-linejoin="round" stroke-linecap="butt" d="m353.99344 -166.91602l21.653534 0" fill-rule="evenodd"/><path fill="#000000" stroke="#000000" stroke-width="1.0" stroke-linecap="butt" d="m375.64697 -165.26428l4.5381165 -1.6517334l-4.5381165 -1.6517334z" fill-rule="evenodd"/><path fill="#000000" fill-opacity="0.0" d="m449.6483 -166.91602l27.653564 0" fill-rule="evenodd"/><path stroke="#000000" stroke-width="1.0" stroke-linejoin="round" stroke-linecap="butt" d="m449.6483 -166.91602l21.653564 0" fill-rule="evenodd"/><path fill="#000000" stroke="#000000" stroke-width="1.0" stroke-linecap="butt" d="m471.30185 -165.26428l4.538086 -1.6517334l-4.538086 -1.6517334z" fill-rule="evenodd"/><path fill="#000000" fill-opacity="0.0" d="m545.30316 -166.91602l27.653503 0" fill-rule="evenodd"/><path stroke="#000000" stroke-width="1.0" stroke-linejoin="round" stroke-linecap="butt" d="m545.30316 -166.91602l21.653503 0" fill-rule="evenodd"/><path fill="#000000" stroke="#000000" stroke-width="1.0" stroke-linecap="butt" d="m566.95667 -165.26428l4.538147 -1.6517334l-4.538147 -1.6517334z" fill-rule="evenodd"/><path fill="#000000" fill-opacity="0.0" d="m640.958 -166.91602l27.653564 0" fill-rule="evenodd"/><path stroke="#000000" stroke-width="1.0" stroke-linejoin="round" stroke-linecap="butt" d="m640.958 -166.91602l21.653564 0" fill-rule="evenodd"/><path fill="#000000" stroke="#000000" stroke-width="1.0" stroke-linecap="butt" d="m662.6116 -165.26428l4.538086 -1.6517334l-4.538086 -1.6517334z" fill-rule="evenodd"/><path fill="#000000" fill-opacity="0.0" d="m281.2848 -69.83071l-32.913406 -33.07086" fill-rule="evenodd"/><path stroke="#000000" stroke-width="1.0" stroke-linejoin="round" stroke-linecap="butt" d="m281.2848 -69.83071l-28.680893 -28.818108" fill-rule="evenodd"/><path fill="#000000" stroke="#000000" stroke-width="1.0" stroke-linecap="butt" d="m253.77463 -99.81398l-4.3719788 -2.0514069l2.0305023 4.381729z" fill-rule="evenodd"/><path fill="#000000" fill-opacity="0.0" d="m281.2848 -91.767715l109.4173 0l0 43.874016l-109.4173 0z" fill-rule="evenodd"/><path stroke="#000000" stroke-width="1.0" stroke-linejoin="round" stroke-linecap="butt" d="m281.2848 -91.767715l109.4173 0l0 43.874016l-109.4173 0z" fill-rule="evenodd"/><path fill="#000000" d="m304.76608 -74.70709l0.046875 0.9375q0.296875 -0.53125 0.78125 -0.8125q0.5 -0.296875 1.1875 -0.296875q1.359375 0 1.8125 1.046875q0.296875 -0.46875 0.765625 -0.75q0.484375 -0.296875 1.15625 -0.296875q1.09375 0 1.671875 0.671875q0.578125 0.65625 0.578125 2.0l0 7.359375l-1.59375 0l0 -7.375q0 -1.25 -1.140625 -1.234375q-0.296875 0 -0.515625 0.09375q-0.21875 0.078125 -0.375 0.21875q-0.140625 0.140625 -0.21875 0.328125q-0.078125 0.1875 -0.109375 0.375l0 7.59375l-1.609375 0l0 -7.390625q0 -0.59375 -0.265625 -0.90625q-0.265625 -0.328125 -0.828125 -0.3125q-0.53125 0 -0.828125 0.21875q-0.28125 0.203125 -0.421875 0.546875l0 7.84375l-1.609375 0l0 -9.859375l1.515625 0zm16.898712 9.859375q-0.09375 -0.1875 -0.15625 -0.46875q-0.0625 -0.296875 -0.09375 -0.609375q-0.25 0.265625 -0.5625 0.5q-0.3125 0.21875 -0.703125 0.390625q-0.375 0.171875 -0.8125 0.265625q-0.421875 0.109375 -0.890625 0.109375q-0.796875 0 -1.4375 -0.21875q-0.625 -0.234375 -1.0625 -0.625q-0.4375 -0.390625 -0.6875 -0.921875q-0.234375 -0.53125 -0.234375 -1.15625q0 -0.8125 0.3125 -1.421875q0.328125 -0.609375 0.921875 -1.015625q0.59375 -0.40625 1.421875 -0.59375q0.84375 -0.203125 1.875 -0.203125l1.828125 0l0 -0.78125q0 -0.453125 -0.171875 -0.796875q-0.15625 -0.359375 -0.453125 -0.609375q-0.296875 -0.25 -0.734375 -0.390625q-0.421875 -0.140625 -0.96875 -0.140625q-0.5 0 -0.90625 0.140625q-0.390625 0.125 -0.671875 0.34375q-0.265625 0.203125 -0.421875 0.484375q-0.140625 0.28125 -0.140625 0.59375l-1.6875 0q0 -0.53125 0.265625 -1.046875q0.28125 -0.53125 0.78125 -0.9375q0.5 -0.421875 1.21875 -0.671875q0.734375 -0.25 1.65625 -0.25q0.84375 0 1.5625 0.203125q0.71875 0.203125 1.234375 0.625q0.53125 0.40625 0.828125 1.03125q0.296875 0.609375 0.296875 1.4375l0 4.578125q0 0.5 0.09375 1.046875q0.09375 0.546875 0.25 0.96875l0 0.140625l-1.75 0zm-2.984375 -1.28125q0.5 0 0.921875 -0.125q0.4375 -0.140625 0.78125 -0.34375q0.34375 -0.203125 0.59375 -0.46875q0.265625 -0.28125 0.40625 -0.5625l0 -2.0l-1.5625 0q-1.46875 0 -2.296875 0.4375q-0.8125 0.4375 -0.8125 1.375q0 0.359375 0.125 0.671875q0.125 0.3125 0.359375 0.53125q0.25 0.21875 0.625 0.359375q0.375 0.125 0.859375 0.125zm14.258057 -1.328125q0 -0.3125 -0.125 -0.546875q-0.125 -0.234375 -0.40625 -0.4375q-0.28125 -0.203125 -0.75 -0.375q-0.453125 -0.171875 -1.140625 -0.296875q-0.859375 -0.1875 -1.5625 -0.421875q-0.6875 -0.25 -1.1875 -0.59375q-0.484375 -0.34375 -0.765625 -0.796875q-0.265625 -0.46875 -0.265625 -1.078125q0 -0.59375 0.28125 -1.109375q0.28125 -0.53125 0.78125 -0.921875q0.515625 -0.390625 1.21875 -0.609375q0.703125 -0.234375 1.5625 -0.234375q0.90625 0 1.625 0.234375q0.734375 0.234375 1.25 0.65625q0.515625 0.40625 0.78125 0.96875q0.28125 0.5625 0.28125 1.21875l-1.6875 0q0 -0.328125 -0.171875 -0.625q-0.15625 -0.3125 -0.453125 -0.546875q-0.28125 -0.234375 -0.703125 -0.375q-0.40625 -0.15625 -0.921875 -0.15625q-0.546875 0 -0.953125 0.125q-0.40625 0.109375 -0.671875 0.3125q-0.265625 0.203125 -0.40625 0.46875q-0.140625 0.265625 -0.140625 0.546875q0 0.28125 0.109375 0.515625q0.109375 0.234375 0.375 0.421875q0.28125 0.171875 0.734375 0.328125q0.453125 0.140625 1.140625 0.265625q0.90625 0.203125 1.625 0.453125q0.71875 0.25 1.203125 0.609375q0.5 0.34375 0.75 0.8125q0.265625 0.453125 0.265625 1.0625q0 0.65625 -0.296875 1.203125q-0.28125 0.53125 -0.8125 0.921875q-0.53125 0.375 -1.265625 0.59375q-0.734375 0.203125 -1.609375 0.203125q-1.015625 0 -1.796875 -0.265625q-0.78125 -0.28125 -1.328125 -0.71875q-0.53125 -0.4375 -0.828125 -1.015625q-0.28125 -0.59375 -0.28125 -1.21875l1.6875 0q0.03125 0.515625 0.265625 0.875q0.25 0.359375 0.609375 0.578125q0.359375 0.21875 0.796875 0.3125q0.4375 0.078125 0.875 0.078125q1.0625 0 1.671875 -0.390625q0.625 -0.390625 0.640625 -1.03125zm8.633087 -9.640625l0 2.390625l3.75 0l0 1.3125l-3.75 0l0 5.34375q0 0.578125 0.140625 0.953125q0.140625 0.375 0.390625 0.59375q0.265625 0.21875 0.59375 0.3125q0.34375 0.09375 0.71875 0.09375q0.265625 0 0.546875 -0.03125q0.296875 -0.03125 0.578125 -0.078125q0.28125 -0.046875 0.515625 -0.09375q0.25 -0.046875 0.40625 -0.09375l0.234375 1.203125q-0.21875 0.125 -0.515625 0.21875q-0.296875 0.09375 -0.65625 0.15625q-0.34375 0.078125 -0.75 0.109375q-0.390625 0.046875 -0.78125 0.046875q-0.65625 0 -1.234375 -0.1875q-0.5625 -0.1875 -0.984375 -0.59375q-0.421875 -0.40625 -0.671875 -1.046875q-0.234375 -0.640625 -0.234375 -1.5625l0 -5.34375l-2.578125 0l0 -1.3125l2.578125 0l0 -2.390625l1.703125 0zm11.554962 12.4375q-1.03125 0 -1.90625 -0.359375q-0.875 -0.359375 -1.5 -0.984375q-0.609375 -0.640625 -0.953125 -1.515625q-0.34375 -0.875 -0.34375 -1.90625l0 -0.390625q0 -1.1875 0.375 -2.125q0.390625 -0.953125 1.015625 -1.59375q0.640625 -0.65625 1.4375 -1.0q0.8125 -0.34375 1.65625 -0.34375q1.0625 0 1.859375 0.375q0.796875 0.359375 1.328125 1.015625q0.53125 0.640625 0.78125 1.53125q0.265625 0.875 0.265625 1.90625l0 0.75l-7.03125 0q0.015625 0.6875 0.25 1.28125q0.234375 0.578125 0.640625 1.03125q0.40625 0.4375 0.96875 0.703125q0.5625 0.25 1.25 0.25q0.90625 0 1.59375 -0.359375q0.703125 -0.375 1.171875 -0.96875l1.03125 0.796875q-0.25 0.375 -0.625 0.71875q-0.359375 0.328125 -0.84375 0.59375q-0.484375 0.265625 -1.09375 0.421875q-0.609375 0.171875 -1.328125 0.171875zm-0.21875 -8.84375q-0.515625 0 -0.96875 0.1875q-0.453125 0.1875 -0.8125 0.546875q-0.359375 0.359375 -0.625 0.890625q-0.25 0.515625 -0.34375 1.203125l5.296875 0l0 -0.125q-0.015625 -0.5 -0.1875 -0.984375q-0.15625 -0.484375 -0.46875 -0.859375q-0.296875 -0.390625 -0.765625 -0.625q-0.46875 -0.234375 -1.125 -0.234375zm13.523682 -1.375q0.234375 0 0.484375 0.015625q0.265625 0 0.484375 0.03125q0.234375 0.03125 0.421875 0.078125q0.203125 0.046875 0.34375 0.109375l-0.234375 1.640625q-0.484375 -0.109375 -0.9375 -0.15625q-0.4375 -0.046875 -0.921875 -0.046875q-1.1875 0 -1.921875 0.546875q-0.734375 0.53125 -1.078125 1.484375l0 6.328125l-1.6875 0l0 -9.859375l1.59375 0l0.09375 1.5625q0.59375 -0.796875 1.4375 -1.265625q0.84375 -0.46875 1.921875 -0.46875z" fill-rule="nonzero"/><path fill="#000000" fill-opacity="0.0" d="m776.88055 -188.85432l180.0315 0l0 43.87401l-180.0315 0z" fill-rule="evenodd"/><path stroke="#000000" stroke-width="1.0" stroke-linejoin="round" stroke-linecap="butt" d="m776.88055 -188.85432l180.0315 0l0 43.87401l-180.0315 0z" fill-rule="evenodd"/><path fill="#000000" d="m792.61194 -161.93433l0 -8.546875l-2.703125 0l0 -1.3125l2.703125 0l0 -0.6875q0 -0.953125 0.28125 -1.65625q0.28125 -0.71875 0.78125 -1.203125q0.515625 -0.484375 1.21875 -0.734375q0.71875 -0.25 1.59375 -0.25q0.59375 0 1.15625 0.109375q0.578125 0.09375 1.171875 0.25l-0.1875 1.390625q-0.375 -0.125 -0.875 -0.21875q-0.5 -0.09375 -1.0625 -0.09375q-1.1875 0.015625 -1.78125 0.609375q-0.59375 0.578125 -0.59375 1.796875l0 0.6875l3.796875 0l0 1.3125l-3.796875 0l0 8.546875l-1.703125 0zm13.048462 0.1875q-1.03125 0 -1.90625 -0.359375q-0.875 -0.359375 -1.5 -0.984375q-0.609375 -0.640625 -0.953125 -1.515625q-0.34375 -0.875 -0.34375 -1.90625l0 -0.390625q0 -1.1875 0.375 -2.125q0.390625 -0.953125 1.015625 -1.59375q0.640625 -0.65625 1.4375 -1.0q0.8125 -0.34375 1.65625 -0.34375q1.0625 0 1.859375 0.375q0.796875 0.359375 1.328125 1.015625q0.53125 0.640625 0.78125 1.53125q0.265625 0.875 0.265625 1.90625l0 0.75l-7.03125 0q0.015625 0.6875 0.25 1.28125q0.234375 0.578125 0.640625 1.03125q0.40625 0.4375 0.96875 0.703125q0.5625 0.25 1.25 0.25q0.90625 0 1.59375 -0.359375q0.703125 -0.375 1.171875 -0.96875l1.03125 0.796875q-0.25 0.375 -0.625 0.71875q-0.359375 0.328125 -0.84375 0.59375q-0.484375 0.265625 -1.09375 0.421875q-0.609375 0.171875 -1.328125 0.171875zm-0.21875 -8.84375q-0.515625 0 -0.96875 0.1875q-0.453125 0.1875 -0.8125 0.546875q-0.359375 0.359375 -0.625 0.890625q-0.25 0.515625 -0.34375 1.203125l5.296875 0l0 -0.125q-0.015625 -0.5 -0.1875 -0.984375q-0.15625 -0.484375 -0.46875 -0.859375q-0.296875 -0.390625 -0.765625 -0.625q-0.46875 -0.234375 -1.125 -0.234375zm13.539307 8.65625q-0.09375 -0.1875 -0.15625 -0.46875q-0.0625 -0.296875 -0.09375 -0.609375q-0.25 0.265625 -0.5625 0.5q-0.3125 0.21875 -0.703125 0.390625q-0.375 0.171875 -0.8125 0.265625q-0.421875 0.109375 -0.890625 0.109375q-0.796875 0 -1.4375 -0.21875q-0.625 -0.234375 -1.0625 -0.625q-0.4375 -0.390625 -0.6875 -0.921875q-0.234375 -0.53125 -0.234375 -1.15625q0 -0.8125 0.3125 -1.421875q0.328125 -0.609375 0.921875 -1.015625q0.59375 -0.40625 1.421875 -0.59375q0.84375 -0.203125 1.875 -0.203125l1.828125 0l0 -0.78125q0 -0.453125 -0.171875 -0.796875q-0.15625 -0.359375 -0.453125 -0.609375q-0.296875 -0.25 -0.734375 -0.390625q-0.421875 -0.140625 -0.96875 -0.140625q-0.5 0 -0.90625 0.140625q-0.390625 0.125 -0.671875 0.34375q-0.265625 0.203125 -0.421875 0.484375q-0.140625 0.28125 -0.140625 0.59375l-1.6875 0q0 -0.53125 0.265625 -1.046875q0.28125 -0.53125 0.78125 -0.9375q0.5 -0.421875 1.21875 -0.671875q0.734375 -0.25 1.65625 -0.25q0.84375 0 1.5625 0.203125q0.71875 0.203125 1.234375 0.625q0.53125 0.40625 0.828125 1.03125q0.296875 0.609375 0.296875 1.4375l0 4.578125q0 0.5 0.09375 1.046875q0.09375 0.546875 0.25 0.96875l0 0.140625l-1.75 0zm-2.984375 -1.28125q0.5 0 0.921875 -0.125q0.4375 -0.140625 0.78125 -0.34375q0.34375 -0.203125 0.59375 -0.46875q0.265625 -0.28125 0.40625 -0.5625l0 -2.0l-1.5625 0q-1.46875 0 -2.296875 0.4375q-0.8125 0.4375 -0.8125 1.375q0 0.359375 0.125 0.671875q0.125 0.3125 0.359375 0.53125q0.25 0.21875 0.625 0.359375q0.375 0.125 0.859375 0.125zm11.695557 -10.96875l0 2.390625l3.75 0l0 1.3125l-3.75 0l0 5.34375q0 0.578125 0.140625 0.953125q0.140625 0.375 0.390625 0.59375q0.265625 0.21875 0.59375 0.3125q0.34375 0.09375 0.71875 0.09375q0.265625 0 0.546875 -0.03125q0.296875 -0.03125 0.578125 -0.078125q0.28125 -0.046875 0.515625 -0.09375q0.25 -0.046875 0.40625 -0.09375l0.234375 1.203125q-0.21875 0.125 -0.515625 0.21875q-0.296875 0.09375 -0.65625 0.15625q-0.34375 0.078125 -0.75 0.109375q-0.390625 0.046875 -0.78125 0.046875q-0.65625 0 -1.234375 -0.1875q-0.5625 -0.1875 -0.984375 -0.59375q-0.421875 -0.40625 -0.671875 -1.046875q-0.234375 -0.640625 -0.234375 -1.5625l0 -5.34375l-2.578125 0l0 -1.3125l2.578125 0l0 -2.390625l1.703125 0zm13.601868 10.890625q-0.5 0.734375 -1.234375 1.140625q-0.734375 0.40625 -1.703125 0.40625q-0.78125 0 -1.40625 -0.234375q-0.625 -0.25 -1.078125 -0.765625q-0.4375 -0.515625 -0.6875 -1.296875q-0.234375 -0.78125 -0.234375 -1.890625l0 -5.859375l1.6875 0l0 5.875q0 0.8125 0.125 1.34375q0.125 0.515625 0.375 0.828125q0.265625 0.3125 0.625 0.453125q0.375 0.125 0.859375 0.125q1.03125 0 1.65625 -0.421875q0.640625 -0.421875 0.953125 -1.125l0 -7.078125l1.6875 0l0 9.859375l-1.53125 0l-0.09375 -1.359375zm11.258057 -8.671875q0.234375 0 0.484375 0.015625q0.265625 0 0.484375 0.03125q0.234375 0.03125 0.421875 0.078125q0.203125 0.046875 0.34375 0.109375l-0.234375 1.640625q-0.484375 -0.109375 -0.9375 -0.15625q-0.4375 -0.046875 -0.921875 -0.046875q-1.1875 0 -1.921875 0.546875q-0.734375 0.53125 -1.078125 1.484375l0 6.328125l-1.6875 0l0 -9.859375l1.59375 0l0.09375 1.5625q0.59375 -0.796875 1.4375 -1.265625q0.84375 -0.46875 1.921875 -0.46875zm9.086182 10.21875q-1.03125 0 -1.90625 -0.359375q-0.875 -0.359375 -1.5 -0.984375q-0.609375 -0.640625 -0.953125 -1.515625q-0.34375 -0.875 -0.34375 -1.90625l0 -0.390625q0 -1.1875 0.375 -2.125q0.390625 -0.953125 1.015625 -1.59375q0.640625 -0.65625 1.4375 -1.0q0.8125 -0.34375 1.65625 -0.34375q1.0625 0 1.859375 0.375q0.796875 0.359375 1.328125 1.015625q0.53125 0.640625 0.78125 1.53125q0.265625 0.875 0.265625 1.90625l0 0.75l-7.03125 0q0.015625 0.6875 0.25 1.28125q0.234375 0.578125 0.640625 1.03125q0.40625 0.4375 0.96875 0.703125q0.5625 0.25 1.25 0.25q0.90625 0 1.59375 -0.359375q0.703125 -0.375 1.171875 -0.96875l1.03125 0.796875q-0.25 0.375 -0.625 0.71875q-0.359375 0.328125 -0.84375 0.59375q-0.484375 0.265625 -1.09375 0.421875q-0.609375 0.171875 -1.328125 0.171875zm-0.21875 -8.84375q-0.515625 0 -0.96875 0.1875q-0.453125 0.1875 -0.8125 0.546875q-0.359375 0.359375 -0.625 0.890625q-0.25 0.515625 -0.34375 1.203125l5.296875 0l0 -0.125q-0.015625 -0.5 -0.1875 -0.984375q-0.15625 -0.484375 -0.46875 -0.859375q-0.296875 -0.390625 -0.765625 -0.625q-0.46875 -0.234375 -1.125 -0.234375zm14.429932 3.546875l-6.96875 0l0 -1.390625l6.96875 0l0 1.390625zm12.189087 0.296875q0 1.046875 -0.265625 1.96875q-0.25 0.90625 -0.75 1.59375q-0.484375 0.671875 -1.203125 1.0625q-0.71875 0.375 -1.65625 0.375q-0.953125 0 -1.65625 -0.328125q-0.6875 -0.34375 -1.1875 -0.984375l-0.078125 1.125l-1.546875 0l0 -14.0l1.6875 0l0 5.203125q0.484375 -0.609375 1.15625 -0.921875q0.6875 -0.3125 1.609375 -0.3125q0.9375 0 1.65625 0.375q0.734375 0.359375 1.21875 1.03125q0.5 0.65625 0.75 1.59375q0.265625 0.921875 0.265625 2.015625l0 0.203125zm-1.6875 -0.203125q0 -0.71875 -0.140625 -1.359375q-0.140625 -0.65625 -0.453125 -1.15625q-0.3125 -0.5 -0.8125 -0.78125q-0.5 -0.296875 -1.21875 -0.296875q-0.4375 0 -0.8125 0.125q-0.359375 0.109375 -0.65625 0.3125q-0.28125 0.203125 -0.5 0.484375q-0.21875 0.265625 -0.375 0.59375l0 4.3125q0.15625 0.328125 0.375 0.609375q0.234375 0.28125 0.515625 0.5q0.296875 0.203125 0.65625 0.3125q0.375 0.109375 0.8125 0.109375q0.6875 0 1.1875 -0.28125q0.5 -0.296875 0.8125 -0.78125q0.3125 -0.5 0.453125 -1.140625q0.15625 -0.640625 0.15625 -1.359375l0 -0.203125zm10.992432 -5.015625q0.234375 0 0.484375 0.015625q0.265625 0 0.484375 0.03125q0.234375 0.03125 0.421875 0.078125q0.203125 0.046875 0.34375 0.109375l-0.234375 1.640625q-0.484375 -0.109375 -0.9375 -0.15625q-0.4375 -0.046875 -0.921875 -0.046875q-1.1875 0 -1.921875 0.546875q-0.734375 0.53125 -1.078125 1.484375l0 6.328125l-1.6875 0l0 -9.859375l1.59375 0l0.09375 1.5625q0.59375 -0.796875 1.4375 -1.265625q0.84375 -0.46875 1.921875 -0.46875zm11.211182 10.03125q-0.09375 -0.1875 -0.15625 -0.46875q-0.0625 -0.296875 -0.09375 -0.609375q-0.25 0.265625 -0.5625 0.5q-0.3125 0.21875 -0.703125 0.390625q-0.375 0.171875 -0.8125 0.265625q-0.421875 0.109375 -0.890625 0.109375q-0.796875 0 -1.4375 -0.21875q-0.625 -0.234375 -1.0625 -0.625q-0.4375 -0.390625 -0.6875 -0.921875q-0.234375 -0.53125 -0.234375 -1.15625q0 -0.8125 0.3125 -1.421875q0.328125 -0.609375 0.921875 -1.015625q0.59375 -0.40625 1.421875 -0.59375q0.84375 -0.203125 1.875 -0.203125l1.828125 0l0 -0.78125q0 -0.453125 -0.171875 -0.796875q-0.15625 -0.359375 -0.453125 -0.609375q-0.296875 -0.25 -0.734375 -0.390625q-0.421875 -0.140625 -0.96875 -0.140625q-0.5 0 -0.90625 0.140625q-0.390625 0.125 -0.671875 0.34375q-0.265625 0.203125 -0.421875 0.484375q-0.140625 0.28125 -0.140625 0.59375l-1.6875 0q0 -0.53125 0.265625 -1.046875q0.28125 -0.53125 0.78125 -0.9375q0.5 -0.421875 1.21875 -0.671875q0.734375 -0.25 1.65625 -0.25q0.84375 0 1.5625 0.203125q0.71875 0.203125 1.234375 0.625q0.53125 0.40625 0.828125 1.03125q0.296875 0.609375 0.296875 1.4375l0 4.578125q0 0.5 0.09375 1.046875q0.09375 0.546875 0.25 0.96875l0 0.140625l-1.75 0zm-2.984375 -1.28125q0.5 0 0.921875 -0.125q0.4375 -0.140625 0.78125 -0.34375q0.34375 -0.203125 0.59375 -0.46875q0.265625 -0.28125 0.40625 -0.5625l0 -2.0l-1.5625 0q-1.46875 0 -2.296875 0.4375q-0.8125 0.4375 -0.8125 1.375q0 0.359375 0.125 0.671875q0.125 0.3125 0.359375 0.53125q0.25 0.21875 0.625 0.359375q0.375 0.125 0.859375 0.125zm9.211243 -8.578125l0.125 1.453125q0.53125 -0.765625 1.3125 -1.1875q0.78125 -0.4375 1.75 -0.4375q0.78125 0 1.40625 0.21875q0.640625 0.21875 1.078125 0.6875q0.453125 0.453125 0.6875 1.171875q0.25 0.71875 0.25 1.6875l0 6.265625l-1.6875 0l0 -6.21875q0 -0.65625 -0.15625 -1.109375q-0.140625 -0.453125 -0.421875 -0.734375q-0.28125 -0.296875 -0.703125 -0.421875q-0.40625 -0.125 -0.953125 -0.125q-0.84375 0 -1.484375 0.421875q-0.640625 0.421875 -1.03125 1.125l0 7.0625l-1.6875 0l0 -9.859375l1.515625 0zm13.883057 8.671875q0.453125 0 0.890625 -0.140625q0.4375 -0.140625 0.765625 -0.40625q0.34375 -0.265625 0.546875 -0.609375q0.203125 -0.359375 0.21875 -0.765625l1.59375 0q-0.015625 0.65625 -0.34375 1.265625q-0.328125 0.59375 -0.890625 1.046875q-0.5625 0.4375 -1.28125 0.71875q-0.71875 0.265625 -1.5 0.265625q-1.109375 0 -1.953125 -0.40625q-0.84375 -0.40625 -1.40625 -1.078125q-0.546875 -0.6875 -0.84375 -1.5625q-0.28125 -0.890625 -0.28125 -1.875l0 -0.390625q0 -0.96875 0.28125 -1.859375q0.296875 -0.890625 0.84375 -1.5625q0.5625 -0.6875 1.40625 -1.078125q0.84375 -0.40625 1.953125 -0.40625q0.875 0 1.609375 0.28125q0.734375 0.265625 1.265625 0.75q0.53125 0.46875 0.828125 1.125q0.3125 0.65625 0.3125 1.40625l-1.59375 0q-0.015625 -0.453125 -0.203125 -0.84375q-0.1875 -0.390625 -0.515625 -0.6875q-0.3125 -0.3125 -0.75 -0.484375q-0.4375 -0.171875 -0.953125 -0.171875q-0.78125 0 -1.3125 0.3125q-0.53125 0.3125 -0.859375 0.828125q-0.328125 0.5 -0.46875 1.140625q-0.140625 0.625 -0.140625 1.25l0 0.390625q0 0.640625 0.140625 1.28125q0.140625 0.625 0.453125 1.140625q0.328125 0.5 0.859375 0.8125q0.53125 0.3125 1.328125 0.3125zm8.679932 -7.203125q0.53125 -0.78125 1.296875 -1.203125q0.78125 -0.4375 1.75 -0.4375q0.78125 0 1.40625 0.21875q0.640625 0.21875 1.078125 0.703125q0.453125 0.46875 0.6875 1.1875q0.25 0.71875 0.25 1.71875l0 6.203125l-1.6875 0l0 -6.21875q0 -1.21875 -0.578125 -1.8125q-0.578125 -0.59375 -1.65625 -0.578125q-0.8125 0 -1.46875 0.40625q-0.65625 0.390625 -1.078125 1.046875l0 7.15625l-1.6875 0l0 -14.0l1.6875 0l0 5.609375z" fill-rule="nonzero"/><path fill="#000000" fill-opacity="0.0" d="m776.88055 -166.91733l-40.283447 0" fill-rule="evenodd"/><path stroke="#000000" stroke-width="1.0" stroke-linejoin="round" stroke-linecap="butt" d="m776.88055 -166.91733l-34.283447 0" fill-rule="evenodd"/><path fill="#000000" stroke="#000000" stroke-width="1.0" stroke-linecap="butt" d="m742.5971 -168.56906l-4.538086 1.6517334l4.538086 1.6517334z" fill-rule="evenodd"/><path fill="#000000" fill-opacity="0.0" d="m424.39896 -91.7664l89.66928 0l0 43.874016l-89.66928 0z" fill-rule="evenodd"/><path stroke="#000000" stroke-width="1.0" stroke-linejoin="round" stroke-linecap="butt" d="m424.39896 -91.7664l89.66928 0l0 43.874016l-89.66928 0z" fill-rule="evenodd"/><path fill="#000000" d="m456.7487 -64.846405l-1.59375 0l0 -6.125l-5.4375 0l0 6.125l-1.59375 0l0 -13.265625l1.59375 0l0 5.703125l5.4375 0l0 -5.703125l1.59375 0l0 13.265625zm10.164337 -6.125l-5.53125 0l0 4.6875l6.453125 0l0 1.4375l-8.140625 0l0 -13.265625l8.0625 0l0 1.4375l-6.375 0l0 4.265625l5.53125 0l0 1.4375zm10.242432 2.6875l-4.4375 0l-1.0625 3.4375l-1.6875 0l4.28125 -13.265625l1.421875 0l4.203125 13.265625l-1.671875 0l-1.046875 -3.4375zm-3.984375 -1.46875l3.53125 0l-1.75 -5.75l-1.78125 5.75zm8.664337 4.90625l0 -13.265625l3.078125 0q1.375 0.015625 2.46875 0.46875q1.09375 0.453125 1.84375 1.265625q0.75 0.796875 1.140625 1.921875q0.40625 1.125 0.40625 2.5l0 0.96875q0 1.375 -0.40625 2.5q-0.390625 1.125 -1.140625 1.9375q-0.75 0.796875 -1.84375 1.25q-1.09375 0.4375 -2.46875 0.453125l-3.078125 0zm1.71875 -11.875l0 10.5l1.359375 0q1.078125 -0.015625 1.859375 -0.375q0.78125 -0.375 1.296875 -1.0q0.515625 -0.640625 0.765625 -1.5q0.25 -0.875 0.25 -1.890625l0 -0.984375q0 -1.015625 -0.265625 -1.875q-0.25 -0.859375 -0.765625 -1.484375q-0.5 -0.640625 -1.28125 -1.0q-0.78125 -0.375 -1.859375 -0.390625l-1.359375 0z" fill-rule="nonzero"/><path fill="#000000" fill-opacity="0.0" d="m424.39896 -69.8294l-33.700806 0" fill-rule="evenodd"/><path stroke="#000000" stroke-width="1.0" stroke-linejoin="round" stroke-linecap="butt" d="m424.39896 -69.8294l-27.700806 0" fill-rule="evenodd"/><path fill="#000000" stroke="#000000" stroke-width="1.0" stroke-linecap="butt" d="m396.69815 -71.48113l-4.538086 1.6517334l4.538086 1.6517334z" fill-rule="evenodd"/><path fill="#ffffff" d="m94.68372 109.46457l0 0c0 -18.760292 15.222321 -33.968506 34.000008 -33.968506l0 0c9.017349 0 17.66539 3.5788116 24.041626 9.949142c6.376236 6.370331 9.958374 15.010353 9.958374 24.019363l0 0c0 18.760284 -15.222321 33.968506 -34.0 33.968506l0 0c-18.777687 0 -34.000008 -15.208221 -34.000008 -33.968506z" fill-rule="evenodd"/><path stroke="#000000" stroke-width="1.0" stroke-linejoin="round" stroke-linecap="butt" d="m94.68372 109.46457l0 0c0 -18.760292 15.222321 -33.968506 34.000008 -33.968506l0 0c9.017349 0 17.66539 3.5788116 24.041626 9.949142c6.376236 6.370331 9.958374 15.010353 9.958374 24.019363l0 0c0 18.760284 -15.222321 33.968506 -34.0 33.968506l0 0c-18.777687 0 -34.000008 -15.208221 -34.000008 -33.968506z" fill-rule="evenodd"/><path fill="#000000" d="m122.43069 116.38457l5.125 -13.359375l1.9062576 0l5.46875 13.359375l-2.015625 0l-1.546875 -4.046875l-5.5937576 0l-1.46875 4.046875l-1.875 0zm3.859375 -5.484375l4.5312576 0l-1.40625 -3.703125q-0.625 -1.6875 -0.9375 -2.765625q-0.265625 1.28125 -0.7187576 2.546875l-1.46875 3.921875z" fill-rule="nonzero"/><path fill="#ffffff" d="m190.33858 109.46457l0 0c0 -18.760292 15.222321 -33.968506 34.0 -33.968506l0 0c9.0173645 0 17.665405 3.5788116 24.041641 9.949142c6.376236 6.370331 9.958374 15.010353 9.958374 24.019363l0 0c0 18.760284 -15.222336 33.968506 -34.000015 33.968506l0 0c-18.77768 0 -34.0 -15.208221 -34.0 -33.968506z" fill-rule="evenodd"/><path stroke="#000000" stroke-width="1.0" stroke-linejoin="round" stroke-linecap="butt" d="m190.33858 109.46457l0 0c0 -18.760292 15.222321 -33.968506 34.0 -33.968506l0 0c9.0173645 0 17.665405 3.5788116 24.041641 9.949142c6.376236 6.370331 9.958374 15.010353 9.958374 24.019363l0 0c0 18.760284 -15.222336 33.968506 -34.000015 33.968506l0 0c-18.77768 0 -34.0 -15.208221 -34.0 -33.968506z" fill-rule="evenodd"/><path fill="#000000" d="m219.47617 116.38457l0 -13.359375l5.015625 0q1.53125 0 2.453125 0.40625q0.921875 0.40625 1.4375 1.25q0.53125 0.84375 0.53125 1.765625q0 0.859375 -0.46875 1.625q-0.453125 0.75 -1.390625 1.203125q1.203125 0.359375 1.859375 1.21875q0.65625 0.859375 0.65625 2.015625q0 0.9375 -0.40625 1.75q-0.390625 0.796875 -0.984375 1.234375q-0.578125 0.4375 -1.453125 0.671875q-0.875 0.21875 -2.15625 0.21875l-5.09375 0zm1.78125 -7.75l2.875 0q1.1875 0 1.6875 -0.140625q0.671875 -0.203125 1.015625 -0.671875q0.34375 -0.46875 0.34375 -1.171875q0 -0.65625 -0.328125 -1.15625q-0.3125 -0.515625 -0.90625 -0.703125q-0.59375 -0.1875 -2.03125 -0.1875l-2.65625 0l0 4.03125zm0 6.171875l3.3125 0q0.859375 0 1.203125 -0.0625q0.609375 -0.109375 1.015625 -0.359375q0.421875 -0.265625 0.6875 -0.75q0.265625 -0.484375 0.265625 -1.125q0 -0.75 -0.390625 -1.296875q-0.375 -0.546875 -1.0625 -0.765625q-0.671875 -0.234375 -1.953125 -0.234375l-3.078125 0l0 4.59375z" fill-rule="nonzero"/><path fill="#ffffff" d="m285.99344 69.46457l0 0c0 -18.760288 15.222321 -33.968506 34.0 -33.968506l0 0c9.0173645 0 17.665405 3.5788155 24.041626 9.949142c6.376251 6.370331 9.958374 15.010353 9.958374 24.019363l0 0c0 18.760284 -15.222321 33.9685 -34.0 33.9685l0 0c-18.77768 0 -34.0 -15.208214 -34.0 -33.9685z" fill-rule="evenodd"/><path stroke="#000000" stroke-width="1.0" stroke-linejoin="round" stroke-linecap="butt" d="m285.99344 69.46457l0 0c0 -18.760288 15.222321 -33.968506 34.0 -33.968506l0 0c9.0173645 0 17.665405 3.5788155 24.041626 9.949142c6.376251 6.370331 9.958374 15.010353 9.958374 24.019363l0 0c0 18.760284 -15.222321 33.9685 -34.0 33.9685l0 0c-18.77768 0 -34.0 -15.208214 -34.0 -33.9685z" fill-rule="evenodd"/><path fill="#000000" d="m314.75696 76.38457l0 -13.359379l1.765625 0l0 5.484379l6.9375 0l0 -5.484379l1.765625 0l0 13.359379l-1.765625 0l0 -6.296875l-6.9375 0l0 6.296875l-1.765625 0z" fill-rule="nonzero"/><path fill="#ffffff" d="m381.6483 69.46457l0 0c0 -18.760288 15.222321 -33.968506 34.0 -33.968506l0 0c9.0173645 0 17.665405 3.5788155 24.041626 9.949142c6.376251 6.370331 9.958374 15.010353 9.958374 24.019363l0 0c0 18.760284 -15.222321 33.9685 -34.0 33.9685l0 0c-18.77768 0 -34.0 -15.208214 -34.0 -33.9685z" fill-rule="evenodd"/><path stroke="#000000" stroke-width="1.0" stroke-linejoin="round" stroke-linecap="butt" d="m381.6483 69.46457l0 0c0 -18.760288 15.222321 -33.968506 34.0 -33.968506l0 0c9.0173645 0 17.665405 3.5788155 24.041626 9.949142c6.376251 6.370331 9.958374 15.010353 9.958374 24.019363l0 0c0 18.760284 -15.222321 33.9685 -34.0 33.9685l0 0c-18.77768 0 -34.0 -15.208214 -34.0 -33.9685z" fill-rule="evenodd"/><path fill="#000000" d="m414.79102 76.38457l0 -13.359379l1.765625 0l0 13.359379l-1.765625 0z" fill-rule="nonzero"/><path fill="#ffffff" d="m477.30316 69.46457l0 0c0 -18.760288 15.222321 -33.968506 34.0 -33.968506l0 0c9.017334 0 17.665405 3.5788155 24.041626 9.949142c6.3762207 6.370331 9.958374 15.010353 9.958374 24.019363l0 0c0 18.760284 -15.222351 33.9685 -34.0 33.9685l0 0c-18.77768 0 -34.0 -15.208214 -34.0 -33.9685z" fill-rule="evenodd"/><path stroke="#000000" stroke-width="1.0" stroke-linejoin="round" stroke-linecap="butt" d="m477.30316 69.46457l0 0c0 -18.760288 15.222321 -33.968506 34.0 -33.968506l0 0c9.017334 0 17.665405 3.5788155 24.041626 9.949142c6.3762207 6.370331 9.958374 15.010353 9.958374 24.019363l0 0c0 18.760284 -15.222351 33.9685 -34.0 33.9685l0 0c-18.77768 0 -34.0 -15.208214 -34.0 -33.9685z" fill-rule="evenodd"/><path fill="#000000" d="m507.17035 72.58769l1.59375 -0.21875q0.078125 1.53125 0.578125 2.109375q0.515625 0.5625 1.421875 0.5625q0.65625 0 1.140625 -0.296875q0.484375 -0.3125 0.65625 -0.828125q0.1875 -0.53125 0.1875 -1.6875l0 -9.203129l1.765625 0l0 9.109379q0 1.671875 -0.40625 2.59375q-0.40625 0.921875 -1.28125 1.40625q-0.875 0.484375 -2.0625 0.484375q-1.75 0 -2.6875 -1.015625q-0.9375 -1.015625 -0.90625 -3.015625z" fill-rule="nonzero"/><path fill="#000000" fill-opacity="0.0" d="m162.68373 109.46457l27.653534 0" fill-rule="evenodd"/><path stroke="#000000" stroke-width="1.0" stroke-linejoin="round" stroke-linecap="butt" d="m162.68373 109.46457l21.653534 0" fill-rule="evenodd"/><path fill="#000000" stroke="#000000" stroke-width="1.0" stroke-linecap="butt" d="m184.33727 111.1163l4.538101 -1.6517334l-4.538101 -1.6517334z" fill-rule="evenodd"/><path fill="#000000" fill-opacity="0.0" d="m258.3386 109.46457l27.653534 -40.0" fill-rule="evenodd"/><path stroke="#000000" stroke-width="1.0" stroke-linejoin="round" stroke-linecap="butt" d="m258.3386 109.46457l24.241516 -35.064613" fill-rule="evenodd"/><path fill="#000000" stroke="#000000" stroke-width="1.0" stroke-linecap="butt" d="m283.93875 75.33925l1.2220459 -4.6721725l-3.9393616 2.7935867z" fill-rule="evenodd"/><path fill="#000000" fill-opacity="0.0" d="m353.99344 69.46457l27.653534 0" fill-rule="evenodd"/><path stroke="#000000" stroke-width="1.0" stroke-linejoin="round" stroke-linecap="butt" d="m353.99344 69.46457l21.653534 0" fill-rule="evenodd"/><path fill="#000000" stroke="#000000" stroke-width="1.0" stroke-linecap="butt" d="m375.64697 71.1163l4.5381165 -1.6517334l-4.5381165 -1.6517334z" fill-rule="evenodd"/><path fill="#000000" fill-opacity="0.0" d="m449.6483 69.46457l27.653564 0" fill-rule="evenodd"/><path stroke="#000000" stroke-width="1.0" stroke-linejoin="round" stroke-linecap="butt" d="m449.6483 69.46457l21.653564 0" fill-rule="evenodd"/><path fill="#000000" stroke="#000000" stroke-width="1.0" stroke-linecap="butt" d="m471.30185 71.1163l4.538086 -1.6517334l-4.538086 -1.6517334z" fill-rule="evenodd"/><path fill="#000000" fill-opacity="0.0" d="m265.2848 190.54987l-16.913406 -57.07086" fill-rule="evenodd"/><path stroke="#000000" stroke-width="1.0" stroke-linejoin="round" stroke-linecap="butt" d="m265.2848 190.54987l-15.208557 -51.31816" fill-rule="evenodd"/><path fill="#000000" stroke="#000000" stroke-width="1.0" stroke-linecap="butt" d="m251.6599 138.76237l-2.8731232 -3.8817291l-0.2941742 4.8203735z" fill-rule="evenodd"/><path fill="#000000" fill-opacity="0.0" d="m265.2848 168.61285l109.4173 0l0 43.874023l-109.4173 0z" fill-rule="evenodd"/><path stroke="#000000" stroke-width="1.0" stroke-linejoin="round" stroke-linecap="butt" d="m265.2848 168.61285l109.4173 0l0 43.874023l-109.4173 0z" fill-rule="evenodd"/><path fill="#000000" d="m288.76608 185.67348l0.046875 0.9375q0.296875 -0.53125 0.78125 -0.8125q0.5 -0.296875 1.1875 -0.296875q1.359375 0 1.8125 1.046875q0.296875 -0.46875 0.765625 -0.75q0.484375 -0.296875 1.15625 -0.296875q1.09375 0 1.671875 0.671875q0.578125 0.65625 0.578125 2.0l0 7.359375l-1.59375 0l0 -7.375q0 -1.25 -1.140625 -1.234375q-0.296875 0 -0.515625 0.09375q-0.21875 0.078125 -0.375 0.21875q-0.140625 0.140625 -0.21875 0.328125q-0.078125 0.1875 -0.109375 0.375l0 7.59375l-1.609375 0l0 -7.390625q0 -0.59375 -0.265625 -0.90625q-0.265625 -0.328125 -0.828125 -0.3125q-0.53125 0 -0.828125 0.21875q-0.28125 0.203125 -0.421875 0.546875l0 7.84375l-1.609375 0l0 -9.859375l1.515625 0zm16.898712 9.859375q-0.09375 -0.1875 -0.15625 -0.46875q-0.0625 -0.296875 -0.09375 -0.609375q-0.25 0.265625 -0.5625 0.5q-0.3125 0.21875 -0.703125 0.390625q-0.375 0.171875 -0.8125 0.265625q-0.421875 0.109375 -0.890625 0.109375q-0.796875 0 -1.4375 -0.21875q-0.625 -0.234375 -1.0625 -0.625q-0.4375 -0.390625 -0.6875 -0.921875q-0.234375 -0.53125 -0.234375 -1.15625q0 -0.8125 0.3125 -1.421875q0.328125 -0.609375 0.921875 -1.015625q0.59375 -0.40625 1.421875 -0.59375q0.84375 -0.203125 1.875 -0.203125l1.828125 0l0 -0.78125q0 -0.453125 -0.171875 -0.796875q-0.15625 -0.359375 -0.453125 -0.609375q-0.296875 -0.25 -0.734375 -0.390625q-0.421875 -0.140625 -0.96875 -0.140625q-0.5 0 -0.90625 0.140625q-0.390625 0.125 -0.671875 0.34375q-0.265625 0.203125 -0.421875 0.484375q-0.140625 0.28125 -0.140625 0.59375l-1.6875 0q0 -0.53125 0.265625 -1.046875q0.28125 -0.53125 0.78125 -0.9375q0.5 -0.421875 1.21875 -0.671875q0.734375 -0.25 1.65625 -0.25q0.84375 0 1.5625 0.203125q0.71875 0.203125 1.234375 0.625q0.53125 0.40625 0.828125 1.03125q0.296875 0.609375 0.296875 1.4375l0 4.578125q0 0.5 0.09375 1.046875q0.09375 0.546875 0.25 0.96875l0 0.140625l-1.75 0zm-2.984375 -1.28125q0.5 0 0.921875 -0.125q0.4375 -0.140625 0.78125 -0.34375q0.34375 -0.203125 0.59375 -0.46875q0.265625 -0.28125 0.40625 -0.5625l0 -2.0l-1.5625 0q-1.46875 0 -2.296875 0.4375q-0.8125 0.4375 -0.8125 1.375q0 0.359375 0.125 0.671875q0.125 0.3125 0.359375 0.53125q0.25 0.21875 0.625 0.359375q0.375 0.125 0.859375 0.125zm14.258057 -1.328125q0 -0.3125 -0.125 -0.546875q-0.125 -0.234375 -0.40625 -0.4375q-0.28125 -0.203125 -0.75 -0.375q-0.453125 -0.171875 -1.140625 -0.296875q-0.859375 -0.1875 -1.5625 -0.421875q-0.6875 -0.25 -1.1875 -0.59375q-0.484375 -0.34375 -0.765625 -0.796875q-0.265625 -0.46875 -0.265625 -1.078125q0 -0.59375 0.28125 -1.109375q0.28125 -0.53125 0.78125 -0.921875q0.515625 -0.390625 1.21875 -0.609375q0.703125 -0.234375 1.5625 -0.234375q0.90625 0 1.625 0.234375q0.734375 0.234375 1.25 0.65625q0.515625 0.40625 0.78125 0.96875q0.28125 0.5625 0.28125 1.21875l-1.6875 0q0 -0.328125 -0.171875 -0.625q-0.15625 -0.3125 -0.453125 -0.546875q-0.28125 -0.234375 -0.703125 -0.375q-0.40625 -0.15625 -0.921875 -0.15625q-0.546875 0 -0.953125 0.125q-0.40625 0.109375 -0.671875 0.3125q-0.265625 0.203125 -0.40625 0.46875q-0.140625 0.265625 -0.140625 0.546875q0 0.28125 0.109375 0.515625q0.109375 0.234375 0.375 0.421875q0.28125 0.171875 0.734375 0.328125q0.453125 0.140625 1.140625 0.265625q0.90625 0.203125 1.625 0.453125q0.71875 0.25 1.203125 0.609375q0.5 0.34375 0.75 0.8125q0.265625 0.453125 0.265625 1.0625q0 0.65625 -0.296875 1.203125q-0.28125 0.53125 -0.8125 0.921875q-0.53125 0.375 -1.265625 0.59375q-0.734375 0.203125 -1.609375 0.203125q-1.015625 0 -1.796875 -0.265625q-0.78125 -0.28125 -1.328125 -0.71875q-0.53125 -0.4375 -0.828125 -1.015625q-0.28125 -0.59375 -0.28125 -1.21875l1.6875 0q0.03125 0.515625 0.265625 0.875q0.25 0.359375 0.609375 0.578125q0.359375 0.21875 0.796875 0.3125q0.4375 0.078125 0.875 0.078125q1.0625 0 1.671875 -0.390625q0.625 -0.390625 0.640625 -1.03125zm8.633087 -9.640625l0 2.390625l3.75 0l0 1.3125l-3.75 0l0 5.34375q0 0.578125 0.140625 0.953125q0.140625 0.375 0.390625 0.59375q0.265625 0.21875 0.59375 0.3125q0.34375 0.09375 0.71875 0.09375q0.265625 0 0.546875 -0.03125q0.296875 -0.03125 0.578125 -0.078125q0.28125 -0.046875 0.515625 -0.09375q0.25 -0.046875 0.40625 -0.09375l0.234375 1.203125q-0.21875 0.125 -0.515625 0.21875q-0.296875 0.09375 -0.65625 0.15625q-0.34375 0.078125 -0.75 0.109375q-0.390625 0.046875 -0.78125 0.046875q-0.65625 0 -1.234375 -0.1875q-0.5625 -0.1875 -0.984375 -0.59375q-0.421875 -0.40625 -0.671875 -1.046875q-0.234375 -0.640625 -0.234375 -1.5625l0 -5.34375l-2.578125 0l0 -1.3125l2.578125 0l0 -2.390625l1.703125 0zm11.554962 12.4375q-1.03125 0 -1.90625 -0.359375q-0.875 -0.359375 -1.5 -0.984375q-0.609375 -0.640625 -0.953125 -1.515625q-0.34375 -0.875 -0.34375 -1.90625l0 -0.390625q0 -1.1875 0.375 -2.125q0.390625 -0.953125 1.015625 -1.59375q0.640625 -0.65625 1.4375 -1.0q0.8125 -0.34375 1.65625 -0.34375q1.0625 0 1.859375 0.375q0.796875 0.359375 1.328125 1.015625q0.53125 0.640625 0.78125 1.53125q0.265625 0.875 0.265625 1.90625l0 0.75l-7.03125 0q0.015625 0.6875 0.25 1.28125q0.234375 0.578125 0.640625 1.03125q0.40625 0.4375 0.96875 0.703125q0.5625 0.25 1.25 0.25q0.90625 0 1.59375 -0.359375q0.703125 -0.375 1.171875 -0.96875l1.03125 0.796875q-0.25 0.375 -0.625 0.71875q-0.359375 0.328125 -0.84375 0.59375q-0.484375 0.265625 -1.09375 0.421875q-0.609375 0.171875 -1.328125 0.171875zm-0.21875 -8.84375q-0.515625 0 -0.96875 0.1875q-0.453125 0.1875 -0.8125 0.546875q-0.359375 0.359375 -0.625 0.890625q-0.25 0.515625 -0.34375 1.203125l5.296875 0l0 -0.125q-0.015625 -0.5 -0.1875 -0.984375q-0.15625 -0.484375 -0.46875 -0.859375q-0.296875 -0.390625 -0.765625 -0.625q-0.46875 -0.234375 -1.125 -0.234375zm13.523682 -1.375q0.234375 0 0.484375 0.015625q0.265625 0 0.484375 0.03125q0.234375 0.03125 0.421875 0.078125q0.203125 0.046875 0.34375 0.109375l-0.234375 1.640625q-0.484375 -0.109375 -0.9375 -0.15625q-0.4375 -0.046875 -0.921875 -0.046875q-1.1875 0 -1.921875 0.546875q-0.734375 0.53125 -1.078125 1.484375l0 6.328125l-1.6875 0l0 -9.859375l1.59375 0l0.09375 1.5625q0.59375 -0.796875 1.4375 -1.265625q0.84375 -0.46875 1.921875 -0.46875z" fill-rule="nonzero"/><path fill="#000000" fill-opacity="0.0" d="m586.8858 47.526245l180.0315 0l0 43.874016l-180.0315 0z" fill-rule="evenodd"/><path stroke="#000000" stroke-width="1.0" stroke-linejoin="round" stroke-linecap="butt" d="m586.8858 47.526245l180.0315 0l0 43.874016l-180.0315 0z" fill-rule="evenodd"/><path fill="#000000" d="m602.6172 74.44624l0 -8.546875l-2.703125 0l0 -1.3125l2.703125 0l0 -0.6875q0 -0.953125 0.28125 -1.65625q0.28125 -0.71875 0.78125 -1.203125q0.515625 -0.484375 1.21875 -0.734375q0.71875 -0.25 1.59375 -0.25q0.59375 0 1.15625 0.109375q0.578125 0.09375 1.171875 0.25l-0.1875 1.390625q-0.375 -0.125 -0.875 -0.21875q-0.5 -0.09375 -1.0625 -0.09375q-1.1875 0.015625 -1.78125 0.609375q-0.59375 0.578125 -0.59375 1.796875l0 0.6875l3.796875 0l0 1.3125l-3.796875 0l0 8.546875l-1.703125 0zm13.048462 0.1875q-1.03125 0 -1.90625 -0.359375q-0.875 -0.359375 -1.5 -0.984375q-0.609375 -0.640625 -0.953125 -1.515625q-0.34375 -0.875 -0.34375 -1.90625l0 -0.390625q0 -1.1875 0.375 -2.125q0.390625 -0.953125 1.015625 -1.59375q0.640625 -0.65625 1.4375 -1.0q0.8125 -0.34375 1.65625 -0.34375q1.0625 0 1.859375 0.375q0.796875 0.359375 1.328125 1.015625q0.53125 0.640625 0.78125 1.53125q0.265625 0.875 0.265625 1.90625l0 0.75l-7.03125 0q0.015625 0.6875 0.25 1.28125q0.234375 0.578125 0.640625 1.03125q0.40625 0.4375 0.96875 0.703125q0.5625 0.25 1.25 0.25q0.90625 0 1.59375 -0.359375q0.703125 -0.375 1.171875 -0.96875l1.03125 0.796875q-0.25 0.375 -0.625 0.71875q-0.359375 0.328125 -0.84375 0.59375q-0.484375 0.265625 -1.09375 0.421875q-0.609375 0.171875 -1.328125 0.171875zm-0.21875 -8.84375q-0.515625 0 -0.96875 0.1875q-0.453125 0.1875 -0.8125 0.546875q-0.359375 0.359375 -0.625 0.890625q-0.25 0.515625 -0.34375 1.203125l5.296875 0l0 -0.125q-0.015625 -0.5 -0.1875 -0.984375q-0.15625 -0.484375 -0.46875 -0.859375q-0.296875 -0.390625 -0.765625 -0.625q-0.46875 -0.234375 -1.125 -0.234375zm13.539307 8.65625q-0.09375 -0.1875 -0.15625 -0.46875q-0.0625 -0.296875 -0.09375 -0.609375q-0.25 0.265625 -0.5625 0.5q-0.3125 0.21875 -0.703125 0.390625q-0.375 0.171875 -0.8125 0.265625q-0.421875 0.109375 -0.890625 0.109375q-0.796875 0 -1.4375 -0.21875q-0.625 -0.234375 -1.0625 -0.625q-0.4375 -0.390625 -0.6875 -0.921875q-0.234375 -0.53125 -0.234375 -1.15625q0 -0.8125 0.3125 -1.421875q0.328125 -0.609375 0.921875 -1.015625q0.59375 -0.40625 1.421875 -0.59375q0.84375 -0.203125 1.875 -0.203125l1.828125 0l0 -0.78125q0 -0.453125 -0.171875 -0.796875q-0.15625 -0.359375 -0.453125 -0.609375q-0.296875 -0.25 -0.734375 -0.390625q-0.421875 -0.140625 -0.96875 -0.140625q-0.5 0 -0.90625 0.140625q-0.390625 0.125 -0.671875 0.34375q-0.265625 0.203125 -0.421875 0.484375q-0.140625 0.28125 -0.140625 0.59375l-1.6875 0q0 -0.53125 0.265625 -1.046875q0.28125 -0.53125 0.78125 -0.9375q0.5 -0.421875 1.21875 -0.671875q0.734375 -0.25 1.65625 -0.25q0.84375 0 1.5625 0.203125q0.71875 0.203125 1.234375 0.625q0.53125 0.40625 0.828125 1.03125q0.296875 0.609375 0.296875 1.4375l0 4.578125q0 0.5 0.09375 1.046875q0.09375 0.546875 0.25 0.96875l0 0.140625l-1.75 0zm-2.984375 -1.28125q0.5 0 0.921875 -0.125q0.4375 -0.140625 0.78125 -0.34375q0.34375 -0.203125 0.59375 -0.46875q0.265625 -0.28125 0.40625 -0.5625l0 -2.0l-1.5625 0q-1.46875 0 -2.296875 0.4375q-0.8125 0.4375 -0.8125 1.375q0 0.359375 0.125 0.671875q0.125 0.3125 0.359375 0.53125q0.25 0.21875 0.625 0.359375q0.375 0.125 0.859375 0.125zm11.695557 -10.96875l0 2.390625l3.75 0l0 1.3125l-3.75 0l0 5.34375q0 0.578125 0.140625 0.953125q0.140625 0.375 0.390625 0.59375q0.265625 0.21875 0.59375 0.3125q0.34375 0.09375 0.71875 0.09375q0.265625 0 0.546875 -0.03125q0.296875 -0.03125 0.578125 -0.078125q0.28125 -0.046875 0.515625 -0.09375q0.25 -0.046875 0.40625 -0.09375l0.234375 1.203125q-0.21875 0.125 -0.515625 0.21875q-0.296875 0.09375 -0.65625 0.15625q-0.34375 0.078125 -0.75 0.109375q-0.390625 0.046875 -0.78125 0.046875q-0.65625 0 -1.234375 -0.1875q-0.5625 -0.1875 -0.984375 -0.59375q-0.421875 -0.40625 -0.671875 -1.046875q-0.234375 -0.640625 -0.234375 -1.5625l0 -5.34375l-2.578125 0l0 -1.3125l2.578125 0l0 -2.390625l1.703125 0zm13.601868 10.890625q-0.5 0.734375 -1.234375 1.140625q-0.734375 0.40625 -1.703125 0.40625q-0.78125 0 -1.40625 -0.234375q-0.625 -0.25 -1.078125 -0.765625q-0.4375 -0.515625 -0.6875 -1.296875q-0.234375 -0.78125 -0.234375 -1.890625l0 -5.859375l1.6875 0l0 5.875q0 0.8125 0.125 1.34375q0.125 0.515625 0.375 0.828125q0.265625 0.3125 0.625 0.453125q0.375 0.125 0.859375 0.125q1.03125 0 1.65625 -0.421875q0.640625 -0.421875 0.953125 -1.125l0 -7.078125l1.6875 0l0 9.859375l-1.53125 0l-0.09375 -1.359375zm11.258057 -8.671875q0.234375 0 0.484375 0.015625q0.265625 0 0.484375 0.03125q0.234375 0.03125 0.421875 0.078125q0.203125 0.046875 0.34375 0.109375l-0.234375 1.640625q-0.484375 -0.109375 -0.9375 -0.15625q-0.4375 -0.046875 -0.921875 -0.046875q-1.1875 0 -1.921875 0.546875q-0.734375 0.53125 -1.078125 1.484375l0 6.328125l-1.6875 0l0 -9.859375l1.59375 0l0.09375 1.5625q0.59375 -0.796875 1.4375 -1.265625q0.84375 -0.46875 1.921875 -0.46875zm9.086182 10.21875q-1.03125 0 -1.90625 -0.359375q-0.875 -0.359375 -1.5 -0.984375q-0.609375 -0.640625 -0.953125 -1.515625q-0.34375 -0.875 -0.34375 -1.90625l0 -0.390625q0 -1.1875 0.375 -2.125q0.390625 -0.953125 1.015625 -1.59375q0.640625 -0.65625 1.4375 -1.0q0.8125 -0.34375 1.65625 -0.34375q1.0625 0 1.859375 0.375q0.796875 0.359375 1.328125 1.015625q0.53125 0.640625 0.78125 1.53125q0.265625 0.875 0.265625 1.90625l0 0.75l-7.03125 0q0.015625 0.6875 0.25 1.28125q0.234375 0.578125 0.640625 1.03125q0.40625 0.4375 0.96875 0.703125q0.5625 0.25 1.25 0.25q0.90625 0 1.59375 -0.359375q0.703125 -0.375 1.171875 -0.96875l1.03125 0.796875q-0.25 0.375 -0.625 0.71875q-0.359375 0.328125 -0.84375 0.59375q-0.484375 0.265625 -1.09375 0.421875q-0.609375 0.171875 -1.328125 0.171875zm-0.21875 -8.84375q-0.515625 0 -0.96875 0.1875q-0.453125 0.1875 -0.8125 0.546875q-0.359375 0.359375 -0.625 0.890625q-0.25 0.515625 -0.34375 1.203125l5.296875 0l0 -0.125q-0.015625 -0.5 -0.1875 -0.984375q-0.15625 -0.484375 -0.46875 -0.859375q-0.296875 -0.390625 -0.765625 -0.625q-0.46875 -0.234375 -1.125 -0.234375zm14.429932 3.546875l-6.96875 0l0 -1.390625l6.96875 0l0 1.390625zm12.189087 0.296875q0 1.046875 -0.265625 1.96875q-0.25 0.90625 -0.75 1.59375q-0.484375 0.671875 -1.203125 1.0625q-0.71875 0.375 -1.65625 0.375q-0.953125 0 -1.65625 -0.328125q-0.6875 -0.34375 -1.1875 -0.984375l-0.078125 1.125l-1.546875 0l0 -14.0l1.6875 0l0 5.203125q0.484375 -0.609375 1.15625 -0.921875q0.6875 -0.3125 1.609375 -0.3125q0.9375 0 1.65625 0.375q0.734375 0.359375 1.21875 1.03125q0.5 0.65625 0.75 1.59375q0.265625 0.921875 0.265625 2.015625l0 0.203125zm-1.6875 -0.203125q0 -0.71875 -0.140625 -1.359375q-0.140625 -0.65625 -0.453125 -1.15625q-0.3125 -0.5 -0.8125 -0.78125q-0.5 -0.296875 -1.21875 -0.296875q-0.4375 0 -0.8125 0.125q-0.359375 0.109375 -0.65625 0.3125q-0.28125 0.203125 -0.5 0.484375q-0.21875 0.265625 -0.375 0.59375l0 4.3125q0.15625 0.328125 0.375 0.609375q0.234375 0.28125 0.515625 0.5q0.296875 0.203125 0.65625 0.3125q0.375 0.109375 0.8125 0.109375q0.6875 0 1.1875 -0.28125q0.5 -0.296875 0.8125 -0.78125q0.3125 -0.5 0.453125 -1.140625q0.15625 -0.640625 0.15625 -1.359375l0 -0.203125zm10.992432 -5.015625q0.234375 0 0.484375 0.015625q0.265625 0 0.484375 0.03125q0.234375 0.03125 0.421875 0.078125q0.203125 0.046875 0.34375 0.109375l-0.234375 1.640625q-0.484375 -0.109375 -0.9375 -0.15625q-0.4375 -0.046875 -0.921875 -0.046875q-1.1875 0 -1.921875 0.546875q-0.734375 0.53125 -1.078125 1.484375l0 6.328125l-1.6875 0l0 -9.859375l1.59375 0l0.09375 1.5625q0.59375 -0.796875 1.4375 -1.265625q0.84375 -0.46875 1.921875 -0.46875zm11.211182 10.03125q-0.09375 -0.1875 -0.15625 -0.46875q-0.0625 -0.296875 -0.09375 -0.609375q-0.25 0.265625 -0.5625 0.5q-0.3125 0.21875 -0.703125 0.390625q-0.375 0.171875 -0.8125 0.265625q-0.421875 0.109375 -0.890625 0.109375q-0.796875 0 -1.4375 -0.21875q-0.625 -0.234375 -1.0625 -0.625q-0.4375 -0.390625 -0.6875 -0.921875q-0.234375 -0.53125 -0.234375 -1.15625q0 -0.8125 0.3125 -1.421875q0.328125 -0.609375 0.921875 -1.015625q0.59375 -0.40625 1.421875 -0.59375q0.84375 -0.203125 1.875 -0.203125l1.828125 0l0 -0.78125q0 -0.453125 -0.171875 -0.796875q-0.15625 -0.359375 -0.453125 -0.609375q-0.296875 -0.25 -0.734375 -0.390625q-0.421875 -0.140625 -0.96875 -0.140625q-0.5 0 -0.90625 0.140625q-0.390625 0.125 -0.671875 0.34375q-0.265625 0.203125 -0.421875 0.484375q-0.140625 0.28125 -0.140625 0.59375l-1.6875 0q0 -0.53125 0.265625 -1.046875q0.28125 -0.53125 0.78125 -0.9375q0.5 -0.421875 1.21875 -0.671875q0.734375 -0.25 1.65625 -0.25q0.84375 0 1.5625 0.203125q0.71875 0.203125 1.234375 0.625q0.53125 0.40625 0.828125 1.03125q0.296875 0.609375 0.296875 1.4375l0 4.578125q0 0.5 0.09375 1.046875q0.09375 0.546875 0.25 0.96875l0 0.140625l-1.75 0zm-2.984375 -1.28125q0.5 0 0.921875 -0.125q0.4375 -0.140625 0.78125 -0.34375q0.34375 -0.203125 0.59375 -0.46875q0.265625 -0.28125 0.40625 -0.5625l0 -2.0l-1.5625 0q-1.46875 0 -2.296875 0.4375q-0.8125 0.4375 -0.8125 1.375q0 0.359375 0.125 0.671875q0.125 0.3125 0.359375 0.53125q0.25 0.21875 0.625 0.359375q0.375 0.125 0.859375 0.125zm9.211243 -8.578125l0.125 1.453125q0.53125 -0.765625 1.3125 -1.1875q0.78125 -0.4375 1.75 -0.4375q0.78125 0 1.40625 0.21875q0.640625 0.21875 1.078125 0.6875q0.453125 0.453125 0.6875 1.171875q0.25 0.71875 0.25 1.6875l0 6.265625l-1.6875 0l0 -6.21875q0 -0.65625 -0.15625 -1.109375q-0.140625 -0.453125 -0.421875 -0.734375q-0.28125 -0.296875 -0.703125 -0.421875q-0.40625 -0.125 -0.953125 -0.125q-0.84375 0 -1.484375 0.421875q-0.640625 0.421875 -1.03125 1.125l0 7.0625l-1.6875 0l0 -9.859375l1.515625 0zm13.883057 8.671875q0.453125 0 0.890625 -0.140625q0.4375 -0.140625 0.765625 -0.40625q0.34375 -0.265625 0.546875 -0.609375q0.203125 -0.359375 0.21875 -0.765625l1.59375 0q-0.015625 0.65625 -0.34375 1.265625q-0.328125 0.59375 -0.890625 1.046875q-0.5625 0.4375 -1.28125 0.71875q-0.71875 0.265625 -1.5 0.265625q-1.109375 0 -1.953125 -0.40625q-0.84375 -0.40625 -1.40625 -1.078125q-0.546875 -0.6875 -0.84375 -1.5625q-0.28125 -0.890625 -0.28125 -1.875l0 -0.390625q0 -0.96875 0.28125 -1.859375q0.296875 -0.890625 0.84375 -1.5625q0.5625 -0.6875 1.40625 -1.078125q0.84375 -0.40625 1.953125 -0.40625q0.875 0 1.609375 0.28125q0.734375 0.265625 1.265625 0.75q0.53125 0.46875 0.828125 1.125q0.3125 0.65625 0.3125 1.40625l-1.59375 0q-0.015625 -0.453125 -0.203125 -0.84375q-0.1875 -0.390625 -0.515625 -0.6875q-0.3125 -0.3125 -0.75 -0.484375q-0.4375 -0.171875 -0.953125 -0.171875q-0.78125 0 -1.3125 0.3125q-0.53125 0.3125 -0.859375 0.828125q-0.328125 0.5 -0.46875 1.140625q-0.140625 0.625 -0.140625 1.25l0 0.390625q0 0.640625 0.140625 1.28125q0.140625 0.625 0.453125 1.140625q0.328125 0.5 0.859375 0.8125q0.53125 0.3125 1.328125 0.3125zm8.679932 -7.203125q0.53125 -0.78125 1.296875 -1.203125q0.78125 -0.4375 1.75 -0.4375q0.78125 0 1.40625 0.21875q0.640625 0.21875 1.078125 0.703125q0.453125 0.46875 0.6875 1.1875q0.25 0.71875 0.25 1.71875l0 6.203125l-1.6875 0l0 -6.21875q0 -1.21875 -0.578125 -1.8125q-0.578125 -0.59375 -1.65625 -0.578125q-0.8125 0 -1.46875 0.40625q-0.65625 0.390625 -1.078125 1.046875l0 7.15625l-1.6875 0l0 -14.0l1.6875 0l0 5.609375z" fill-rule="nonzero"/><path fill="#000000" fill-opacity="0.0" d="m586.8858 69.46326l-41.574768 0" fill-rule="evenodd"/><path stroke="#000000" stroke-width="1.0" stroke-linejoin="round" stroke-linecap="butt" d="m586.8858 69.46326l-35.574768 0" fill-rule="evenodd"/><path fill="#000000" stroke="#000000" stroke-width="1.0" stroke-linecap="butt" d="m551.31104 67.81152l-4.538086 1.6517334l4.538086 1.6517334z" fill-rule="evenodd"/><path fill="#000000" fill-opacity="0.0" d="m808.50134 47.527557l89.66925 0l0 43.874016l-89.66925 0z" fill-rule="evenodd"/><path stroke="#000000" stroke-width="1.0" stroke-linejoin="round" stroke-linecap="butt" d="m808.50134 47.527557l89.66925 0l0 43.874016l-89.66925 0z" fill-rule="evenodd"/><path fill="#000000" d="m840.8511 74.447556l-1.59375 0l0 -6.125l-5.4375 0l0 6.125l-1.59375 0l0 -13.265625l1.59375 0l0 5.703125l5.4375 0l0 -5.703125l1.59375 0l0 13.265625zm10.164307 -6.125l-5.53125 0l0 4.6875l6.453125 0l0 1.4375l-8.140625 0l0 -13.265625l8.0625 0l0 1.4375l-6.375 0l0 4.265625l5.53125 0l0 1.4375zm10.242432 2.6875l-4.4375 0l-1.0625 3.4375l-1.6875 0l4.28125 -13.265625l1.421875 0l4.203125 13.265625l-1.671875 0l-1.046875 -3.4375zm-3.984375 -1.46875l3.53125 0l-1.75 -5.75l-1.78125 5.75zm8.664368 4.90625l0 -13.265625l3.078125 0q1.375 0.015625 2.46875 0.46875q1.09375 0.453125 1.84375 1.265625q0.75 0.796875 1.140625 1.921875q0.40625 1.125 0.40625 2.5l0 0.96875q0 1.375 -0.40625 2.5q-0.390625 1.125 -1.140625 1.9375q-0.75 0.796875 -1.84375 1.25q-1.09375 0.4375 -2.46875 0.453125l-3.078125 0zm1.71875 -11.875l0 10.5l1.359375 0q1.078125 -0.015625 1.859375 -0.375q0.78125 -0.375 1.296875 -1.0q0.515625 -0.640625 0.765625 -1.5q0.25 -0.875 0.25 -1.890625l0 -0.984375q0 -1.015625 -0.265625 -1.875q-0.25 -0.859375 -0.765625 -1.484375q-0.5 -0.640625 -1.28125 -1.0q-0.78125 -0.375 -1.859375 -0.390625l-1.359375 0z" fill-rule="nonzero"/><path fill="#000000" fill-opacity="0.0" d="m808.50134 69.46457l-41.57483 0" fill-rule="evenodd"/><path stroke="#000000" stroke-width="1.0" stroke-linejoin="round" stroke-linecap="butt" d="m808.50134 69.46457l-35.57483 0" fill-rule="evenodd"/><path fill="#000000" stroke="#000000" stroke-width="1.0" stroke-linecap="butt" d="m772.9265 67.812836l-4.538086 1.6517334l4.538086 1.6517334z" fill-rule="evenodd"/><path fill="#000000" fill-opacity="0.0" d="m285.99213 -1.8188976l73.13385 0l0 40.0l-73.13385 0z" fill-rule="evenodd"/><path fill="#000000" d="m317.1029 25.1011l2.78125 -13.359375l9.90625 0l-0.46875 2.234375l-7.140625 0l-0.640625 3.03125l6.90625 0l-0.453125 2.234375l-6.921875 0l-0.828125 3.625l7.765625 0l-0.46875 2.234375l-10.4375 0z" fill-rule="nonzero"/><path fill="#000000" fill-opacity="0.0" d="m379.08136 -1.8188976l73.13385 0l0 40.0l-73.13385 0z" fill-rule="evenodd"/><path fill="#000000" d="m398.57886 25.1011l2.796875 -13.359375l3.59375 0q1.5 0 1.921875 0.046875q0.828125 0.078125 1.484375 0.34375q0.65625 0.25 1.1875 0.71875q0.53125 0.453125 0.90625 1.109375q0.390625 0.640625 0.59375 1.484375q0.21875 0.84375 0.21875 1.84375q0 2.15625 -0.828125 3.828125q-0.8125 1.671875 -2.0625 2.65625q-0.953125 0.765625 -2.46875 1.125q-0.859375 0.203125 -2.640625 0.203125l-4.703125 0zm3.203125 -2.15625l1.390625 0q1.515625 0 2.1875 -0.171875q0.671875 -0.1875 1.25 -0.703125q0.796875 -0.734375 1.359375 -1.96875q0.5625 -1.234375 0.5625 -2.890625q0 -1.421875 -0.46875 -2.140625q-0.453125 -0.71875 -1.125 -0.953125q-0.484375 -0.171875 -1.6875 -0.171875l-1.59375 0l-1.875 9.0zm14.457306 0.234375l0 -3.46875l-3.5 0l0 -2.390625l3.5 0l0 -3.484375l2.328125 0l0 3.484375l3.515625 0l0 2.390625l-3.515625 0l0 3.46875l-2.328125 0zm6.6293335 1.921875l2.796875 -13.359375l9.34375 0l-0.484375 2.234375l-6.59375 0l-0.671875 3.203125l6.46875 0l-0.46875 2.234375l-6.453125 0l-1.1875 5.6875l-2.75 0z" fill-rule="nonzero"/><path fill="#000000" fill-opacity="0.0" d="m477.30185 -1.8188976l73.13382 0l0 40.0l-73.13382 0z" fill-rule="evenodd"/><path fill="#000000" d="m517.56976 20.2886l2.765625 0.421875q-0.8125 2.25 -2.4375 3.4375q-1.609375 1.1875 -3.78125 1.1875q-2.4530945 0 -3.8437195 -1.46875q-1.375 -1.484375 -1.375 -4.28125q0 -2.28125 0.921875 -4.171875q0.921875 -1.890625 2.5624695 -2.890625q1.640625 -1.0 3.578125 -1.0q2.171875 0 3.5 1.15625q1.34375 1.15625 1.578125 3.171875l-2.625 0.25q-0.21875 -1.171875 -0.84375 -1.6875q-0.625 -0.53125 -1.671875 -0.53125q-1.125 0 -2.125 0.703125q-0.984375 0.6875 -1.578125 2.15625q-0.5937195 1.46875 -0.5937195 2.9375q0 1.609375 0.7655945 2.484375q0.78125 0.875 1.921875 0.875q1.0625 0 1.953125 -0.6875q0.890625 -0.703125 1.328125 -2.0625z" fill-rule="nonzero"/></g></svg>